<?xml version="1.0" encoding="UTF-8" standalone="no"?><!DOCTYPE svg PUBLIC "-//W3C//DTD SVG 1.1//EN" "http://www.w3.org/Graphics/SVG/1.1/DTD/svg11.dtd"><svg width="100%" height="100%" viewBox="0 0 271 120" version="1.1" xmlns="http://www.w3.org/2000/svg" xmlns:xlink="http://www.w3.org/1999/xlink" xml:space="preserve" xmlns:serif="http://www.serif.com/" style="fill-rule:evenodd;clip-rule:evenodd;stroke-linejoin:round;stroke-miterlimit:2;"><rect id="Mesa-de-trabajo1" serif:id="Mesa de trabajo1" x="0" y="0" width="270.073" height="120" style="fill:none;"/><path d="M38.683,92.73l-37.452,0l-0,-86.321l38.469,0c7.495,-2.82 24.465,-7.891 45.789,-5.995l0.323,6.124c-0,0 -1.783,-0.055 -4.707,-0.071l0,38.756c3.514,-1.365 5.503,-2.42 5.503,-2.42l0.228,30.77c0,-0 -2.14,0.121 -5.731,-0.065l0,6.641c1.722,0.044 3.402,0.007 5.029,-0.118l0.322,19.662c0,-0 -9.598,-1.459 -22.423,-6.963l-7.287,0c8.352,4.202 18.175,8.039 29.71,11.153l-0.322,16.117c-0,-0 -25.533,-6.69 -47.451,-27.27Zm-1.264,-85.418l-35.286,-0c0,-0 0,84.516 0,84.516l35.6,-0c-11.383,-10.953 -21.666,-25.718 -26.703,-45.32c-0,-0 7.161,26.115 43.954,45.32l6.999,-0c-13.098,-5.914 -29.066,-15.978 -41.605,-32.749c-25.787,-34.49 15.149,-50.929 15.149,-50.929c0,-0 0.654,-0.322 1.892,-0.838Zm42.784,38.255l-0,-38.255l-22.397,-0c-10.08,0.874 -20.066,2.61 -24.535,5.995c-10.637,8.059 -18.051,12.894 -14.183,31.267c3.574,16.977 36.323,34.506 61.115,35.544l-0,-6.661c-9.941,-0.619 -29.321,-3.544 -46.017,-16.295c-6.424,-4.905 -13.009,-12.249 -14.104,-18.016c-1.094,-5.76 -0.042,-9.131 -0.134,-9.777c0.338,1.517 1.294,19.891 23.127,21.639c15.871,1.271 29.529,-2.591 37.128,-5.441Zm-60.275,-16.269c-0.006,-0.012 -0.014,-0.022 -0.022,-0.029c0.007,0 0.014,0.01 0.022,0.029Zm92.088,13.395l0.486,7.394l-0.486,0c-0.649,-2.213 -1.574,-3.807 -2.777,-4.78c-1.203,-0.973 -2.647,-1.46 -4.331,-1.46c-1.412,0 -2.688,0.367 -3.828,1.099c-1.141,0.733 -2.038,1.901 -2.691,3.505c-0.654,1.604 -0.981,3.599 -0.981,5.984c0,1.967 0.309,3.673 0.926,5.117c0.617,1.443 1.545,2.55 2.785,3.32c1.239,0.77 2.654,1.155 4.244,1.155c1.381,0 2.6,-0.302 3.656,-0.906c1.057,-0.604 2.218,-1.805 3.483,-3.601l0.487,0.321c-1.067,1.935 -2.312,3.352 -3.735,4.25c-1.422,0.899 -3.112,1.348 -5.068,1.348c-3.525,-0 -6.255,-1.337 -8.19,-4.01c-1.444,-1.989 -2.165,-4.332 -2.165,-7.026c-0,-2.171 0.476,-4.166 1.427,-5.984c0.952,-1.818 2.263,-3.227 3.931,-4.227c1.668,-1 3.491,-1.499 5.468,-1.499c1.538,-0 3.055,0.385 4.55,1.154c0.44,0.236 0.754,0.353 0.942,0.353c0.282,0 0.528,-0.101 0.737,-0.304c0.272,-0.289 0.466,-0.69 0.581,-1.203l0.549,-0Zm9.16,8.917c1.655,-0 3.089,0.642 4.302,1.927c1.213,1.285 1.819,2.888 1.819,4.811c0,1.98 -0.611,3.623 -1.833,4.931c-1.223,1.307 -2.702,1.961 -4.438,1.961c-1.755,-0 -3.23,-0.638 -4.424,-1.913c-1.194,-1.275 -1.791,-2.926 -1.791,-4.95c0,-2.07 0.69,-3.759 2.069,-5.066c1.197,-1.134 2.629,-1.701 4.296,-1.701Zm-0.178,0.701c-1.141,0 -2.056,0.433 -2.746,1.298c-0.858,1.076 -1.288,2.653 -1.288,4.729c0,2.128 0.445,3.765 1.335,4.912c0.684,0.871 1.586,1.307 2.708,1.307c1.197,0 2.186,-0.477 2.967,-1.432c0.78,-0.955 1.17,-2.461 1.17,-4.518c0,-2.23 -0.429,-3.893 -1.288,-4.989c-0.69,-0.871 -1.642,-1.307 -2.858,-1.307Zm20.064,12.631l-3.404,-0l-4.315,-6.094c-0.32,0.012 -0.58,0.019 -0.781,0.019c-0.081,-0 -0.169,-0.002 -0.263,-0.005c-0.094,-0.003 -0.191,-0.008 -0.291,-0.014l-0,3.787c-0,0.82 0.087,1.329 0.263,1.528c0.238,0.282 0.595,0.423 1.072,0.423l0.498,0l-0,0.356l-5.463,-0l0,-0.356l0.48,0c0.539,0 0.924,-0.179 1.156,-0.538c0.132,-0.199 0.198,-0.67 0.198,-1.413l-0,-8.421c-0,-0.82 -0.088,-1.329 -0.263,-1.528c-0.245,-0.282 -0.608,-0.423 -1.091,-0.423l-0.48,0l0,-0.355l4.645,-0c1.354,-0 2.352,0.101 2.995,0.302c0.642,0.202 1.187,0.574 1.636,1.115c0.448,0.542 0.672,1.187 0.672,1.937c-0,0.801 -0.256,1.497 -0.766,2.086c-0.511,0.59 -1.303,1.006 -2.375,1.25l2.633,3.739c0.602,0.858 1.119,1.429 1.551,1.711c0.433,0.282 0.997,0.461 1.693,0.538l-0,0.356Zm-9.054,-6.7c0.119,-0 0.222,0.002 0.31,0.005c0.088,0.003 0.16,0.004 0.216,0.004c1.216,0 2.133,-0.269 2.75,-0.807c0.618,-0.538 0.926,-1.224 0.926,-2.057c0,-0.814 -0.249,-1.476 -0.747,-1.985c-0.498,-0.509 -1.158,-0.764 -1.979,-0.764c-0.364,-0 -0.856,0.061 -1.476,0.183l-0,5.421Zm20.045,-6.334l0.141,3.056l-0.357,0c-0.069,-0.538 -0.163,-0.923 -0.282,-1.153c-0.195,-0.372 -0.453,-0.646 -0.776,-0.822c-0.323,-0.176 -0.748,-0.264 -1.274,-0.264l-1.796,-0l0,9.958c0,0.801 0.085,1.301 0.254,1.499c0.238,0.269 0.605,0.404 1.1,0.404l0.442,-0l-0,0.356l-5.406,-0l-0,-0.356l0.451,-0c0.539,-0 0.921,-0.167 1.147,-0.5c0.138,-0.205 0.207,-0.673 0.207,-1.403l-0,-9.958l-1.533,-0c-0.595,-0 -1.018,0.044 -1.269,0.134c-0.326,0.122 -0.605,0.356 -0.837,0.702c-0.232,0.346 -0.37,0.814 -0.413,1.403l-0.358,0l0.151,-3.056l10.408,-0Zm4.654,0.711l-0,5.152l2.802,-0c0.727,-0 1.213,-0.112 1.457,-0.336c0.326,-0.295 0.508,-0.814 0.545,-1.558l0.348,0l0,4.537l-0.348,0c-0.087,-0.634 -0.175,-1.041 -0.263,-1.22c-0.113,-0.225 -0.298,-0.401 -0.555,-0.529c-0.257,-0.128 -0.652,-0.192 -1.184,-0.192l-2.802,-0l-0,4.296c-0,0.577 0.025,0.928 0.075,1.053c0.05,0.125 0.138,0.224 0.263,0.298c0.126,0.073 0.364,0.11 0.715,0.11l2.162,0c0.721,0 1.245,-0.051 1.571,-0.153c0.325,-0.103 0.639,-0.305 0.94,-0.606c0.388,-0.397 0.786,-0.997 1.194,-1.798l0.376,0l-1.1,3.269l-9.825,-0l-0,-0.356l0.451,-0c0.301,-0 0.586,-0.074 0.856,-0.221c0.2,-0.103 0.336,-0.256 0.409,-0.461c0.072,-0.206 0.108,-0.625 0.108,-1.26l-0,-8.468c-0,-0.827 -0.082,-1.336 -0.245,-1.528c-0.225,-0.257 -0.602,-0.385 -1.128,-0.385l-0.451,0l-0,-0.355l9.825,-0l0.141,2.854l-0.367,0c-0.131,-0.685 -0.277,-1.156 -0.437,-1.413c-0.16,-0.256 -0.396,-0.451 -0.71,-0.586c-0.251,-0.096 -0.692,-0.144 -1.326,-0.144l-3.497,-0Zm-44.808,15.345l0.487,7.395l-0.487,-0c-0.648,-2.214 -1.574,-3.807 -2.777,-4.781c-1.203,-0.973 -2.646,-1.459 -4.33,-1.459c-1.413,-0 -2.689,0.366 -3.829,1.098c-1.14,0.733 -2.037,1.901 -2.691,3.505c-0.654,1.605 -0.981,3.599 -0.981,5.984c0,1.967 0.309,3.673 0.926,5.117c0.617,1.444 1.546,2.55 2.785,3.32c1.24,0.77 2.655,1.155 4.245,1.155c1.38,0 2.599,-0.302 3.655,-0.906c1.057,-0.604 2.218,-1.805 3.484,-3.601l0.486,0.321c-1.067,1.935 -2.312,3.352 -3.734,4.251c-1.423,0.898 -3.112,1.347 -5.068,1.347c-3.525,0 -6.256,-1.337 -8.191,-4.01c-1.443,-1.989 -2.165,-4.331 -2.165,-7.026c-0,-2.171 0.476,-4.166 1.428,-5.984c0.952,-1.818 2.262,-3.227 3.93,-4.227c1.669,-0.999 3.491,-1.499 5.468,-1.499c1.538,-0 3.055,0.385 4.551,1.155c0.439,0.235 0.753,0.353 0.941,0.352c0.283,0.001 0.528,-0.101 0.738,-0.304c0.272,-0.289 0.465,-0.69 0.58,-1.203l0.549,-0Zm9.161,8.917c1.655,-0 3.088,0.642 4.301,1.927c1.213,1.285 1.82,2.888 1.82,4.811c-0,1.98 -0.612,3.624 -1.834,4.931c-1.222,1.307 -2.701,1.961 -4.438,1.961c-1.755,-0 -3.229,-0.638 -4.423,-1.913c-1.194,-1.275 -1.791,-2.925 -1.791,-4.95c-0,-2.07 0.689,-3.759 2.068,-5.066c1.197,-1.134 2.629,-1.701 4.297,-1.701Zm-0.179,0.701c-1.141,0 -2.056,0.433 -2.745,1.298c-0.859,1.077 -1.288,2.653 -1.288,4.729c-0,2.128 0.445,3.765 1.335,4.912c0.683,0.871 1.586,1.307 2.708,1.307c1.197,0 2.186,-0.477 2.966,-1.432c0.78,-0.955 1.17,-2.461 1.17,-4.518c0,-2.23 -0.429,-3.893 -1.288,-4.988c-0.689,-0.872 -1.642,-1.308 -2.858,-1.308Zm6.798,-0.403l3.46,-0l7.794,9.775l0,-7.517c0,-0.801 -0.088,-1.3 -0.263,-1.499c-0.232,-0.269 -0.599,-0.404 -1.1,-0.404l-0.442,0l-0,-0.355l4.438,-0l-0,0.355l-0.452,0c-0.539,0 -0.921,0.167 -1.147,0.5c-0.138,0.205 -0.206,0.673 -0.206,1.403l-0,10.987l-0.339,0l-8.405,-10.496l-0,8.026c-0,0.801 0.084,1.301 0.253,1.499c0.239,0.27 0.605,0.404 1.1,0.404l0.452,0l-0,0.356l-4.438,-0l-0,-0.356l0.442,0c0.545,0 0.931,-0.167 1.156,-0.5c0.138,-0.205 0.207,-0.673 0.207,-1.403l0,-9.064c-0.37,-0.443 -0.65,-0.734 -0.841,-0.875c-0.191,-0.141 -0.472,-0.272 -0.842,-0.394c-0.182,-0.058 -0.457,-0.087 -0.827,-0.087l-0,-0.355Zm22.997,-0.298l0,4.508l-0.348,-0c-0.112,-0.865 -0.315,-1.554 -0.606,-2.067c-0.291,-0.513 -0.707,-0.919 -1.246,-1.221c-0.539,-0.301 -1.097,-0.451 -1.673,-0.451c-0.652,-0 -1.191,0.203 -1.617,0.61c-0.427,0.407 -0.64,0.87 -0.64,1.389c0,0.397 0.135,0.759 0.404,1.086c0.389,0.481 1.314,1.122 2.774,1.923c1.191,0.653 2.004,1.155 2.44,1.504c0.436,0.349 0.771,0.761 1.006,1.235c0.235,0.474 0.353,0.971 0.353,1.49c-0,0.987 -0.375,1.837 -1.124,2.552c-0.749,0.714 -1.713,1.072 -2.891,1.072c-0.37,-0 -0.718,-0.029 -1.044,-0.087c-0.194,-0.032 -0.597,-0.149 -1.208,-0.351c-0.611,-0.202 -0.998,-0.302 -1.161,-0.302c-0.157,-0 -0.281,0.048 -0.372,0.144c-0.09,0.096 -0.158,0.295 -0.202,0.596l-0.348,-0l0,-4.47l0.348,0c0.163,0.936 0.383,1.636 0.659,2.1c0.275,0.465 0.697,0.851 1.264,1.159c0.567,0.307 1.189,0.461 1.866,0.461c0.784,-0 1.403,-0.212 1.857,-0.634c0.455,-0.423 0.682,-0.923 0.682,-1.5c-0,-0.32 -0.086,-0.644 -0.259,-0.971c-0.172,-0.327 -0.44,-0.631 -0.803,-0.913c-0.245,-0.192 -0.912,-0.601 -2.003,-1.225c-1.091,-0.625 -1.866,-1.124 -2.327,-1.495c-0.461,-0.372 -0.81,-0.782 -1.048,-1.231c-0.239,-0.448 -0.358,-0.942 -0.358,-1.48c0,-0.935 0.351,-1.741 1.053,-2.417c0.702,-0.676 1.596,-1.014 2.68,-1.014c0.677,-0 1.395,0.169 2.153,0.509c0.351,0.16 0.599,0.24 0.743,0.24c0.163,0 0.296,-0.049 0.399,-0.149c0.104,-0.099 0.187,-0.299 0.249,-0.6l0.348,-0Zm13.032,0.298l0.141,3.056l-0.358,0c-0.069,-0.538 -0.163,-0.922 -0.282,-1.153c-0.194,-0.372 -0.453,-0.646 -0.775,-0.822c-0.323,-0.176 -0.748,-0.264 -1.274,-0.264l-1.796,-0l-0,9.958c-0,0.801 0.084,1.301 0.254,1.499c0.238,0.27 0.605,0.404 1.1,0.404l0.442,0l-0,0.356l-5.407,-0l0,-0.356l0.452,0c0.539,0 0.921,-0.167 1.147,-0.5c0.138,-0.205 0.207,-0.673 0.207,-1.403l-0,-9.958l-1.533,-0c-0.595,-0 -1.018,0.044 -1.269,0.134c-0.326,0.122 -0.605,0.356 -0.837,0.702c-0.232,0.346 -0.37,0.814 -0.414,1.403l-0.357,0l0.151,-3.056l10.408,-0Zm6.572,12.678l-0,0.356l-5.463,-0l0,-0.356l0.451,0c0.527,0 0.909,-0.157 1.147,-0.471c0.151,-0.205 0.226,-0.698 0.226,-1.48l0,-8.42c0,-0.66 -0.041,-1.096 -0.122,-1.308c-0.063,-0.16 -0.191,-0.298 -0.386,-0.413c-0.275,-0.154 -0.564,-0.231 -0.865,-0.231l-0.451,0l0,-0.355l5.463,-0l-0,0.355l-0.461,0c-0.52,0 -0.899,0.157 -1.138,0.471c-0.156,0.205 -0.235,0.699 -0.235,1.481l0,8.42c0,0.66 0.041,1.096 0.123,1.307c0.062,0.16 0.194,0.298 0.394,0.413c0.27,0.154 0.555,0.231 0.856,0.231l0.461,0Zm11.63,-12.678l0.141,3.056l-0.357,0c-0.069,-0.538 -0.163,-0.922 -0.282,-1.153c-0.195,-0.372 -0.453,-0.646 -0.776,-0.822c-0.323,-0.176 -0.747,-0.264 -1.274,-0.264l-1.796,-0l0,9.958c0,0.801 0.085,1.301 0.254,1.499c0.238,0.27 0.605,0.404 1.1,0.404l0.442,0l0,0.356l-5.406,-0l-0,-0.356l0.451,0c0.539,0 0.922,-0.167 1.147,-0.5c0.138,-0.205 0.207,-0.673 0.207,-1.403l0,-9.958l-1.532,-0c-0.596,-0 -1.019,0.044 -1.27,0.134c-0.326,0.122 -0.605,0.356 -0.836,0.702c-0.232,0.346 -0.37,0.814 -0.414,1.403l-0.357,0l0.15,-3.056l10.408,-0Zm9.816,0.355l-0,-0.355l4.513,-0l-0,0.355l-0.48,0c-0.501,0 -0.887,0.215 -1.156,0.644c-0.132,0.199 -0.198,0.66 -0.198,1.384l0,5.287c0,1.307 -0.126,2.321 -0.38,3.042c-0.254,0.721 -0.752,1.34 -1.495,1.856c-0.743,0.515 -1.754,0.773 -3.032,0.773c-1.392,0 -2.448,-0.246 -3.169,-0.74c-0.721,-0.493 -1.232,-1.156 -1.532,-1.99c-0.201,-0.57 -0.301,-1.64 -0.301,-3.21l-0,-5.094c-0,-0.801 -0.108,-1.327 -0.325,-1.577c-0.216,-0.25 -0.565,-0.375 -1.048,-0.375l-0.48,0l0,-0.355l5.51,-0l0,0.355l-0.489,0c-0.526,0 -0.902,0.17 -1.128,0.51c-0.157,0.23 -0.235,0.711 -0.235,1.442l-0,5.68c-0,0.507 0.045,1.087 0.136,1.74c0.091,0.654 0.256,1.163 0.494,1.528c0.238,0.366 0.581,0.667 1.029,0.904c0.448,0.237 0.999,0.356 1.65,0.356c0.834,-0 1.58,-0.186 2.238,-0.558c0.658,-0.372 1.108,-0.847 1.349,-1.427c0.242,-0.58 0.362,-1.562 0.362,-2.946l0,-5.277c0,-0.814 -0.087,-1.324 -0.263,-1.529c-0.244,-0.282 -0.608,-0.423 -1.091,-0.423l-0.479,0Zm16.322,-0.653l0.291,4.431l-0.291,-0c-0.389,-1.327 -0.943,-2.281 -1.664,-2.865c-0.721,-0.583 -1.586,-0.874 -2.595,-0.874c-0.846,-0 -1.611,0.219 -2.294,0.658c-0.684,0.439 -1.221,1.139 -1.613,2.1c-0.392,0.962 -0.587,2.157 -0.587,3.586c-0,1.179 0.184,2.201 0.554,3.066c0.37,0.865 0.926,1.528 1.669,1.99c0.743,0.461 1.591,0.692 2.543,0.692c0.828,-0 1.558,-0.181 2.191,-0.543c0.633,-0.362 1.329,-1.082 2.087,-2.158l0.292,0.192c-0.64,1.16 -1.385,2.009 -2.238,2.547c-0.852,0.539 -1.865,0.808 -3.037,0.808c-2.112,-0 -3.748,-0.801 -4.908,-2.403c-0.865,-1.192 -1.297,-2.596 -1.297,-4.21c-0,-1.301 0.285,-2.496 0.855,-3.586c0.571,-1.089 1.356,-1.933 2.356,-2.533c0.999,-0.599 2.092,-0.898 3.276,-0.898c0.922,-0 1.831,0.23 2.727,0.692c0.263,0.141 0.451,0.211 0.564,0.211c0.169,0 0.317,-0.061 0.442,-0.182c0.163,-0.173 0.279,-0.414 0.348,-0.721l0.329,-0Zm7.211,12.976l0,0.356l-5.462,-0l-0,-0.356l0.451,0c0.526,0 0.909,-0.157 1.147,-0.471c0.15,-0.205 0.226,-0.698 0.226,-1.48l-0,-8.42c-0,-0.66 -0.041,-1.096 -0.123,-1.308c-0.062,-0.16 -0.191,-0.298 -0.385,-0.413c-0.276,-0.154 -0.564,-0.231 -0.865,-0.231l-0.451,0l-0,-0.355l5.462,-0l0,0.355l-0.46,0c-0.521,0 -0.9,0.157 -1.138,0.471c-0.157,0.205 -0.235,0.699 -0.235,1.481l-0,8.42c-0,0.66 0.041,1.096 0.122,1.307c0.063,0.16 0.194,0.298 0.395,0.413c0.27,0.154 0.555,0.231 0.856,0.231l0.46,0Zm7.531,-12.976c1.655,-0 3.089,0.642 4.302,1.927c1.213,1.285 1.819,2.888 1.819,4.811c0,1.98 -0.611,3.624 -1.833,4.931c-1.223,1.307 -2.702,1.961 -4.438,1.961c-1.755,-0 -3.23,-0.638 -4.424,-1.913c-1.194,-1.275 -1.791,-2.925 -1.791,-4.95c0,-2.07 0.69,-3.759 2.069,-5.066c1.197,-1.134 2.629,-1.701 4.296,-1.701Zm-0.178,0.701c-1.141,0 -2.056,0.433 -2.746,1.298c-0.858,1.077 -1.288,2.653 -1.288,4.729c0,2.128 0.445,3.765 1.335,4.912c0.684,0.871 1.586,1.307 2.708,1.307c1.197,0 2.186,-0.477 2.966,-1.432c0.781,-0.955 1.171,-2.461 1.171,-4.518c0,-2.23 -0.429,-3.893 -1.288,-4.988c-0.69,-0.872 -1.642,-1.308 -2.858,-1.308Zm6.797,-0.403l3.46,-0l7.795,9.775l-0,-7.517c-0,-0.801 -0.088,-1.3 -0.264,-1.499c-0.231,-0.269 -0.598,-0.404 -1.1,-0.404l-0.441,0l-0,-0.355l4.437,-0l0,0.355l-0.451,0c-0.539,0 -0.921,0.167 -1.147,0.5c-0.138,0.205 -0.207,0.673 -0.207,1.403l0,10.987l-0.338,0l-8.406,-10.496l0,8.026c0,0.801 0.085,1.301 0.254,1.499c0.238,0.27 0.605,0.404 1.1,0.404l0.451,0l0,0.356l-4.437,-0l-0,-0.356l0.441,0c0.546,0 0.931,-0.167 1.157,-0.5c0.138,-0.205 0.207,-0.673 0.207,-1.403l-0,-9.064c-0.37,-0.443 -0.651,-0.734 -0.842,-0.875c-0.191,-0.141 -0.471,-0.272 -0.841,-0.394c-0.182,-0.058 -0.458,-0.087 -0.828,-0.087l0,-0.355Zm22.979,8.67l-4.936,-0l-0.865,2.057c-0.213,0.506 -0.32,0.884 -0.32,1.134c0,0.199 0.093,0.373 0.278,0.524c0.185,0.15 0.584,0.248 1.199,0.293l-0,0.356l-4.015,-0l-0,-0.356c0.533,-0.096 0.877,-0.221 1.034,-0.375c0.32,-0.307 0.674,-0.932 1.062,-1.874l4.485,-10.727l0.329,-0l4.438,10.842c0.357,0.872 0.682,1.437 0.973,1.697c0.292,0.259 0.698,0.405 1.218,0.437l-0,0.356l-5.03,-0l-0,-0.356c0.507,-0.026 0.851,-0.112 1.029,-0.259c0.179,-0.148 0.268,-0.327 0.268,-0.539c0,-0.282 -0.125,-0.727 -0.376,-1.336l-0.771,-1.874Zm-0.263,-0.712l-2.163,-5.267l-2.218,5.267l4.381,0Zm16.407,1.471l0.31,0.067l-1.091,3.538l-9.872,-0l-0,-0.356l0.479,0c0.54,0 0.925,-0.179 1.157,-0.538c0.132,-0.205 0.197,-0.679 0.197,-1.423l0,-8.41c0,-0.814 -0.087,-1.324 -0.263,-1.529c-0.244,-0.282 -0.608,-0.423 -1.091,-0.423l-0.479,0l-0,-0.355l5.773,-0l-0,0.355c-0.677,-0.006 -1.152,0.058 -1.425,0.193c-0.272,0.134 -0.459,0.304 -0.559,0.509c-0.1,0.205 -0.15,0.695 -0.15,1.471l-0,8.189c-0,0.532 0.05,0.897 0.15,1.096c0.075,0.135 0.191,0.234 0.348,0.298c0.157,0.064 0.645,0.096 1.467,0.096l0.93,0c0.978,0 1.665,-0.074 2.059,-0.221c0.395,-0.147 0.756,-0.409 1.082,-0.783c0.326,-0.375 0.652,-0.966 0.978,-1.774Zm-173.059,21.656l0,-0.356l0.464,-0c0.521,-0 0.89,-0.176 1.108,-0.529c0.133,-0.211 0.2,-0.685 0.2,-1.422l0,-8.421c0,-0.813 -0.085,-1.323 -0.254,-1.528c-0.237,-0.282 -0.588,-0.423 -1.054,-0.423l-0.464,0l0,-0.356l5.015,0c1.842,0 3.242,0.221 4.202,0.664c0.96,0.442 1.733,1.179 2.317,2.21c0.585,1.032 0.877,2.224 0.877,3.576c-0,1.814 -0.521,3.329 -1.563,4.547c-1.169,1.358 -2.95,2.038 -5.342,2.038l-5.506,-0Zm3.516,-0.942c0.77,0.179 1.415,0.269 1.936,0.269c1.405,-0 2.571,-0.523 3.497,-1.567c0.927,-1.045 1.39,-2.461 1.39,-4.249c0,-1.8 -0.463,-3.22 -1.39,-4.258c-0.926,-1.038 -2.117,-1.557 -3.57,-1.557c-0.545,-0 -1.166,0.093 -1.863,0.279l0,11.083Zm13.501,-11.381l0,5.152l2.707,-0c0.703,-0 1.172,-0.112 1.409,-0.337c0.315,-0.294 0.49,-0.813 0.527,-1.557l0.336,0l-0,4.537l-0.336,0c-0.085,-0.634 -0.17,-1.041 -0.255,-1.221c-0.109,-0.224 -0.288,-0.4 -0.536,-0.528c-0.248,-0.128 -0.63,-0.192 -1.145,-0.192l-2.707,-0l0,4.296c-0,0.577 0.024,0.928 0.073,1.053c0.048,0.125 0.133,0.224 0.254,0.298c0.121,0.073 0.351,0.11 0.691,0.11l2.089,0c0.697,0 1.202,-0.051 1.517,-0.154c0.315,-0.102 0.618,-0.304 0.909,-0.605c0.375,-0.397 0.76,-0.997 1.154,-1.798l0.363,0l-1.063,3.269l-9.494,-0l0,-0.356l0.436,-0c0.291,-0 0.567,-0.074 0.827,-0.221c0.194,-0.103 0.326,-0.257 0.395,-0.462c0.07,-0.205 0.105,-0.624 0.105,-1.259l-0,-8.468c-0,-0.827 -0.079,-1.336 -0.237,-1.528c-0.218,-0.257 -0.581,-0.385 -1.09,-0.385l-0.436,0l0,-0.356l9.494,0l0.136,2.855l-0.354,0c-0.127,-0.685 -0.268,-1.156 -0.422,-1.413c-0.155,-0.256 -0.383,-0.452 -0.686,-0.586c-0.243,-0.096 -0.67,-0.144 -1.281,-0.144l-3.38,-0Zm18.152,8.718l0.3,0.067l-1.054,3.538l-9.539,-0l-0,-0.356l0.463,-0c0.521,-0 0.893,-0.18 1.118,-0.538c0.127,-0.205 0.19,-0.68 0.19,-1.423l0,-8.411c0,-0.813 -0.084,-1.323 -0.254,-1.528c-0.236,-0.282 -0.588,-0.423 -1.054,-0.423l-0.463,0l-0,-0.356l5.578,0l0,0.356c-0.654,-0.006 -1.113,0.058 -1.376,0.192c-0.264,0.135 -0.444,0.305 -0.541,0.51c-0.097,0.205 -0.145,0.695 -0.145,1.47l-0,8.19c-0,0.532 0.048,0.897 0.145,1.096c0.073,0.134 0.185,0.234 0.336,0.298c0.152,0.064 0.624,0.096 1.417,0.096l0.9,-0c0.945,-0 1.608,-0.074 1.99,-0.221c0.381,-0.148 0.729,-0.409 1.044,-0.784c0.315,-0.374 0.63,-0.966 0.945,-1.773Zm9.249,-8.718l-0,5.152l2.707,-0c0.703,-0 1.172,-0.112 1.409,-0.337c0.314,-0.294 0.49,-0.813 0.526,-1.557l0.337,0l-0,4.537l-0.337,0c-0.084,-0.634 -0.169,-1.041 -0.254,-1.221c-0.109,-0.224 -0.288,-0.4 -0.536,-0.528c-0.248,-0.128 -0.63,-0.192 -1.145,-0.192l-2.707,-0l-0,4.296c-0,0.577 0.024,0.928 0.073,1.053c0.048,0.125 0.133,0.224 0.254,0.298c0.121,0.073 0.351,0.11 0.69,0.11l2.09,0c0.697,0 1.202,-0.051 1.517,-0.154c0.315,-0.102 0.618,-0.304 0.909,-0.605c0.375,-0.397 0.76,-0.997 1.154,-1.798l0.363,0l-1.063,3.269l-9.494,-0l0,-0.356l0.436,-0c0.291,-0 0.566,-0.074 0.827,-0.221c0.194,-0.103 0.325,-0.257 0.395,-0.462c0.07,-0.205 0.105,-0.624 0.105,-1.259l-0,-8.468c-0,-0.827 -0.079,-1.336 -0.237,-1.528c-0.218,-0.257 -0.581,-0.385 -1.09,-0.385l-0.436,0l0,-0.356l9.494,0l0.136,2.855l-0.354,0c-0.127,-0.685 -0.268,-1.156 -0.422,-1.413c-0.155,-0.256 -0.384,-0.452 -0.686,-0.586c-0.243,-0.096 -0.67,-0.144 -1.281,-0.144l-3.38,-0Zm18.688,-1.01l0.282,4.432l-0.282,-0c-0.375,-1.327 -0.911,-2.282 -1.608,-2.865c-0.696,-0.583 -1.532,-0.874 -2.507,-0.874c-0.818,-0 -1.557,0.219 -2.217,0.658c-0.66,0.439 -1.18,1.139 -1.558,2.1c-0.379,0.961 -0.568,2.157 -0.568,3.586c-0,1.179 0.179,2.201 0.536,3.066c0.357,0.865 0.895,1.528 1.613,1.99c0.717,0.461 1.536,0.692 2.457,0.692c0.8,-0 1.505,-0.181 2.117,-0.543c0.612,-0.363 1.284,-1.082 2.017,-2.158l0.281,0.192c-0.617,1.16 -1.338,2.009 -2.162,2.547c-0.824,0.538 -1.802,0.808 -2.934,0.808c-2.041,-0 -3.622,-0.802 -4.743,-2.404c-0.836,-1.191 -1.254,-2.595 -1.254,-4.21c0,-1.301 0.276,-2.496 0.827,-3.585c0.551,-1.089 1.31,-1.934 2.276,-2.533c0.966,-0.599 2.022,-0.899 3.166,-0.899c0.891,0 1.769,0.231 2.635,0.693c0.254,0.14 0.436,0.211 0.545,0.211c0.164,-0 0.306,-0.061 0.427,-0.183c0.158,-0.173 0.27,-0.413 0.336,-0.721l0.318,0Zm10.103,0.654l-0,-0.356l4.361,0l-0,0.356l-0.464,0c-0.484,0 -0.857,0.215 -1.117,0.644c-0.127,0.199 -0.191,0.66 -0.191,1.384l0,5.287c0,1.307 -0.122,2.321 -0.368,3.042c-0.245,0.721 -0.727,1.339 -1.444,1.855c-0.718,0.516 -1.695,0.774 -2.93,0.774c-1.345,0 -2.365,-0.247 -3.062,-0.74c-0.696,-0.493 -1.19,-1.157 -1.481,-1.99c-0.194,-0.57 -0.291,-1.64 -0.291,-3.21l0,-5.095c0,-0.801 -0.104,-1.326 -0.313,-1.576c-0.209,-0.25 -0.547,-0.375 -1.013,-0.375l-0.463,0l-0,-0.356l5.324,0l-0,0.356l-0.473,0c-0.509,0 -0.872,0.17 -1.09,0.51c-0.152,0.23 -0.227,0.711 -0.227,1.441l-0,5.681c-0,0.506 0.044,1.086 0.132,1.74c0.087,0.654 0.246,1.163 0.476,1.528c0.231,0.366 0.562,0.667 0.995,0.904c0.433,0.237 0.965,0.355 1.595,0.355c0.805,0 1.526,-0.185 2.162,-0.557c0.636,-0.372 1.071,-0.848 1.304,-1.427c0.233,-0.58 0.35,-1.562 0.35,-2.947l-0,-5.277c-0,-0.813 -0.085,-1.323 -0.255,-1.528c-0.236,-0.282 -0.587,-0.423 -1.054,-0.423l-0.463,0Zm13.083,8.315l-4.77,-0l-0.836,2.057c-0.206,0.506 -0.309,0.884 -0.309,1.134c0,0.198 0.09,0.373 0.268,0.524c0.179,0.15 0.565,0.248 1.159,0.293l-0,0.356l-3.88,-0l0,-0.356c0.515,-0.096 0.848,-0.221 1,-0.375c0.308,-0.308 0.651,-0.932 1.026,-1.874l4.334,-10.728l0.318,0l4.288,10.843c0.345,0.871 0.659,1.437 0.94,1.697c0.282,0.259 0.674,0.405 1.177,0.437l-0,0.356l-4.861,-0l0,-0.356c0.491,-0.026 0.822,-0.112 0.995,-0.26c0.173,-0.147 0.259,-0.326 0.259,-0.538c0,-0.282 -0.121,-0.727 -0.363,-1.336l-0.745,-1.874Zm-0.255,-0.712l-2.089,-5.267l-2.144,5.267l4.233,0Zm5.506,5.076l-0,-0.356l0.463,-0c0.521,-0 0.891,-0.176 1.109,-0.529c0.133,-0.211 0.199,-0.685 0.199,-1.422l0,-8.421c0,-0.813 -0.084,-1.323 -0.254,-1.528c-0.236,-0.282 -0.587,-0.423 -1.054,-0.423l-0.463,0l-0,-0.356l5.015,0c1.841,0 3.242,0.221 4.202,0.664c0.96,0.442 1.732,1.179 2.317,2.21c0.584,1.032 0.876,2.224 0.876,3.576c0,1.814 -0.521,3.329 -1.562,4.547c-1.169,1.358 -2.95,2.038 -5.342,2.038l-5.506,-0Zm3.516,-0.942c0.769,0.179 1.414,0.269 1.935,0.269c1.405,-0 2.571,-0.523 3.498,-1.567c0.926,-1.045 1.39,-2.461 1.39,-4.249c-0,-1.8 -0.464,-3.22 -1.39,-4.258c-0.927,-1.038 -2.117,-1.557 -3.571,-1.557c-0.545,-0 -1.166,0.093 -1.862,0.279l-0,11.083Zm16.417,-12.391c1.599,0 2.984,0.643 4.156,1.928c1.172,1.285 1.758,2.888 1.758,4.811c0,1.98 -0.59,3.623 -1.771,4.931c-1.181,1.307 -2.611,1.961 -4.289,1.961c-1.695,-0 -3.12,-0.638 -4.274,-1.913c-1.154,-1.276 -1.731,-2.926 -1.731,-4.951c0,-2.069 0.666,-3.758 1.999,-5.065c1.157,-1.134 2.541,-1.702 4.152,-1.702Zm-0.173,0.702c-1.102,0 -1.986,0.433 -2.653,1.298c-0.829,1.076 -1.244,2.653 -1.244,4.729c-0,2.127 0.43,3.765 1.29,4.912c0.66,0.871 1.532,1.307 2.616,1.307c1.157,0 2.113,-0.477 2.867,-1.432c0.754,-0.955 1.131,-2.461 1.131,-4.518c-0,-2.23 -0.415,-3.893 -1.245,-4.989c-0.666,-0.871 -1.587,-1.307 -2.762,-1.307Zm19.388,12.631l-3.289,-0l-4.17,-6.095c-0.309,0.013 -0.56,0.02 -0.754,0.02c-0.079,-0 -0.164,-0.002 -0.254,-0.005c-0.091,-0.003 -0.185,-0.008 -0.282,-0.015l-0,3.788c-0,0.82 0.085,1.329 0.254,1.528c0.23,0.282 0.576,0.423 1.036,0.423l0.482,-0l-0,0.356l-5.279,-0l0,-0.356l0.463,-0c0.521,-0 0.894,-0.18 1.118,-0.538c0.127,-0.199 0.191,-0.67 0.191,-1.413l-0,-8.421c-0,-0.82 -0.085,-1.329 -0.255,-1.528c-0.236,-0.282 -0.587,-0.423 -1.054,-0.423l-0.463,0l0,-0.356l4.488,0c1.308,0 2.273,0.101 2.894,0.303c0.621,0.202 1.148,0.574 1.581,1.115c0.433,0.542 0.649,1.187 0.649,1.937c0,0.801 -0.247,1.496 -0.74,2.086c-0.494,0.589 -1.259,1.006 -2.294,1.249l2.544,3.74c0.581,0.858 1.081,1.429 1.499,1.711c0.418,0.282 0.963,0.461 1.635,0.538l-0,0.356Zm-8.749,-6.7c0.115,-0 0.215,0.002 0.3,0.005c0.085,0.003 0.154,0.004 0.209,0.004c1.175,0 2.061,-0.269 2.657,-0.807c0.597,-0.538 0.895,-1.224 0.895,-2.057c0,-0.814 -0.241,-1.475 -0.722,-1.985c-0.482,-0.509 -1.119,-0.764 -1.913,-0.764c-0.351,-0 -0.826,0.061 -1.426,0.183l-0,5.421Z" style="fill:#777;"/></svg>