<?xml version="1.0" encoding="UTF-8" standalone="no"?><!DOCTYPE svg PUBLIC "-//W3C//DTD SVG 1.1//EN" "http://www.w3.org/Graphics/SVG/1.1/DTD/svg11.dtd"><svg width="100%" height="100%" viewBox="0 0 82 120" version="1.1" xmlns="http://www.w3.org/2000/svg" xmlns:xlink="http://www.w3.org/1999/xlink" xml:space="preserve" xmlns:serif="http://www.serif.com/" style="fill-rule:evenodd;clip-rule:evenodd;stroke-linejoin:round;stroke-miterlimit:2;"><rect id="Mesa-de-trabajo1" serif:id="Mesa de trabajo1" x="0" y="0" width="81.964" height="120" style="fill:none;"/><path d="M0.302,120l-0,-109.41l0.118,-0.376c0.082,-0.263 0.054,-0.24 0.19,-0.603c0.357,-0.959 0.936,-2.259 1.787,-3.573c0.438,-0.677 0.943,-1.343 1.535,-1.995c0.611,-0.672 1.316,-1.31 2.103,-1.877c0.807,-0.58 1.707,-1.091 2.714,-1.481c0.827,-0.32 1.765,-0.52 2.74,-0.659l0.181,-0.026l69.993,-0l-0,120l-81.361,-0Zm76.217,-49.955c-0,0 -0,-64.901 -0,-64.901l-64.48,0l-0.002,0.001c-0.508,0.076 -0.999,0.17 -1.433,0.338c-0.582,0.225 -1.099,0.524 -1.565,0.86c-0.486,0.349 -0.922,0.743 -1.299,1.158c-0.395,0.436 -0.732,0.881 -1.025,1.333c-0.6,0.927 -1.011,1.845 -1.269,2.531l-0,64.066l64.136,-0l-0,5.144c-0.012,-0 -0.036,0.001 -0.072,-0l-64.064,-0c-0,-0 -0,34.281 -0,34.281c-0,-0 71.073,-0 71.073,-0l-0,-37.485c-0.695,0.582 -1.333,1.057 -1.916,1.436c-0.723,0.469 -1.357,0.789 -1.912,1.035c-0.62,0.275 -1.139,0.444 -1.561,0.548c-0.402,0.1 -0.728,0.146 -0.973,0.168l-0.575,0.017l-0,-5.144c-0,-0 0.219,-0.011 0.317,-0.035c0.192,-0.048 0.425,-0.132 0.706,-0.256c0.347,-0.154 0.744,-0.354 1.197,-0.648c0.504,-0.327 1.059,-0.755 1.675,-1.288c0.653,-0.565 1.38,-1.243 2.146,-2.079c0.286,-0.311 0.588,-0.69 0.896,-1.08Zm-36.054,-30.581c-8.037,-2.158 -9.981,-10.998 -5.927,-16.069c2.54,-3.177 7.651,-5.242 15.548,-2.341c1.334,0.49 2.019,1.971 1.529,3.304c-0.49,1.334 -1.971,2.019 -3.305,1.529c-4.91,-1.803 -8.171,-1.252 -9.75,0.723c-2.047,2.561 -0.712,6.912 3.424,7.927c2.082,0.385 3.775,0.29 4.55,0.208l-0.119,-4.519c-0.037,-1.421 1.086,-2.604 2.506,-2.642c1.421,-0.037 2.604,1.086 2.642,2.507l0.148,5.617c-0,0.015 0,0.03 0,0.045c0,0.036 -0,0.073 -0.001,0.109c-0.009,0.265 -0.058,0.525 -0.146,0.771l-0.044,0.234l-0.443,0.891c-0.486,0.728 -1.767,2.167 -5.462,2.267l-0,4.316l8.36,0c1.292,0 2.341,1.049 2.341,2.341c0,1.292 -1.049,2.341 -2.341,2.341l-8.36,-0l-0,1.17l8.36,-0c1.292,-0 2.341,1.049 2.341,2.34c0,1.292 -1.049,2.341 -2.341,2.341l-8.36,0l-0,1.17l8.36,0c1.292,0 2.341,1.049 2.341,2.341c0,1.292 -1.049,2.341 -2.341,2.341l-8.378,-0c-0.149,1.279 -1.238,2.274 -2.557,2.274c-1.421,-0 -2.575,-1.154 -2.575,-2.575l0,-20.961Zm22.53,19.847c1.27,-0.97 3.089,-0.727 4.059,0.543c0.97,1.27 0.726,3.089 -0.544,4.059c-13.473,10.29 -33.6,8.708 -44.96,-3.497c-11.569,-12.431 -9.863,-31.009 3.86,-41.489c11.742,-8.969 28.874,-9.079 40.754,-0.261c1.283,0.952 1.552,2.767 0.599,4.051c-0.952,1.283 -2.768,1.551 -4.051,0.599c-9.849,-7.311 -24.052,-7.222 -33.787,0.213c-10.898,8.323 -12.323,23.07 -3.135,32.942c9.399,10.099 26.057,11.354 37.205,2.84Zm-15.293,46.36l-1.808,0l0,5.106l-1.431,0l-0,-5.106l-1.798,0l-0,-1.147l5.037,0l-0,1.147Zm6.424,5.106l-1.555,0l-0.451,-1.391l-2.253,0l-0.447,1.391l-1.546,0l2.306,-6.253l1.693,0l2.253,6.253Zm-2.333,-2.472l-0.68,-2.102c-0.05,-0.157 -0.086,-0.344 -0.106,-0.562l-0.036,-0c-0.014,0.183 -0.051,0.364 -0.11,0.545l-0.689,2.119l1.621,-0Zm3.124,2.472l0,-6.253l2.245,0c2.25,0 3.376,1.016 3.376,3.048c-0,0.974 -0.308,1.752 -0.922,2.333c-0.614,0.581 -1.432,0.872 -2.454,0.872l-2.245,0Zm1.427,-5.106l0,3.964l0.707,-0c0.619,-0 1.104,-0.183 1.456,-0.55c0.352,-0.366 0.528,-0.865 0.528,-1.495c0,-0.596 -0.174,-1.065 -0.523,-1.407c-0.349,-0.341 -0.839,-0.512 -1.47,-0.512l-0.698,0Zm-17.855,-4.256l-1.44,-0l-2.612,-3.929c-0.153,-0.23 -0.259,-0.403 -0.318,-0.519l-0.018,-0c0.024,0.221 0.036,0.558 0.036,1.012l-0,3.436l-1.348,-0l0,-6.253l1.538,-0l2.514,3.806c0.115,0.172 0.221,0.342 0.318,0.511l0.018,-0c-0.024,-0.146 -0.036,-0.432 -0.036,-0.859l0,-3.458l1.348,-0l-0,6.253Zm5.258,-0l-3.8,-0l0,-6.253l3.654,-0l0,1.147l-2.227,-0l0,1.391l2.073,-0l-0,1.142l-2.073,-0l0,1.43l2.373,0l0,1.143Zm17.064,-0l-3.773,-0l0,-6.253l1.427,-0l0,5.11l2.346,0l0,1.143Zm-46.067,9.362l-0,-6.253l2.244,0c2.251,0 3.376,1.016 3.376,3.048c0,0.974 -0.307,1.752 -0.921,2.333c-0.614,0.581 -1.433,0.872 -2.455,0.872l-2.244,0Zm1.427,-5.106l-0,3.964l0.707,-0c0.618,-0 1.104,-0.183 1.456,-0.55c0.352,-0.366 0.528,-0.865 0.528,-1.495c-0,-0.596 -0.175,-1.065 -0.524,-1.407c-0.349,-0.341 -0.839,-0.512 -1.469,-0.512l-0.698,0Zm9.054,5.106l-3.8,0l-0,-6.253l3.654,0l-0,1.147l-2.227,0l-0,1.391l2.072,0l0,1.142l-2.072,0l-0,1.431l2.373,-0l-0,1.142Zm4.798,0l-3.773,0l-0,-6.253l1.427,0l-0,5.111l2.346,-0l0,1.142Zm7.132,0l-3.8,0l-0,-6.253l3.654,0l-0,1.147l-2.227,0l-0,1.391l2.072,0l0,1.142l-2.072,0l-0,1.431l2.373,-0l-0,1.142Zm0.733,-0.24l0,-1.395c0.256,0.212 0.535,0.371 0.835,0.477c0.301,0.106 0.604,0.16 0.91,0.16c0.18,-0 0.337,-0.016 0.471,-0.048c0.134,-0.032 0.246,-0.077 0.336,-0.133c0.09,-0.057 0.157,-0.124 0.201,-0.201c0.044,-0.077 0.066,-0.161 0.066,-0.251c0,-0.122 -0.035,-0.231 -0.106,-0.327c-0.071,-0.096 -0.167,-0.184 -0.289,-0.266c-0.123,-0.081 -0.268,-0.16 -0.436,-0.235c-0.168,-0.076 -0.349,-0.153 -0.543,-0.231c-0.495,-0.204 -0.864,-0.452 -1.107,-0.746c-0.243,-0.293 -0.364,-0.648 -0.364,-1.064c-0,-0.325 0.066,-0.605 0.198,-0.839c0.133,-0.234 0.313,-0.427 0.542,-0.578c0.228,-0.151 0.492,-0.262 0.793,-0.333c0.3,-0.072 0.618,-0.107 0.954,-0.107c0.33,-0 0.622,0.019 0.877,0.059c0.255,0.039 0.49,0.099 0.705,0.18l0,1.304c-0.106,-0.072 -0.222,-0.136 -0.347,-0.192c-0.125,-0.055 -0.254,-0.101 -0.386,-0.137c-0.133,-0.036 -0.265,-0.063 -0.396,-0.081c-0.131,-0.017 -0.255,-0.026 -0.373,-0.026c-0.162,0 -0.31,0.016 -0.442,0.046c-0.133,0.031 -0.245,0.073 -0.336,0.129c-0.091,0.055 -0.162,0.121 -0.212,0.198c-0.05,0.077 -0.075,0.164 -0.075,0.259c-0,0.105 0.028,0.199 0.084,0.282c0.056,0.083 0.135,0.161 0.238,0.235c0.104,0.074 0.229,0.147 0.376,0.218c0.147,0.071 0.314,0.145 0.499,0.22c0.254,0.105 0.481,0.216 0.683,0.334c0.202,0.118 0.375,0.251 0.519,0.399c0.144,0.148 0.255,0.318 0.332,0.508c0.076,0.19 0.114,0.412 0.114,0.665c0,0.349 -0.067,0.642 -0.201,0.878c-0.134,0.237 -0.316,0.429 -0.545,0.576c-0.23,0.147 -0.497,0.252 -0.802,0.316c-0.305,0.064 -0.627,0.096 -0.966,0.096c-0.347,0 -0.678,-0.029 -0.992,-0.087c-0.313,-0.058 -0.585,-0.145 -0.815,-0.262Zm34.849,-18.485l-1.555,-0l-0.451,-1.391l-2.253,0l-0.447,1.391l-1.546,-0l2.306,-6.253l1.693,0l2.253,6.253Zm-2.333,-2.472l-0.68,-2.102c-0.05,-0.157 -0.086,-0.344 -0.106,-0.562l-0.036,-0c-0.014,0.183 -0.051,0.364 -0.11,0.545l-0.689,2.119l1.621,-0Zm-43.673,11.416c-0.618,0.352 -1.387,0.528 -2.306,0.528c-1.019,-0 -1.823,-0.279 -2.411,-0.835c-0.587,-0.557 -0.881,-1.324 -0.881,-2.301c-0,-0.982 0.321,-1.783 0.963,-2.402c0.642,-0.619 1.497,-0.929 2.563,-0.929c0.672,0 1.264,0.092 1.776,0.275l0,1.321c-0.489,-0.279 -1.087,-0.419 -1.794,-0.419c-0.592,0 -1.074,0.19 -1.447,0.569c-0.372,0.38 -0.559,0.886 -0.559,1.52c0,0.642 0.167,1.14 0.502,1.491c0.334,0.352 0.786,0.528 1.354,0.528c0.342,-0 0.613,-0.048 0.813,-0.144l0,-1.221l-1.268,0l-0,-1.125l2.695,0l0,3.144Zm5.033,0.419l-3.8,-0l0,-6.253l3.654,-0l0,1.147l-2.227,-0l0,1.391l2.073,-0l-0,1.142l-2.073,-0l0,1.43l2.373,0l-0,1.143Zm32.512,9.471c-0.908,0 -1.647,-0.291 -2.218,-0.874c-0.572,-0.583 -0.858,-1.342 -0.858,-2.278c0,-0.989 0.29,-1.788 0.871,-2.399c0.58,-0.61 1.349,-0.915 2.306,-0.915c0.905,-0 1.636,0.292 2.194,0.876c0.558,0.584 0.837,1.355 0.837,2.311c0,0.983 -0.289,1.775 -0.868,2.376c-0.579,0.602 -1.334,0.903 -2.264,0.903Zm0.061,-5.254c-0.5,-0 -0.898,0.185 -1.193,0.556c-0.294,0.37 -0.441,0.861 -0.441,1.471c-0,0.62 0.147,1.109 0.441,1.47c0.295,0.36 0.681,0.541 1.158,0.541c0.492,-0 0.882,-0.176 1.171,-0.526c0.289,-0.35 0.433,-0.836 0.433,-1.458c0,-0.649 -0.14,-1.153 -0.42,-1.513c-0.28,-0.361 -0.662,-0.541 -1.149,-0.541Zm2.121,-21.817l-1.383,1.409l-1.007,-0l1.149,-1.409l1.241,0Zm-15.774,8.237l-3.773,-0l-0,-6.253l1.427,0l-0,5.111l2.346,-0l0,1.142Zm15.045,-0l-1.427,-0l0,-6.253l1.427,0l0,6.253Zm-14.188,9.363l-3.093,-0l-0.985,-1.609c-0.074,-0.123 -0.144,-0.232 -0.212,-0.327c-0.068,-0.096 -0.136,-0.179 -0.205,-0.247c-0.07,-0.068 -0.142,-0.12 -0.217,-0.157c-0.075,-0.036 -0.157,-0.054 -0.245,-0.054l-0.385,-0l0,2.394l-1.427,-0l0,-6.253l2.262,-0c1.538,-0 2.307,0.567 2.307,1.7c-0,0.218 -0.034,0.42 -0.102,0.604c-0.067,0.185 -0.163,0.351 -0.287,0.499c-0.124,0.149 -0.273,0.277 -0.448,0.384c-0.176,0.108 -0.371,0.192 -0.586,0.253l0,0.018c0.094,0.029 0.186,0.076 0.274,0.141c0.088,0.066 0.174,0.142 0.256,0.229c0.083,0.087 0.162,0.181 0.237,0.281c0.075,0.101 0.143,0.199 0.205,0.295l1.139,1.757l2.272,-6.161l1.693,-0l2.253,6.253l-1.555,-0l-0.451,-1.391l-2.253,-0l-0.447,1.391Zm2.373,-2.473l-0.68,-2.101c-0.05,-0.157 -0.086,-0.345 -0.106,-0.563l-0.036,0c-0.014,0.183 -0.052,0.365 -0.11,0.545l-0.689,2.119l1.621,0Zm-7.715,-2.725l0,1.74l0.619,-0c0.306,-0 0.552,-0.087 0.738,-0.262c0.188,-0.177 0.283,-0.397 0.283,-0.658c-0,-0.547 -0.332,-0.82 -0.995,-0.82l-0.645,-0Zm-31.985,-4.387c-0.463,0.221 -1.067,0.331 -1.812,0.331c-0.972,-0 -1.737,-0.282 -2.293,-0.846c-0.557,-0.564 -0.835,-1.315 -0.835,-2.254c-0,-1 0.313,-1.811 0.939,-2.433c0.626,-0.622 1.438,-0.933 2.436,-0.933c0.619,-0 1.14,0.077 1.565,0.231l-0,1.356c-0.425,-0.25 -0.908,-0.375 -1.45,-0.375c-0.595,-0 -1.075,0.184 -1.44,0.554c-0.365,0.369 -0.548,0.869 -0.548,1.5c-0,0.604 0.172,1.086 0.517,1.445c0.344,0.359 0.808,0.538 1.392,0.538c0.556,0 1.066,-0.133 1.529,-0.401l-0,1.287Zm40.005,0.331c-0.907,-0 -1.647,-0.291 -2.218,-0.874c-0.572,-0.583 -0.857,-1.343 -0.857,-2.279c-0,-0.988 0.29,-1.787 0.87,-2.398c0.58,-0.61 1.349,-0.915 2.307,-0.915c0.904,-0 1.635,0.292 2.193,0.876c0.559,0.584 0.838,1.355 0.838,2.311c-0,0.983 -0.29,1.775 -0.868,2.376c-0.579,0.602 -1.334,0.903 -2.265,0.903Zm0.062,-5.254c-0.501,-0 -0.899,0.185 -1.193,0.556c-0.295,0.37 -0.442,0.861 -0.442,1.471c-0,0.62 0.147,1.109 0.442,1.47c0.294,0.36 0.68,0.54 1.158,0.54c0.491,0 0.882,-0.175 1.17,-0.525c0.289,-0.35 0.433,-0.836 0.433,-1.458c0,-0.649 -0.139,-1.153 -0.419,-1.514c-0.28,-0.36 -0.663,-0.54 -1.149,-0.54Zm-26.396,5.145l-1.441,-0l-2.611,-3.929c-0.153,-0.229 -0.26,-0.402 -0.318,-0.519l-0.018,0c0.023,0.221 0.035,0.559 0.035,1.012l0,3.436l-1.347,-0l-0,-6.253l1.537,0l2.514,3.807c0.115,0.171 0.221,0.341 0.319,0.51l0.017,-0c-0.023,-0.145 -0.035,-0.432 -0.035,-0.859l-0,-3.458l1.348,0l-0,6.253Zm13.529,-0l-3.093,-0l-0.985,-1.609c-0.074,-0.122 -0.145,-0.231 -0.212,-0.327c-0.068,-0.096 -0.137,-0.178 -0.206,-0.246c-0.069,-0.069 -0.141,-0.121 -0.216,-0.157c-0.075,-0.037 -0.157,-0.055 -0.246,-0.055l-0.384,0l0,2.394l-1.427,-0l-0,-6.253l2.262,0c1.538,0 2.307,0.567 2.307,1.701c-0,0.218 -0.035,0.419 -0.102,0.604c-0.068,0.184 -0.163,0.351 -0.287,0.499c-0.124,0.148 -0.273,0.276 -0.449,0.384c-0.175,0.107 -0.37,0.192 -0.585,0.253l-0,0.017c0.094,0.029 0.185,0.076 0.274,0.142c0.088,0.065 0.174,0.141 0.256,0.229c0.083,0.087 0.161,0.181 0.236,0.281c0.076,0.1 0.144,0.198 0.206,0.294l1.138,1.758l2.273,-6.162l1.692,0l2.254,6.253l-1.555,-0l-0.451,-1.391l-2.254,0l-0.446,1.391Zm2.373,-2.472l-0.681,-2.102c-0.05,-0.157 -0.085,-0.344 -0.106,-0.562l-0.035,-0c-0.015,0.183 -0.052,0.364 -0.11,0.545l-0.69,2.119l1.622,-0Zm-7.715,-2.726l0,1.74l0.619,0c0.306,0 0.552,-0.087 0.738,-0.261c0.188,-0.178 0.282,-0.397 0.282,-0.659c0,-0.546 -0.331,-0.82 -0.994,-0.82l-0.645,0Zm27.642,5.198l-1.639,-0l-0.985,-1.609c-0.074,-0.122 -0.145,-0.231 -0.212,-0.327c-0.068,-0.096 -0.136,-0.178 -0.206,-0.246c-0.069,-0.069 -0.141,-0.121 -0.216,-0.157c-0.075,-0.037 -0.157,-0.055 -0.245,-0.055l-0.385,0l0,2.394l-1.427,-0l-0,-6.253l2.262,0c1.538,0 2.307,0.567 2.307,1.701c-0,0.218 -0.034,0.419 -0.102,0.604c-0.068,0.184 -0.163,0.351 -0.287,0.499c-0.124,0.148 -0.273,0.276 -0.449,0.384c-0.175,0.107 -0.37,0.192 -0.585,0.253l-0,0.017c0.094,0.029 0.186,0.076 0.274,0.142c0.088,0.065 0.174,0.141 0.256,0.229c0.083,0.087 0.161,0.181 0.237,0.281c0.075,0.1 0.143,0.198 0.205,0.294l1.197,1.849Zm-3.888,-5.198l0,1.74l0.619,0c0.306,0 0.552,-0.087 0.738,-0.261c0.188,-0.178 0.282,-0.397 0.282,-0.659c0,-0.546 -0.331,-0.82 -0.994,-0.82l-0.645,0Zm-41.821,5.307c-0.908,-0 -1.647,-0.291 -2.218,-0.874c-0.572,-0.583 -0.858,-1.343 -0.858,-2.279c0,-0.988 0.29,-1.787 0.871,-2.398c0.58,-0.61 1.349,-0.915 2.306,-0.915c0.905,-0 1.636,0.292 2.194,0.876c0.558,0.584 0.837,1.355 0.837,2.311c0,0.983 -0.289,1.775 -0.868,2.376c-0.579,0.602 -1.334,0.903 -2.264,0.903Zm0.062,-5.254c-0.501,-0 -0.899,0.185 -1.193,0.556c-0.295,0.37 -0.442,0.861 -0.442,1.471c-0,0.62 0.147,1.109 0.442,1.47c0.294,0.36 0.68,0.54 1.157,0.54c0.492,0 0.882,-0.175 1.171,-0.525c0.289,-0.35 0.433,-0.836 0.433,-1.458c0,-0.649 -0.14,-1.153 -0.42,-1.514c-0.28,-0.36 -0.662,-0.54 -1.148,-0.54Zm15.725,0.039l-1.807,0l-0,5.106l-1.432,-0l0,-5.106l-1.798,0l-0,-1.147l5.037,0l0,1.147Z" style="fill:#777;"/></svg>