<?xml version="1.0" encoding="UTF-8" standalone="no"?><!DOCTYPE svg PUBLIC "-//W3C//DTD SVG 1.1//EN" "http://www.w3.org/Graphics/SVG/1.1/DTD/svg11.dtd"><svg width="100%" height="100%" viewBox="0 0 193 120" version="1.1" xmlns="http://www.w3.org/2000/svg" xmlns:xlink="http://www.w3.org/1999/xlink" xml:space="preserve" xmlns:serif="http://www.serif.com/" style="fill-rule:evenodd;clip-rule:evenodd;stroke-linejoin:round;stroke-miterlimit:2;"><rect id="Mesa-de-trabajo1" serif:id="Mesa de trabajo1" x="0" y="0" width="192.396" height="120" style="fill:none;"/><clipPath id="_clip1"><rect id="Mesa-de-trabajo11" serif:id="Mesa de trabajo1" x="0" y="0" width="192.396" height="120"/></clipPath><g clip-path="url(#_clip1)"><path id="path965" d="M39.767,99.494c-17.665,1.997 -33.852,-6.225 -38.479,-20.44c-0.221,-0.679 -0.414,-1.367 -0.579,-2.063c-3.908,-16.494 8.717,-34.588 28.663,-41.081c0.724,-0.236 1.452,-0.454 2.185,-0.656c2.114,-20.286 16.764,-35.86 33.846,-35.236c13.532,0.494 25.04,11.024 29.79,25.523c6.894,4.664 12.791,12.277 16.205,21.554c0.08,0.231 0.159,0.464 0.236,0.697l-8.989,-0c-0.347,-0.842 -0.717,-1.671 -1.111,-2.484c-0.477,-0.973 -0.988,-1.921 -1.528,-2.842c-0.54,-0.921 -1.111,-1.813 -1.708,-2.673c-0.263,-0.377 -0.53,-0.747 -0.802,-1.111c0.028,0.825 0.034,1.657 0.019,2.494l-0.042,1.343c-0.092,1.771 -0.28,3.532 -0.562,5.273l-5.153,-0l0.02,-0.64c0.111,-6.119 -1.155,-11.92 -3.455,-16.972c-0.205,-0.123 -0.41,-0.242 -0.616,-0.358c-0.785,-0.443 -1.58,-0.835 -2.38,-1.177c-0.8,-0.342 -1.605,-0.632 -2.413,-0.869c-0.807,-0.238 -1.615,-0.423 -2.422,-0.554c-0.806,-0.132 -1.609,-0.21 -2.407,-0.234c-0.797,-0.024 -1.588,0.006 -2.368,0.09c-0.78,0.084 -1.55,0.222 -2.305,0.413c-0.756,0.191 -1.497,0.435 -2.22,0.731c-0.512,0.21 -1.015,0.445 -1.508,0.706c-0.696,0.369 -1.371,0.788 -2.023,1.256c-0.651,0.468 -1.279,0.984 -1.879,1.547c-0.601,0.563 -1.174,1.172 -1.718,1.824c-0.543,0.651 -1.056,1.346 -1.538,2.08c-0.323,0.493 -0.631,1.004 -0.924,1.531c5.356,2.496 9.806,6.19 12.839,10.841l-1.751,0c-0.483,-0.523 -0.991,-1.03 -1.521,-1.52c-0.738,-0.663 -1.519,-1.292 -2.338,-1.886c-0.82,-0.593 -1.678,-1.15 -2.57,-1.669c-0.893,-0.518 -1.819,-0.998 -2.776,-1.436c-0.956,-0.438 -1.942,-0.835 -2.954,-1.189c-0.121,-0.042 -0.243,-0.084 -0.365,-0.125c-0.04,0.101 -0.08,0.202 -0.12,0.303c-0.343,0.877 -0.649,1.785 -0.917,2.72c-0.268,0.935 -0.497,1.897 -0.688,2.881c-0.19,0.985 -0.342,1.991 -0.453,3.015c-0.111,1.023 -0.182,2.063 -0.213,3.116c-0.03,1.038 -0.022,2.088 0.027,3.145c0.945,-0.095 1.907,-0.148 2.882,-0.16c0.261,0.003 0.523,0.009 0.785,0.018l-0,0.474c-0.257,0.012 -0.512,0.027 -0.767,0.046c-0.92,0.102 -1.824,0.249 -2.71,0.441c-0.047,0.01 -0.095,0.02 -0.143,0.031c0.053,0.804 0.128,1.611 0.226,2.419c0.018,0.118 0.036,0.236 0.055,0.354c0.008,0.543 0.027,1.088 0.058,1.634c0.055,0.824 0.135,1.649 0.242,2.472c0.106,0.823 0.237,1.643 0.394,2.457c0.023,0.108 0.046,0.216 0.07,0.324c-1.057,-3.134 -1.776,-6.283 -2.177,-9.38c-0.445,0.12 -0.884,0.253 -1.317,0.397c-0.841,0.28 -1.657,0.603 -2.446,0.968c-0.789,0.365 -1.55,0.771 -2.278,1.218c-0.729,0.447 -1.426,0.933 -2.087,1.457c-0.661,0.524 -1.287,1.085 -1.874,1.681c-0.416,0.421 -0.812,0.861 -1.188,1.316c-0.531,0.643 -1.021,1.318 -1.469,2.022c-0.448,0.705 -0.852,1.438 -1.211,2.197c-0.224,0.471 -0.43,0.952 -0.618,1.442c2.384,3.194 5.285,5.873 8.603,7.832c-3.306,-1.809 -6.283,-4.232 -8.859,-7.128c-0.023,0.067 -0.045,0.134 -0.068,0.201c-0.267,0.805 -0.488,1.632 -0.661,2.476c-0.174,0.844 -0.299,1.705 -0.376,2.58c-0.078,0.874 -0.107,1.761 -0.087,2.657c0.02,0.895 0.088,1.799 0.204,2.707c0.117,0.909 0.281,1.821 0.493,2.733c0.212,0.912 0.471,1.822 0.776,2.728c0.305,0.906 0.656,1.807 1.052,2.698c0.396,0.892 0.835,1.774 1.318,2.642c0.482,0.867 1.005,1.721 1.569,2.556c0.07,0.105 0.141,0.209 0.213,0.312c0.236,-0.017 0.473,-0.037 0.709,-0.059c0.797,-0.074 1.592,-0.172 2.385,-0.292c1.119,-0.17 2.231,-0.386 3.332,-0.647c1.101,-0.261 2.189,-0.566 3.261,-0.915c1.071,-0.349 2.125,-0.742 3.156,-1.175c1.031,-0.435 2.04,-0.91 3.021,-1.425c0.98,-0.514 1.933,-1.067 2.853,-1.657c0.921,-0.59 1.808,-1.216 2.659,-1.875c0.533,-0.427 1.05,-0.867 1.551,-1.319c-5.313,5.764 -12.425,10.196 -20.326,12.7c0.33,0.377 0.669,0.748 1.016,1.113c0.709,0.747 1.451,1.467 2.223,2.157c0.546,0.489 1.107,0.963 1.681,1.42c0.811,0.647 1.649,1.261 2.509,1.84c0.86,0.579 1.742,1.123 2.643,1.629c0.9,0.505 1.818,0.973 2.751,1.4c0.931,0.428 1.876,0.815 2.83,1.16c0.954,0.345 1.916,0.648 2.883,0.907c0.966,0.259 1.936,0.474 2.906,0.644c0.969,0.171 1.937,0.297 2.9,0.377c0.962,0.08 1.919,0.115 2.865,0.104c0.946,-0.011 1.881,-0.067 2.802,-0.169c0.92,-0.102 1.824,-0.249 2.709,-0.441c0.886,-0.192 1.751,-0.429 2.592,-0.708c0.842,-0.28 1.658,-0.603 2.447,-0.968c0.789,-0.365 1.55,-0.772 2.278,-1.219c0.729,-0.447 1.426,-0.933 2.087,-1.457c0.661,-0.524 1.287,-1.085 1.874,-1.68c0.416,-0.422 0.812,-0.861 1.188,-1.316c0.531,-0.643 1.021,-1.318 1.469,-2.023c0.447,-0.705 0.852,-1.438 1.211,-2.196c0.36,-0.759 0.674,-1.542 0.942,-2.348c0.267,-0.805 0.488,-1.632 0.661,-2.476c0.174,-0.844 0.3,-1.705 0.377,-2.579c0.077,-0.874 0.106,-1.761 0.086,-2.657c-0.001,-0.014 -0.002,-0.028 -0.003,-0.042l2.44,0c1.916,9.286 -0.356,18.098 -6.234,24.178c-10.684,11.001 -30.618,10.334 -45.444,-1.522c-0.74,-0.592 -1.461,-1.206 -2.162,-1.842c-3.118,-2.832 -5.716,-5.987 -7.767,-9.312Zm-8.448,-57.757c-0.785,0.348 -1.555,0.721 -2.31,1.117c-0.981,0.514 -1.933,1.067 -2.854,1.657c-0.92,0.59 -1.808,1.216 -2.659,1.876c-0.852,0.659 -1.665,1.351 -2.438,2.073c-0.774,0.722 -1.506,1.474 -2.193,2.251c-0.688,0.778 -1.33,1.581 -1.925,2.407c-0.595,0.826 -1.142,1.673 -1.639,2.539c-0.496,0.865 -0.941,1.747 -1.334,2.644c-0.393,0.896 -0.733,1.805 -1.019,2.724c-0.285,0.918 -0.517,1.845 -0.692,2.776c-0.176,0.931 -0.295,1.865 -0.359,2.8c-0.063,0.935 -0.07,1.868 -0.02,2.797c0.034,0.658 0.097,1.313 0.189,1.964c0.128,0.919 0.313,1.829 0.552,2.726c0.24,0.898 0.535,1.782 0.884,2.65c0.348,0.866 0.75,1.715 1.203,2.543c0.454,0.828 0.959,1.634 1.514,2.415c0.554,0.78 1.157,1.534 1.807,2.259c0.65,0.726 1.345,1.421 2.083,2.083c0.738,0.663 1.519,1.292 2.338,1.886c0.82,0.593 1.678,1.15 2.57,1.669c0.893,0.519 1.819,0.998 2.776,1.436c0.957,0.438 1.943,0.835 2.955,1.188c1.011,0.354 2.047,0.664 3.103,0.929c0.982,0.247 1.98,0.455 2.991,0.624c-4.027,-9.781 -3.58,-20.244 1.96,-27.976c-4.513,-6.714 -7.213,-15.139 -7.483,-24.057Zm50.559,-21.139c-4.774,-4.956 -10.923,-8.056 -17.656,-8.298c-12.27,-0.443 -23.078,8.725 -27.338,21.799c2.262,-0.36 4.535,-0.558 6.794,-0.591c5.476,-0.075 10.677,0.825 15.317,2.565c2.674,-6.633 7.275,-11.771 13.414,-14.145c2.608,-1.007 5.396,-1.477 8.272,-1.396c0.399,0.011 0.798,0.033 1.197,0.066Zm-25.278,34.907c-0.614,-5.674 -0.163,-11.152 1.228,-16.024c-0.133,-0.035 -0.266,-0.069 -0.4,-0.103c-1.056,-0.265 -2.131,-0.485 -3.221,-0.66c-1.09,-0.175 -2.194,-0.303 -3.307,-0.385c-1.113,-0.082 -2.234,-0.118 -3.358,-0.106c-1.125,0.011 -2.253,0.069 -3.378,0.173c-0.797,0.074 -1.593,0.171 -2.386,0.292c-1.119,0.17 -2.231,0.385 -3.332,0.646c-1.016,0.241 -2.021,0.52 -3.012,0.836c-0.251,1.607 -0.406,3.253 -0.46,4.93c-0.225,7.128 1.422,14.003 4.518,19.774c0.022,-0.027 0.044,-0.055 0.066,-0.083c0.477,-0.597 0.983,-1.17 1.517,-1.719c3.985,-4.104 9.388,-6.719 15.525,-7.571Zm20.685,0.699l-2.903,-0l0,-2.025c0,-0.167 -0.145,-0.25 -0.435,-0.25c-0.303,0 -0.455,0.083 -0.455,0.25l-0,7.095c-0,0.166 0.152,0.25 0.455,0.25c0.29,-0 0.435,-0.084 0.435,-0.25l0,-2.524l2.903,-0l0,2.595c0,0.485 -0.337,0.875 -1.011,1.17c-0.675,0.29 -1.437,0.435 -2.286,0.435c-2.455,-0 -3.682,-0.614 -3.682,-1.84l-0,-6.582c-0,-1.326 1.227,-1.989 3.682,-1.989c2.198,-0 3.297,0.603 3.297,1.811l0,1.854Zm0.688,4.906l-0,-6.582c-0,-1.326 1.22,-1.989 3.661,-1.989c2.408,-0 3.611,0.658 3.611,1.975l0,6.582c0,0.594 -0.337,1.053 -1.011,1.376c-0.668,0.318 -1.541,0.478 -2.62,0.478c-2.427,-0 -3.641,-0.614 -3.641,-1.84Zm4.157,0.107l0,-6.967c0,-0.204 -0.172,-0.307 -0.516,-0.307c-0.357,0 -0.536,0.103 -0.536,0.307l0,6.967c0,0.204 0.179,0.307 0.536,0.307c0.344,-0 0.516,-0.103 0.516,-0.307Zm11.905,1.64l-3.277,0l-2.165,-5.448l0,5.448l-2.66,0l0,-10.226l3.621,0l1.821,4.664l0,-4.664l2.66,0l0,10.226Zm0.708,-4.093l2.903,-0l0,2.346c0,0.233 0.199,0.349 0.597,0.349c0.384,0 0.577,-0.116 0.577,-0.349l-0,-1.212c-0,-0.371 -0.351,-0.806 -1.052,-1.305c-1.356,-0.927 -2.199,-1.55 -2.529,-1.869c-0.331,-0.318 -0.496,-0.667 -0.496,-1.048l0,-1.148c0,-1.326 1.228,-1.989 3.682,-1.989c2.198,-0 3.298,0.603 3.298,1.811l-0,1.768l-2.903,0l-0,-1.882c-0,-0.205 -0.159,-0.307 -0.476,-0.307c-0.371,0 -0.556,0.197 -0.556,0.592l0.061,0.663c-0,0.381 0.357,0.823 1.072,1.327c1.328,0.898 2.171,1.526 2.528,1.882c0.365,0.357 0.547,0.761 0.547,1.212l-0,1.305c-0,1.36 -1.231,2.04 -3.692,2.04c-2.374,-0 -3.561,-0.618 -3.561,-1.854l0,-2.332Zm14.171,4.093l-6.231,0l0,-10.226l6.191,0l-0,1.32l-3.004,-0l-0,2.759l2.71,0l0,1.241l-2.71,0l-0,3.594l3.044,-0l0,1.312Zm0.496,-4.107l2.812,-0l-0,2.524c-0,0.166 0.148,0.25 0.445,0.25c0.296,-0 0.445,-0.084 0.445,-0.25l-0,-8.643l3.186,0l0,8.479c0,1.226 -1.204,1.84 -3.611,1.84c-0.856,-0 -1.618,-0.148 -2.286,-0.442c-0.661,-0.295 -0.991,-0.683 -0.991,-1.163l-0,-2.595Zm7.525,2.36l0,-6.582c0,-1.326 1.221,-1.989 3.662,-1.989c2.407,-0 3.611,0.658 3.611,1.975l-0,6.582c-0,0.594 -0.337,1.053 -1.012,1.376c-0.667,0.318 -1.54,0.478 -2.619,0.478c-2.428,-0 -3.642,-0.614 -3.642,-1.84Zm4.157,0.107l0,-6.967c0,-0.204 -0.172,-0.307 -0.515,-0.307c-0.358,0 -0.536,0.103 -0.536,0.307l-0,6.967c-0,0.204 0.178,0.307 0.536,0.307c0.343,-0 0.515,-0.103 0.515,-0.307Zm7.445,1.64l-0,-10.226l3.965,0c0.863,0 1.632,0.167 2.306,0.5c0.674,0.328 1.012,0.834 1.012,1.518l-0,6.19c-0,0.637 -0.317,1.134 -0.951,1.49c-0.627,0.352 -1.409,0.528 -2.347,0.528l-3.985,0Zm4.076,-1.854l0,-6.518c0,-0.356 -0.296,-0.534 -0.89,-0.534l0,7.594c0.594,-0 0.89,-0.181 0.89,-0.542Zm10.125,1.854l-6.231,0l0,-10.226l6.191,0l-0,1.32l-3.004,-0l-0,2.759l2.71,0l0,1.241l-2.71,0l-0,3.594l3.044,-0l0,1.312Zm10.216,0l-5.978,0l0,-10.226l3.187,0l-0,8.914l2.791,-0l0,1.312Zm9.114,0l-3.156,0l-0.536,-2.745l-1.426,-0l-0.537,2.745l-3.155,0l2.387,-10.226l4.036,0l2.387,10.226Zm-3.955,-4.164l-0.455,-3.052l-0.435,3.052l0.89,-0Zm-92.814,16.475l3.644,0l-0,3.473c-0,0.229 0.192,0.343 0.577,0.343c0.384,0 0.576,-0.114 0.576,-0.343l0,-11.89l4.129,0l0,11.664c0,1.688 -1.56,2.531 -4.679,2.531c-1.11,0 -2.097,-0.202 -2.962,-0.608c-0.857,-0.405 -1.285,-0.938 -1.285,-1.599l0,-3.571Zm10.363,-8.417l4.128,0l0,11.812c0,0.281 0.232,0.421 0.695,0.421c0.454,0 0.682,-0.14 0.682,-0.421l-0,-11.812l4.128,0l0,11.645c0,0.811 -0.45,1.439 -1.35,1.883c-0.9,0.445 -2.053,0.667 -3.46,0.667c-1.302,0 -2.434,-0.199 -3.395,-0.598c-0.952,-0.399 -1.428,-1.043 -1.428,-1.933l-0,-11.664Zm11.359,14.068l0,-14.068l5.138,0c1.119,0 2.115,0.229 2.988,0.687c0.874,0.451 1.311,1.148 1.311,2.089l0,8.516c0,0.876 -0.41,1.559 -1.232,2.05c-0.813,0.484 -1.826,0.726 -3.041,0.726l-5.164,-0Zm5.282,-2.551l0,-8.966c0,-0.491 -0.384,-0.736 -1.153,-0.736l-0,10.448c0.769,-0 1.153,-0.249 1.153,-0.746Zm9.097,2.551l-4.129,-0l-0,-14.068l4.129,0l-0,14.068Zm9.856,-9.153l-3.762,-0l0,-2.786c0,-0.229 -0.187,-0.343 -0.563,-0.343c-0.393,-0 -0.59,0.114 -0.59,0.343l-0,9.761c-0,0.229 0.197,0.343 0.59,0.343c0.376,0 0.563,-0.114 0.563,-0.343l0,-3.473l3.762,0l0,3.571c0,0.667 -0.437,1.203 -1.311,1.609c-0.873,0.399 -1.861,0.598 -2.962,0.598c-3.18,0 -4.771,-0.843 -4.771,-2.531l0,-9.054c0,-1.825 1.591,-2.737 4.771,-2.737c2.849,-0 4.273,0.83 4.273,2.491l0,2.551Zm12.085,9.153l-4.09,-0l-0.694,-3.777l-1.848,-0l-0.695,3.777l-4.089,-0l3.093,-14.068l5.23,0l3.093,14.068Zm-5.125,-5.729l-0.59,-4.199l-0.563,4.199l1.153,-0Zm14.378,-6.504l-2.306,-0l-0,12.233l-4.129,-0l-0,-12.233l-2.307,-0l0,-1.835l8.742,0l0,1.835Zm0.748,-1.835l4.128,0l0,11.812c0,0.281 0.232,0.421 0.695,0.421c0.454,0 0.682,-0.14 0.682,-0.421l-0,-11.812l4.128,0l0,11.645c0,0.811 -0.45,1.439 -1.35,1.883c-0.9,0.445 -2.053,0.667 -3.46,0.667c-1.302,0 -2.434,-0.199 -3.395,-0.598c-0.952,-0.399 -1.428,-1.043 -1.428,-1.933l-0,-11.664Zm20.709,14.087l-4.129,0c-0.446,-0.398 -0.668,-1.53 -0.668,-3.394l-0,-0.019l0.026,-0.844c0.026,-1.171 0.039,-1.769 0.039,-1.795c0,-0.478 -0.428,-0.717 -1.284,-0.717l-0,6.75l-4.129,-0l-0,-14.068l5.099,0c1.162,0 2.171,0.2 3.027,0.598c0.865,0.399 1.298,1.031 1.298,1.894l-0,1.687c-0,1.092 -0.852,1.831 -2.556,2.217c1.713,0.301 2.569,1.076 2.569,2.325l-0.066,1.541c0,2.249 0.258,3.525 0.774,3.825Zm-4.732,-9.221l0,-2.315c0,-0.491 -0.428,-0.736 -1.284,-0.736l-0,3.796c0.856,0 1.284,-0.248 1.284,-0.745Zm16.436,9.202l-4.089,-0l-0.695,-3.777l-1.848,-0l-0.694,3.777l-4.09,-0l3.093,-14.068l5.23,0l3.093,14.068Zm-5.124,-5.729l-0.59,-4.199l-0.564,4.199l1.154,-0Z" style="fill:#777;"/><g><path id="path844" d="M182.135,72.049c-0.47,-0.119 -0.942,-0.21 -1.413,-0.275c-1.074,-0.149 -2.149,-0.166 -3.201,-0.085c-1.053,0.081 -2.085,0.26 -3.072,0.501c-0.988,0.242 -1.932,0.545 -2.81,0.877c-0.878,0.332 -1.69,0.692 -2.415,1.046c-0.619,0.302 -1.136,0.589 -1.614,0.859c-1.121,-4.954 -2.596,-8.449 -2.596,-8.449c4.498,-1.988 8.459,-2.526 11.295,-2.567c2.836,-0.041 4.547,0.416 4.547,0.416c0,-0 0.366,1.011 0.868,2.588l-0.02,-0.241c0,-0 2.054,-0.733 4.786,-0.467c0.91,0.088 1.896,0.288 2.907,0.663l1.38,5.038c-0.023,-0.01 -0.014,-0.009 -0.038,-0.019c-0.321,-0.137 -0.71,-0.28 -1.156,-0.402c-0.445,-0.122 -0.947,-0.223 -1.493,-0.275c-0.546,-0.051 -1.136,-0.054 -1.759,0.02c-0.622,0.074 -1.277,0.224 -1.953,0.479c-0.373,0.141 -0.752,0.313 -1.135,0.522c0.013,0.051 0.025,0.101 0.038,0.152c-0.062,-0.023 -0.124,-0.046 -0.187,-0.069c-0.262,0.149 -0.526,0.316 -0.791,0.501c-0.031,0.022 -0.064,0.063 -0.095,0.086l-0.073,-0.899Z" style="fill:#777;"/><path id="path861" d="M182.474,76.237c-0.125,-0.05 -0.25,-0.097 -0.375,-0.141c-0.475,-0.165 -0.958,-0.286 -1.444,-0.368c-0.487,-0.082 -0.977,-0.125 -1.467,-0.134c-0.981,-0.019 -1.964,0.098 -2.92,0.304c-0.957,0.207 -1.886,0.503 -2.762,0.845c-0.876,0.343 -1.699,0.73 -2.439,1.12c-0.74,0.389 -1.399,0.781 -1.948,1.129c-0.419,0.266 -0.392,0.27 -0.671,0.467c-0.215,-1.601 -0.52,-3.083 -0.838,-4.487c0.478,-0.27 0.995,-0.557 1.614,-0.859c0.725,-0.354 1.537,-0.714 2.415,-1.046c0.878,-0.332 1.822,-0.635 2.81,-0.877c0.987,-0.241 2.019,-0.42 3.072,-0.501c1.052,-0.081 2.127,-0.064 3.201,0.085c0.537,0.074 1.074,0.181 1.608,0.326c0.256,0.07 0.51,0.167 0.765,0.261c0.433,-0.247 0.862,-0.446 1.283,-0.605c0.676,-0.255 1.331,-0.405 1.953,-0.479c0.623,-0.074 1.213,-0.071 1.759,-0.019c0.546,0.051 1.048,0.152 1.493,0.274c0.446,0.122 0.835,0.265 1.156,0.402c0.024,0.01 0.015,0.009 0.038,0.019l1.122,4.096c-0.143,-0.097 -0.139,-0.126 -0.407,-0.251c-0.283,-0.132 -0.634,-0.262 -1.052,-0.357c-0.418,-0.095 -0.902,-0.154 -1.451,-0.144c-0.549,0.01 -1.162,0.089 -1.837,0.273c-0.676,0.183 -1.415,0.47 -2.213,0.894c-0.236,0.126 -0.479,0.268 -0.728,0.425c0.02,0.129 0.039,0.258 0.058,0.386c-0.102,-0.074 -0.204,-0.151 -0.305,-0.227c-0.435,0.286 -0.886,0.612 -1.346,0.969l-0.144,-1.78Z" style="fill:#736d6d;"/><path id="path864" d="M182.823,80.56c-7.064,-0.075 -13.963,4.153 -13.963,4.153c-0.012,-1.813 -0.184,-3.563 -0.412,-5.254c0.279,-0.197 0.252,-0.201 0.671,-0.467c0.549,-0.348 1.208,-0.74 1.948,-1.129c0.74,-0.39 1.563,-0.777 2.439,-1.12c0.876,-0.342 1.805,-0.638 2.762,-0.845c0.956,-0.206 1.939,-0.323 2.92,-0.304c0.49,0.009 0.98,0.052 1.467,0.134c0.486,0.082 0.969,0.203 1.444,0.368c0.475,0.166 0.942,0.377 1.399,0.637c0.159,0.091 0.313,0.201 0.466,0.315c0.335,-0.221 0.661,-0.417 0.975,-0.584c0.798,-0.424 1.537,-0.711 2.213,-0.894c0.675,-0.184 1.288,-0.263 1.837,-0.273c0.549,-0.01 1.033,0.049 1.451,0.144c0.418,0.095 0.769,0.225 1.052,0.357c0.268,0.124 0.264,0.154 0.407,0.251l0.497,1.819c0,-0 -4.237,0.195 -9.453,4.172l-0.12,-1.48Z" style="fill:#606060;"/></g></g></svg>