<?xml version="1.0" encoding="UTF-8" standalone="no"?><!DOCTYPE svg PUBLIC "-//W3C//DTD SVG 1.1//EN" "http://www.w3.org/Graphics/SVG/1.1/DTD/svg11.dtd"><svg width="100%" height="100%" viewBox="0 0 156 120" version="1.1" xmlns="http://www.w3.org/2000/svg" xmlns:xlink="http://www.w3.org/1999/xlink" xml:space="preserve" xmlns:serif="http://www.serif.com/" style="fill-rule:evenodd;clip-rule:evenodd;stroke-linejoin:round;stroke-miterlimit:2;"><rect id="Mesa-de-trabajo1" serif:id="Mesa de trabajo1" x="0" y="0" width="155.844" height="120" style="fill:none;"/><clipPath id="_clip1"><path id="rect3008" d="M166.295,-1.295l-0,121.502l-176.295,-0l0,-121.502l176.295,0Z"/></clipPath><g clip-path="url(#_clip1)"><path d="M51.07,33.138c1.383,-0.209 2.82,-0.406 4.309,-0.588c1.328,-0.163 2.699,-0.313 4.11,-0.449c0.114,-0.011 0.228,-0.022 0.342,-0.033c0.114,-0.01 0.228,-0.021 0.342,-0.032c4.47,-0.411 9.346,-0.676 14.607,-0.716l0.07,-0l3.301,24.548l3.301,-24.541l0.07,-0c5.259,0.04 10.133,0.305 14.601,0.716c0.114,0.01 0.228,0.021 0.342,0.032c0.114,0.011 0.228,0.021 0.342,0.032c1.411,0.136 2.782,0.287 4.11,0.449c1.49,0.182 2.926,0.38 4.309,0.588l-27.075,27.075l-27.081,-27.081Zm10.841,16.149l-16.5,16.5l-21.603,-21.603l2.28,-2.279l19.136,19.136c0.103,0.103 0.271,0.103 0.374,-0l16.313,-16.313l16.053,16.053c0.104,0.103 0.271,0.103 0.374,-0l16.053,-16.053l16.314,16.313c0.103,0.103 0.27,0.103 0.374,-0l19.136,-19.136l2.279,2.279l-21.602,21.603l-16.501,-16.5l-16.24,16.24l-16.24,-16.24Zm48.981,11.192l-16.126,-16.126l11.109,-11.109c1.604,0.249 3.134,0.514 4.589,0.788l-4.359,10.519l9.25,-0.113l-4.366,-10.308c7.059,1.358 12.285,2.932 15.496,4.045l-1.501,-1.501c-5.493,-2.758 -11.324,-4.791 -16.938,-6.288l-4.759,-4.759l7.605,-7.605l21.228,21.229l-21.228,21.228Zm-65.481,0l-21.229,-21.228l21.229,-21.229l7.605,7.605l-4.75,4.749c-5.611,1.496 -11.441,3.527 -16.933,6.284c-1.8,0.903 -3.563,1.884 -5.271,2.95c0,0 1.283,-0.586 3.766,-1.446c3.213,-1.113 8.434,-2.684 15.484,-4.041l-4.365,10.308l9.25,0.113l-4.359,-10.519c1.453,-0.274 2.981,-0.538 4.583,-0.787l11.116,11.115l-16.126,16.126Zm6.815,-31.082c-0.972,0.222 -1.955,0.46 -2.946,0.714l28.871,-28.871l28.882,28.881c-0.997,-0.256 -1.985,-0.495 -2.963,-0.718c-0.996,-0.228 -1.981,-0.44 -2.951,-0.636c-0.271,-0.055 -0.541,-0.109 -0.81,-0.162c-0.105,-0.02 -0.209,-0.04 -0.314,-0.061c-0.104,-0.02 -0.209,-0.04 -0.313,-0.06c-7.342,-1.399 -13.702,-1.942 -17.558,-2.154l1.5,-11.156l-5.473,-6.391l-5.473,6.384l1.5,11.156c-3.857,0.212 -10.219,0.755 -17.563,2.155c-0.104,0.02 -0.209,0.04 -0.314,0.06c-0.104,0.021 -0.209,0.041 -0.313,0.061c-0.264,0.052 -0.529,0.105 -0.796,0.159c-0.974,0.197 -1.964,0.41 -2.966,0.639Zm25.925,-18.316l0.918,3.063l-0.343,12.053c-0.34,-0.005 -0.575,-0.007 -0.575,-0.007l-0,-0.007c-0,0 -0.235,0.002 -0.575,0.007l-0.343,-12.053l0.918,-3.056Zm-0,20.12l-0,0.007l0.427,0.014l-0.427,14.891l-0.428,-14.898l0.428,-0.014Zm-68.124,42.223l0.226,3.634l-0.226,0c-0.301,-1.088 -0.731,-1.871 -1.289,-2.349c-0.558,-0.478 -1.228,-0.718 -2.009,-0.718c-0.655,0 -1.248,0.18 -1.777,0.541c-0.529,0.36 -0.945,0.934 -1.248,1.722c-0.304,0.788 -0.455,1.769 -0.455,2.941c-0,0.967 0.143,1.805 0.429,2.515c0.287,0.709 0.717,1.253 1.293,1.632c0.575,0.378 1.231,0.567 1.969,0.567c0.641,0 1.206,-0.148 1.696,-0.445c0.49,-0.297 1.029,-0.887 1.617,-1.77l0.225,0.158c-0.495,0.951 -1.072,1.647 -1.733,2.089c-0.66,0.441 -1.443,0.662 -2.351,0.662c-1.636,-0 -2.903,-0.657 -3.801,-1.971c-0.669,-0.978 -1.004,-2.129 -1.004,-3.453c-0,-1.067 0.221,-2.047 0.662,-2.941c0.442,-0.893 1.05,-1.586 1.824,-2.077c0.774,-0.491 1.62,-0.737 2.537,-0.737c0.714,-0 1.418,0.189 2.112,0.567c0.203,0.116 0.349,0.174 0.436,0.174c0.132,-0 0.246,-0.05 0.343,-0.15c0.126,-0.142 0.216,-0.339 0.269,-0.591l0.255,-0Zm6.436,-0c1.281,-0 2.391,0.527 3.331,1.581c0.939,1.053 1.408,2.369 1.408,3.945c0,1.624 -0.473,2.973 -1.419,4.045c-0.947,1.072 -2.092,1.608 -3.437,1.608c-1.359,-0 -2.501,-0.523 -3.425,-1.569c-0.925,-1.046 -1.387,-2.399 -1.387,-4.06c-0,-1.698 0.534,-3.083 1.602,-4.155c0.927,-0.93 2.036,-1.395 3.327,-1.395Zm-0.139,0.575c-0.883,0 -1.592,0.355 -2.125,1.065c-0.665,0.883 -0.998,2.176 -0.998,3.878c0,1.745 0.345,3.088 1.034,4.029c0.529,0.715 1.228,1.072 2.097,1.072c0.927,0 1.692,-0.391 2.297,-1.174c0.604,-0.784 0.906,-2.019 0.906,-3.706c0,-1.829 -0.332,-3.193 -0.997,-4.091c-0.534,-0.715 -1.272,-1.073 -2.214,-1.073Zm15.537,10.36l-2.636,-0l-3.341,-4.999c-0.248,0.011 -0.449,0.016 -0.605,0.016c-0.063,0 -0.131,-0.001 -0.203,-0.004c-0.073,-0.002 -0.148,-0.006 -0.226,-0.012l-0,3.106c-0,0.673 0.068,1.091 0.204,1.254c0.184,0.231 0.461,0.347 0.83,0.347l0.386,-0l-0,0.292l-4.23,-0l-0,-0.292l0.371,-0c0.417,-0 0.716,-0.147 0.895,-0.442c0.102,-0.163 0.153,-0.549 0.153,-1.159l0,-6.906c0,-0.672 -0.068,-1.09 -0.204,-1.253c-0.189,-0.231 -0.47,-0.347 -0.844,-0.347l-0.371,-0l-0,-0.292l3.596,0c1.049,0 1.822,0.083 2.319,0.249c0.498,0.165 0.92,0.47 1.267,0.914c0.347,0.444 0.52,0.974 0.52,1.589c0,0.657 -0.197,1.227 -0.593,1.71c-0.396,0.484 -1.008,0.826 -1.838,1.025l2.038,3.067c0.466,0.704 0.867,1.172 1.202,1.403c0.334,0.232 0.771,0.379 1.31,0.442l0,0.292Zm-7.011,-5.495c0.092,-0 0.172,0.001 0.24,0.004c0.068,0.002 0.124,0.004 0.168,0.004c0.941,-0 1.651,-0.221 2.129,-0.663c0.478,-0.441 0.717,-1.004 0.717,-1.687c0,-0.667 -0.193,-1.21 -0.579,-1.628c-0.385,-0.418 -0.896,-0.627 -1.532,-0.627c-0.282,0 -0.663,0.05 -1.143,0.15l-0,4.447Zm15.522,-5.196l0.109,2.507l-0.277,0c-0.053,-0.441 -0.126,-0.757 -0.218,-0.946c-0.15,-0.305 -0.351,-0.529 -0.601,-0.674c-0.25,-0.144 -0.578,-0.217 -0.986,-0.217l-1.391,0l0,8.168c0,0.657 0.066,1.067 0.197,1.23c0.184,0.221 0.468,0.331 0.852,0.331l0.342,-0l-0,0.292l-4.186,-0l-0,-0.292l0.349,-0c0.417,-0 0.714,-0.137 0.888,-0.41c0.107,-0.168 0.16,-0.552 0.16,-1.151l0,-8.168l-1.186,0c-0.461,0 -0.789,0.037 -0.983,0.111c-0.253,0.1 -0.468,0.291 -0.648,0.575c-0.18,0.284 -0.286,0.668 -0.32,1.151l-0.277,0l0.116,-2.507l8.06,0Zm3.604,0.584l-0,4.225l2.169,0c0.563,0 0.94,-0.092 1.129,-0.276c0.252,-0.241 0.393,-0.667 0.422,-1.277l0.269,0l0,3.721l-0.269,0c-0.068,-0.52 -0.136,-0.854 -0.204,-1.001c-0.087,-0.184 -0.23,-0.328 -0.429,-0.433c-0.199,-0.106 -0.505,-0.158 -0.918,-0.158l-2.169,-0l-0,3.524c-0,0.473 0.019,0.761 0.058,0.863c0.039,0.103 0.107,0.184 0.204,0.245c0.097,0.06 0.281,0.09 0.553,0.09l1.675,0c0.558,0 0.963,-0.042 1.216,-0.126c0.252,-0.084 0.495,-0.25 0.728,-0.497c0.3,-0.325 0.609,-0.817 0.924,-1.474l0.291,0l-0.851,2.681l-7.609,-0l0,-0.292l0.35,-0c0.233,-0 0.454,-0.061 0.662,-0.181c0.156,-0.085 0.261,-0.211 0.317,-0.379c0.056,-0.168 0.084,-0.512 0.084,-1.033l-0,-6.945c-0,-0.678 -0.063,-1.096 -0.189,-1.254c-0.175,-0.21 -0.466,-0.315 -0.874,-0.315l-0.35,-0l0,-0.292l7.609,0l0.109,2.342l-0.284,-0c-0.102,-0.563 -0.215,-0.949 -0.339,-1.159c-0.123,-0.21 -0.307,-0.371 -0.549,-0.481c-0.195,-0.079 -0.537,-0.118 -1.027,-0.118l-2.708,-0Zm9.53,-0.584l2.679,0l6.036,8.018l-0,-6.165c-0,-0.657 -0.068,-1.067 -0.204,-1.23c-0.18,-0.221 -0.464,-0.331 -0.852,-0.331l-0.342,-0l-0,-0.292l3.436,0l0,0.292l-0.349,-0c-0.418,-0 -0.714,0.137 -0.888,0.41c-0.107,0.168 -0.161,0.552 -0.161,1.151l0,9.011l-0.262,0l-6.509,-8.609l0,6.583c0,0.657 0.066,1.067 0.197,1.23c0.184,0.221 0.468,0.331 0.852,0.331l0.349,-0l0,0.292l-3.436,-0l-0,-0.292l0.342,-0c0.422,-0 0.721,-0.137 0.896,-0.41c0.106,-0.168 0.16,-0.552 0.16,-1.151l-0,-7.434c-0.287,-0.363 -0.504,-0.602 -0.652,-0.718c-0.148,-0.116 -0.365,-0.223 -0.651,-0.323c-0.141,-0.047 -0.355,-0.071 -0.641,-0.071l-0,-0.292Zm17.793,7.111l-3.822,0l-0.67,1.687c-0.165,0.416 -0.247,0.726 -0.247,0.931c-0,0.163 0.071,0.306 0.215,0.429c0.143,0.124 0.452,0.204 0.928,0.241l-0,0.292l-3.109,-0l0,-0.292c0.413,-0.079 0.68,-0.181 0.801,-0.308c0.247,-0.252 0.522,-0.764 0.823,-1.537l3.472,-8.798l0.255,-0l3.437,8.893c0.276,0.715 0.527,1.178 0.753,1.391c0.226,0.213 0.54,0.333 0.943,0.359l-0,0.292l-3.895,-0l-0,-0.292c0.393,-0.021 0.659,-0.092 0.797,-0.213c0.138,-0.121 0.208,-0.268 0.208,-0.441c-0,-0.232 -0.097,-0.597 -0.292,-1.096l-0.597,-1.538Zm-0.203,-0.583l-1.675,-4.32l-1.718,4.32l3.393,-0Zm13.134,-6.772l0.225,3.634l-0.225,0c-0.301,-1.088 -0.731,-1.871 -1.289,-2.349c-0.558,-0.478 -1.228,-0.718 -2.01,-0.718c-0.655,0 -1.247,0.18 -1.776,0.541c-0.529,0.36 -0.945,0.934 -1.249,1.722c-0.303,0.788 -0.455,1.769 -0.455,2.941c0,0.967 0.144,1.805 0.43,2.515c0.286,0.709 0.717,1.253 1.292,1.632c0.575,0.378 1.232,0.567 1.97,0.567c0.64,0 1.206,-0.148 1.696,-0.445c0.49,-0.297 1.029,-0.887 1.616,-1.77l0.226,0.158c-0.495,0.951 -1.073,1.647 -1.733,2.089c-0.66,0.441 -1.444,0.662 -2.351,0.662c-1.636,-0 -2.903,-0.657 -3.801,-1.971c-0.67,-0.978 -1.005,-2.129 -1.005,-3.453c0,-1.067 0.221,-2.047 0.663,-2.941c0.442,-0.893 1.05,-1.586 1.824,-2.077c0.774,-0.491 1.62,-0.737 2.537,-0.737c0.713,-0 1.417,0.189 2.111,0.567c0.204,0.116 0.35,0.174 0.437,0.174c0.131,-0 0.245,-0.05 0.342,-0.15c0.127,-0.142 0.216,-0.339 0.27,-0.591l0.255,-0Zm5.584,10.643l-0,0.292l-4.23,-0l-0,-0.292l0.349,-0c0.408,-0 0.704,-0.129 0.888,-0.386c0.117,-0.169 0.175,-0.573 0.175,-1.215l0,-6.906c0,-0.541 -0.031,-0.898 -0.095,-1.072c-0.048,-0.131 -0.148,-0.244 -0.298,-0.339c-0.214,-0.126 -0.437,-0.189 -0.67,-0.189l-0.349,-0l-0,-0.292l4.23,0l-0,0.292l-0.357,-0c-0.403,-0 -0.697,0.129 -0.881,0.386c-0.121,0.168 -0.182,0.573 -0.182,1.214l-0,6.906c-0,0.542 0.032,0.899 0.095,1.073c0.048,0.131 0.15,0.244 0.305,0.339c0.209,0.126 0.43,0.189 0.663,0.189l0.357,-0Zm5.831,-10.643c1.282,-0 2.392,0.527 3.331,1.581c0.939,1.053 1.409,2.369 1.409,3.945c-0,1.624 -0.473,2.973 -1.42,4.045c-0.946,1.072 -2.092,1.608 -3.436,1.608c-1.359,-0 -2.501,-0.523 -3.426,-1.569c-0.924,-1.046 -1.387,-2.399 -1.387,-4.06c0,-1.698 0.534,-3.083 1.602,-4.155c0.927,-0.93 2.036,-1.395 3.327,-1.395Zm-0.138,0.575c-0.883,0 -1.592,0.355 -2.126,1.065c-0.665,0.883 -0.997,2.176 -0.997,3.878c-0,1.745 0.344,3.088 1.034,4.029c0.529,0.715 1.227,1.072 2.096,1.072c0.927,0 1.693,-0.391 2.297,-1.174c0.605,-0.784 0.907,-2.019 0.907,-3.706c-0,-1.829 -0.333,-3.193 -0.998,-4.091c-0.534,-0.715 -1.271,-1.073 -2.213,-1.073Zm5.264,-0.331l2.679,0l6.036,8.018l-0,-6.165c-0,-0.657 -0.068,-1.067 -0.204,-1.23c-0.18,-0.221 -0.464,-0.331 -0.852,-0.331l-0.342,-0l-0,-0.292l3.436,0l0,0.292l-0.349,-0c-0.418,-0 -0.714,0.137 -0.889,0.41c-0.106,0.168 -0.16,0.552 -0.16,1.151l0,9.011l-0.262,0l-6.509,-8.609l0,6.583c0,0.657 0.066,1.067 0.197,1.23c0.184,0.221 0.468,0.331 0.852,0.331l0.349,-0l0,0.292l-3.436,-0l-0,-0.292l0.342,-0c0.422,-0 0.721,-0.137 0.896,-0.41c0.106,-0.168 0.16,-0.552 0.16,-1.151l-0,-7.434c-0.287,-0.363 -0.504,-0.602 -0.652,-0.718c-0.148,-0.116 -0.365,-0.223 -0.652,-0.323c-0.14,-0.047 -0.354,-0.071 -0.64,-0.071l-0,-0.292Zm17.793,7.111l-3.822,0l-0.67,1.687c-0.165,0.416 -0.247,0.726 -0.247,0.931c-0,0.163 0.071,0.306 0.214,0.429c0.144,0.124 0.453,0.204 0.929,0.241l-0,0.292l-3.109,-0l-0,-0.292c0.413,-0.079 0.68,-0.181 0.801,-0.308c0.247,-0.252 0.522,-0.764 0.823,-1.537l3.472,-8.798l0.255,-0l3.437,8.893c0.276,0.715 0.527,1.178 0.753,1.391c0.226,0.213 0.54,0.333 0.943,0.359l-0,0.292l-3.895,-0l-0,-0.292c0.393,-0.021 0.659,-0.092 0.797,-0.213c0.138,-0.121 0.208,-0.268 0.208,-0.441c-0,-0.232 -0.098,-0.597 -0.292,-1.096l-0.597,-1.538Zm-0.204,-0.583l-1.674,-4.32l-1.718,4.32l3.392,-0Zm12.705,1.206l0.24,0.055l-0.844,2.902l-7.645,-0l0,-0.292l0.371,-0c0.418,-0 0.716,-0.147 0.896,-0.442c0.102,-0.168 0.153,-0.557 0.153,-1.166l-0,-6.899c-0,-0.667 -0.068,-1.085 -0.204,-1.253c-0.189,-0.231 -0.471,-0.347 -0.845,-0.347l-0.371,-0l0,-0.292l4.47,0l0,0.292c-0.524,-0.005 -0.892,0.047 -1.103,0.158c-0.211,0.11 -0.355,0.249 -0.433,0.417c-0.078,0.169 -0.116,0.571 -0.116,1.207l-0,6.717c-0,0.436 0.038,0.735 0.116,0.898c0.058,0.111 0.148,0.192 0.27,0.245c0.121,0.052 0.499,0.079 1.135,0.079l0.721,-0c0.757,-0 1.289,-0.061 1.594,-0.182c0.306,-0.121 0.585,-0.335 0.838,-0.642c0.252,-0.308 0.505,-0.793 0.757,-1.455Zm4.55,2.957l0,-0.292l0.372,-0c0.417,-0 0.713,-0.145 0.888,-0.434c0.107,-0.173 0.16,-0.562 0.16,-1.167l-0,-6.906c-0,-0.667 -0.068,-1.085 -0.204,-1.253c-0.189,-0.231 -0.471,-0.347 -0.844,-0.347l-0.372,-0l0,-0.292l4.019,0c1.476,0 2.598,0.182 3.367,0.544c0.77,0.363 1.388,0.967 1.857,1.813c0.468,0.847 0.702,1.824 0.702,2.933c0,1.488 -0.417,2.731 -1.252,3.729c-0.937,1.114 -2.364,1.672 -4.281,1.672l-4.412,-0Zm2.818,-0.773c0.616,0.147 1.133,0.221 1.551,0.221c1.126,-0 2.06,-0.429 2.802,-1.285c0.743,-0.857 1.114,-2.019 1.114,-3.485c0,-1.477 -0.371,-2.641 -1.114,-3.492c-0.742,-0.852 -1.696,-1.278 -2.861,-1.278c-0.437,0 -0.934,0.077 -1.492,0.229l-0,9.09Zm10.819,-9.334l-0,4.225l2.169,0c0.563,0 0.939,-0.092 1.129,-0.276c0.252,-0.241 0.393,-0.667 0.422,-1.277l0.269,0l0,3.721l-0.269,0c-0.068,-0.52 -0.136,-0.854 -0.204,-1.001c-0.087,-0.184 -0.231,-0.328 -0.43,-0.433c-0.199,-0.106 -0.504,-0.158 -0.917,-0.158l-2.169,-0l-0,3.524c-0,0.473 0.019,0.761 0.058,0.863c0.039,0.103 0.107,0.184 0.204,0.245c0.097,0.06 0.281,0.09 0.553,0.09l1.674,0c0.559,0 0.964,-0.042 1.216,-0.126c0.253,-0.084 0.495,-0.25 0.728,-0.497c0.301,-0.325 0.61,-0.817 0.925,-1.474l0.291,0l-0.852,2.681l-7.608,-0l0,-0.292l0.35,-0c0.233,-0 0.454,-0.061 0.662,-0.181c0.156,-0.085 0.261,-0.211 0.317,-0.379c0.056,-0.168 0.084,-0.512 0.084,-1.033l-0,-6.945c-0,-0.678 -0.063,-1.096 -0.19,-1.254c-0.174,-0.21 -0.466,-0.315 -0.873,-0.315l-0.35,-0l0,-0.292l7.608,0l0.11,2.342l-0.284,-0c-0.102,-0.563 -0.215,-0.949 -0.339,-1.159c-0.124,-0.21 -0.307,-0.371 -0.55,-0.481c-0.194,-0.079 -0.536,-0.118 -1.026,-0.118l-2.708,-0Zm-146.423,16.904l-0.16,-1.287c0.463,0 1.454,0.032 2.974,0.097c1.52,0.064 2.45,0.096 2.79,0.096c0.858,0 2.573,-0.064 5.145,-0.193l0.062,1.264c-1.292,0.076 -2.119,0.189 -2.481,0.338c-0.363,0.15 -0.603,0.46 -0.721,0.929c-0.117,0.47 -0.187,1.349 -0.211,2.637c-0.032,0.534 -0.052,1.256 -0.059,2.166c-0.007,0.91 -0.015,1.646 -0.024,2.208l-0,2.794c-0,0.639 0.014,2.073 0.044,4.302c0.03,2.23 0.045,3.799 0.045,4.708c-0,0.775 -0.034,1.526 -0.102,2.254c-1.084,1.387 -2.218,2.63 -3.402,3.729c-1.184,1.098 -2.404,1.647 -3.658,1.647c-0.356,0 -0.709,-0.107 -1.06,-0.322c-0.35,-0.215 -0.525,-0.449 -0.525,-0.7c-0,-0.312 0.348,-0.654 1.046,-1.027c0.697,-0.373 1.205,-0.559 1.525,-0.559c0.117,-0 0.48,0.097 1.09,0.29c1.181,0 1.771,-2.791 1.771,-8.374l0,-6.399c0,-2.676 -0.032,-4.768 -0.098,-6.277c-0.065,-1.509 -0.165,-2.495 -0.301,-2.959c-0.136,-0.464 -0.327,-0.777 -0.572,-0.941c-0.288,-0.193 -0.708,-0.32 -1.26,-0.38c-0.553,-0.061 -1.173,-0.074 -1.858,-0.041Zm11.868,0.09l0.106,-1.215c0.716,0.021 1.693,0.031 2.932,0.031c2.093,0 4.186,-0.043 6.278,-0.129l0.31,1.139c-1.295,0.146 -2.108,0.292 -2.438,0.438c-0.33,0.146 -0.568,0.342 -0.714,0.588c-0.326,0.545 -0.488,3.011 -0.488,7.399c-0,1.611 0.023,2.97 0.068,4.076c0.046,1.106 0.134,1.953 0.264,2.541c0.378,1.548 1.285,2.572 2.722,3.072c1.437,0.5 2.795,0.75 4.074,0.75c0.736,-0 1.606,-0.093 2.609,-0.277c1.003,-0.184 1.948,-0.514 2.836,-0.988c0.887,-0.475 1.479,-1.112 1.775,-1.91c0.644,-1.685 0.966,-5.03 0.966,-10.036c0,-1.477 -0.049,-2.583 -0.147,-3.32c-0.099,-0.737 -0.241,-1.244 -0.427,-1.522c-0.187,-0.277 -0.42,-0.446 -0.702,-0.507c-0.282,-0.061 -0.896,-0.092 -1.843,-0.092l-0.107,-1.17c0.794,-0.099 1.526,-0.148 2.194,-0.148c2.432,-0 4.294,0.015 5.585,0.046l-0,1.288c-1.022,0.04 -1.642,0.106 -1.861,0.199c-0.218,0.093 -0.355,0.282 -0.411,0.566c-0.056,0.284 -0.096,0.949 -0.118,1.995c-0.036,2.034 -0.091,3.845 -0.163,5.432c-0.073,1.588 -0.163,2.888 -0.27,3.901c-0.107,1.013 -0.262,1.926 -0.463,2.74c-0.202,0.813 -0.486,1.535 -0.851,2.165c-0.523,0.868 -1.396,1.569 -2.617,2.101c-1.222,0.532 -2.434,0.877 -3.639,1.036c-1.204,0.159 -2.309,0.238 -3.314,0.238c-1.674,-0 -3.221,-0.227 -4.64,-0.68c-1.42,-0.454 -2.586,-1.213 -3.5,-2.278c-0.913,-1.065 -1.37,-2.429 -1.37,-4.092c-0,-0.387 0.015,-1.446 0.044,-3.175c0.03,-1.73 0.045,-3.019 0.045,-3.868c-0,-2.937 -0.157,-4.882 -0.471,-5.834c-0.049,-0.144 -0.132,-0.234 -0.25,-0.269c-0.117,-0.036 -0.786,-0.113 -2.004,-0.231Zm29.302,20.169l-1.54,-0.049c0.025,-1.667 -0.304,-3.637 -0.986,-5.91c0.495,-0.145 0.914,-0.226 1.258,-0.243c0.343,0.938 0.594,1.583 0.752,1.936c0.158,0.353 0.351,0.65 0.578,0.892c0.228,0.243 0.54,0.458 0.938,0.646c0.769,0.361 1.641,0.681 2.616,0.959c0.975,0.279 2.032,0.418 3.172,0.418c0.949,-0 1.884,-0.203 2.805,-0.61c0.922,-0.407 1.383,-1.314 1.383,-2.72c-0,-0.725 -0.138,-1.344 -0.413,-1.859c-0.276,-0.516 -0.64,-0.934 -1.092,-1.255c-0.452,-0.321 -0.989,-0.612 -1.61,-0.873c-0.622,-0.261 -1.33,-0.552 -2.125,-0.874c-1.638,-0.484 -2.931,-0.977 -3.879,-1.478c-0.949,-0.502 -1.71,-1.131 -2.284,-1.888c-0.574,-0.757 -0.861,-1.679 -0.861,-2.765c-0,-1.712 0.703,-3.14 2.11,-4.285c1.406,-1.145 3.395,-1.717 5.966,-1.717c1.275,-0 2.538,0.121 3.79,0.365c0.45,0.079 0.728,0.119 0.835,0.119c0.272,-0 0.556,-0.089 0.852,-0.267l0.266,-0.121c0.202,0 0.49,0.06 0.863,0.178c-0.039,0.421 -0.075,0.758 -0.107,1.013c-0.032,0.254 -0.062,0.517 -0.09,0.79c-0.028,0.272 -0.048,0.492 -0.061,0.659c-0.013,0.167 -0.023,0.266 -0.03,0.297c0.155,1.292 0.215,2.099 0.182,2.423l-1.279,0.053c-0.108,-1.219 -0.488,-2.118 -1.14,-2.699c-0.651,-0.58 -1.393,-0.977 -2.224,-1.189c-0.832,-0.212 -1.63,-0.318 -2.395,-0.318c-1.829,-0 -3.035,0.423 -3.618,1.271c-0.583,0.848 -0.874,1.657 -0.874,2.429c-0,0.805 0.219,1.471 0.658,1.998c0.438,0.527 0.993,0.945 1.664,1.255c0.672,0.309 1.647,0.687 2.925,1.134c1.487,0.526 2.689,1.014 3.604,1.464c0.915,0.45 1.739,1.11 2.473,1.981c0.734,0.87 1.101,1.945 1.101,3.224c-0,1.089 -0.32,2.075 -0.959,2.96c-0.639,0.884 -1.586,1.58 -2.841,2.088c-1.254,0.507 -2.782,0.761 -4.581,0.761c-1.729,0 -3.501,-0.22 -5.317,-0.66c-0.322,-0.065 -0.498,-0.097 -0.528,-0.097c-0.043,-0 -0.029,0.188 0.043,0.564Zm16.245,-17.391l-1.25,-0.226c0.581,-1.577 1.154,-3.042 1.718,-4.396c0.582,0.284 0.926,0.452 1.03,0.502c0.104,0.051 0.312,0.095 0.624,0.132c0.734,0.082 2.458,0.123 5.171,0.123l9.073,-0c0.414,-0 1.189,-0.01 2.324,-0.031c1.136,-0.02 1.795,-0.032 1.979,-0.034c0.45,0 0.73,-0.019 0.84,-0.057c0.11,-0.039 0.36,-0.175 0.751,-0.41c0.276,0.222 0.549,0.426 0.819,0.612c-0.433,1.175 -0.782,2.414 -1.045,3.716l-1.516,0.134c0.062,-0.619 0.109,-1.167 0.143,-1.642c-0.2,-0.149 -0.648,-0.297 -1.345,-0.444c-0.698,-0.146 -1.842,-0.22 -3.434,-0.22c-1.187,0 -1.947,0.007 -2.279,0.021c-0.333,0.014 -0.51,0.029 -0.532,0.045c-0.022,0.016 -0.04,0.101 -0.056,0.256l-0.102,2.033c-0,0.332 -0.038,1.311 -0.113,2.94c-0.008,0.211 -0.018,1.222 -0.032,3.031c-0.013,1.809 -0.024,3.236 -0.034,4.282c0,1.889 0.017,3.133 0.05,3.731c0.033,0.598 0.118,1.038 0.255,1.319c0.137,0.282 0.342,0.466 0.616,0.553c0.273,0.086 0.818,0.177 1.634,0.272c0.747,0.061 1.12,0.237 1.12,0.529c0,0.262 -0.054,0.492 -0.162,0.69c-0.329,0.039 -0.664,0.058 -1.006,0.058c-0.725,-0.043 -1.375,-0.076 -1.949,-0.098c-0.785,-0.063 -1.41,-0.095 -1.875,-0.095c-1.121,0 -2.351,0.093 -3.689,0.28c-0.831,0.125 -1.293,0.188 -1.385,0.188c-0.305,-0 -0.526,-0.067 -0.663,-0.2c-0.138,-0.133 -0.26,-0.421 -0.367,-0.865c0.357,-0.12 0.807,-0.239 1.35,-0.358c0.86,-0.177 1.442,-0.323 1.744,-0.439c0.303,-0.116 0.487,-0.245 0.554,-0.388c0.067,-0.143 0.1,-0.416 0.1,-0.819c0,-0.551 0.182,-1.164 0.545,-1.839c0.268,-0.143 0.28,-0.832 0.036,-2.067c-0.244,-1.235 -0.36,-2.134 -0.348,-2.697c0.011,-0.562 0.017,-1.236 0.017,-2.02c0,-2.293 -0.009,-3.929 -0.027,-4.909c-0.017,-0.979 -0.056,-1.736 -0.114,-2.268c-0.059,-0.533 -0.12,-0.875 -0.184,-1.026c-0.854,-0.071 -1.884,-0.107 -3.091,-0.107c-1.262,0 -2.235,0.036 -2.919,0.109c-0.684,0.072 -1.194,0.182 -1.529,0.33c-0.336,0.149 -0.572,0.314 -0.709,0.497c-0.137,0.182 -0.383,0.606 -0.738,1.272Zm24.127,-2.873l0,-1.346c1.634,0.067 2.627,0.112 2.98,0.134c1.091,0.039 1.894,0.059 2.407,0.059c0.22,-0 0.857,-0.021 1.911,-0.062c1.055,-0.041 2.208,-0.085 3.459,-0.131l-0,1.414c-1.271,0 -2.064,0.042 -2.379,0.126c-0.315,0.084 -0.548,0.244 -0.697,0.479c-0.352,0.605 -0.528,3.13 -0.528,7.576c0,3.095 0.003,5.082 0.009,5.963c0.005,0.88 0.024,1.727 0.056,2.54c0.024,0.717 0.079,1.201 0.165,1.452c0.087,0.25 0.328,0.44 0.725,0.569c0.397,0.13 1.231,0.201 2.505,0.215l-0.11,1.276c-0.422,-0 -0.88,-0.008 -1.374,-0.024c-0.495,-0.016 -1.008,-0.03 -1.539,-0.041c-0.532,-0.011 -0.941,-0.019 -1.226,-0.024c-0.285,-0.005 -0.61,-0.008 -0.977,-0.008c-0.523,0 -0.961,0.003 -1.312,0.008c-0.351,0.005 -0.819,0.013 -1.403,0.024c-0.584,0.011 -1.113,0.025 -1.587,0.041c-0.475,0.016 -0.89,0.024 -1.246,0.024l-0.053,-1.23c1.475,-0.074 2.404,-0.197 2.787,-0.369c0.383,-0.172 0.655,-0.475 0.816,-0.91c0.205,-0.497 0.34,-1.541 0.405,-3.135c0.065,-1.593 0.097,-3.287 0.097,-5.081c0,-1.612 -0.059,-3.939 -0.178,-6.979c-0.035,-0.807 -0.114,-1.358 -0.237,-1.654c-0.123,-0.296 -0.407,-0.518 -0.853,-0.666c-0.446,-0.147 -1.32,-0.227 -2.623,-0.24Zm33.413,16.735c-0.06,0.138 -0.333,0.985 -0.82,2.542c-1.423,0.379 -2.675,0.665 -3.756,0.859c-1.081,0.193 -2.253,0.289 -3.514,0.289c-1.543,0 -3.078,-0.244 -4.606,-0.731c-1.528,-0.488 -2.903,-1.212 -4.126,-2.172c-1.223,-0.96 -2.19,-2.128 -2.902,-3.503c-0.712,-1.374 -1.068,-2.943 -1.068,-4.705c-0,-2.411 0.662,-4.447 1.986,-6.109c1.325,-1.661 3.015,-2.886 5.072,-3.675c2.057,-0.788 4.171,-1.183 6.343,-1.183c1.704,0 3.321,0.264 4.853,0.79c0.728,0.205 1.239,0.307 1.532,0.307c0.14,-0.027 0.252,-0.046 0.337,-0.058c0.085,-0.012 0.198,-0.024 0.339,-0.036c0.214,-0.002 0.433,0.123 0.656,0.374l-0.305,1.152c-0.232,0.744 -0.46,1.829 -0.686,3.255c-0.618,-0.052 -0.986,-0.163 -1.105,-0.333c-0.119,-0.169 -0.178,-0.394 -0.178,-0.674c-0.022,-0.619 -0.093,-1.011 -0.214,-1.177c-0.309,-0.452 -1.076,-0.914 -2.302,-1.384c-1.227,-0.469 -2.46,-0.704 -3.698,-0.704c-1.639,-0 -3.122,0.366 -4.449,1.098c-1.327,0.733 -2.381,1.815 -3.16,3.247c-0.78,1.432 -1.169,3.124 -1.169,5.077c-0,1.799 0.343,3.339 1.029,4.62c0.687,1.281 1.545,2.294 2.575,3.039c1.03,0.745 2.073,1.281 3.129,1.61c1.056,0.328 1.971,0.492 2.744,0.492c1.223,0 2.23,-0.178 3.023,-0.534c0.792,-0.356 1.417,-0.785 1.875,-1.288c0.457,-0.503 0.911,-1.12 1.361,-1.853c0.247,-0.43 0.522,-0.645 0.824,-0.645c0.495,0 0.743,0.207 0.743,0.62c-0,0.163 -0.121,0.627 -0.363,1.393Zm1.845,-16.735l0,-1.346c1.634,0.067 2.627,0.112 2.98,0.134c1.091,0.039 1.893,0.059 2.407,0.059c0.219,-0 0.856,-0.021 1.911,-0.062c1.055,-0.041 2.207,-0.085 3.459,-0.131l-0,1.414c-1.271,0 -2.064,0.042 -2.38,0.126c-0.315,0.084 -0.547,0.244 -0.696,0.479c-0.352,0.605 -0.528,3.13 -0.528,7.576c-0,3.095 0.003,5.082 0.008,5.963c0.006,0.88 0.025,1.727 0.057,2.54c0.024,0.717 0.079,1.201 0.165,1.452c0.087,0.25 0.328,0.44 0.725,0.569c0.396,0.13 1.231,0.201 2.505,0.215l-0.11,1.276c-0.422,-0 -0.88,-0.008 -1.375,-0.024c-0.494,-0.016 -1.007,-0.03 -1.539,-0.041c-0.531,-0.011 -0.94,-0.019 -1.225,-0.024c-0.285,-0.005 -0.611,-0.008 -0.977,-0.008c-0.524,0 -0.961,0.003 -1.312,0.008c-0.351,0.005 -0.819,0.013 -1.403,0.024c-0.584,0.011 -1.113,0.025 -1.588,0.041c-0.474,0.016 -0.889,0.024 -1.245,0.024l-0.054,-1.23c1.475,-0.074 2.405,-0.197 2.788,-0.369c0.383,-0.172 0.655,-0.475 0.816,-0.91c0.205,-0.497 0.34,-1.541 0.405,-3.135c0.064,-1.593 0.097,-3.287 0.097,-5.081c-0,-1.612 -0.06,-3.939 -0.178,-6.979c-0.036,-0.807 -0.114,-1.358 -0.237,-1.654c-0.123,-0.296 -0.407,-0.518 -0.853,-0.666c-0.446,-0.147 -1.321,-0.227 -2.623,-0.24Zm26.534,20.264l-0,-1.132c0.737,-0.115 1.223,-0.223 1.458,-0.323c0.235,-0.1 0.352,-0.251 0.352,-0.454c0,-0.279 -0.103,-0.701 -0.308,-1.267c-0.206,-0.566 -0.372,-0.993 -0.498,-1.281l-1.234,-2.973c-0.526,-0.065 -1.552,-0.097 -3.079,-0.097l-1.436,0c-1.373,-0.043 -2.517,0.009 -3.432,0.157l-1.221,2.635c-0.585,1.315 -0.878,2.112 -0.878,2.391c-0,0.275 0.149,0.512 0.448,0.712c0.298,0.2 1.105,0.386 2.42,0.557l0,1.139c-1.698,-0.15 -3.022,-0.225 -3.97,-0.225c-0.982,-0 -2.204,0.042 -3.666,0.128l0,-1.047c0.838,-0.188 1.426,-0.434 1.764,-0.739c0.255,-0.2 0.617,-0.719 1.085,-1.556c0.468,-0.837 0.939,-1.74 1.411,-2.71c0.473,-0.969 0.823,-1.75 1.05,-2.342l2.83,-5.916c0.359,-0.743 0.729,-1.552 1.109,-2.428c0.379,-0.876 0.739,-1.728 1.078,-2.555c0.34,-0.827 0.579,-1.463 0.719,-1.906c-0,-0.195 0.104,-0.386 0.313,-0.574l1.094,-0.046c0.418,1.34 0.857,2.654 1.315,3.941l3.735,8.781c0.925,2.167 1.645,3.812 2.161,4.935c0.516,1.123 0.946,1.898 1.288,2.325c0.25,0.318 0.915,0.525 1.996,0.622l0,1.183c-1.279,-0.086 -2.357,-0.129 -3.234,-0.129c-0.705,-0 -1.355,0.016 -1.951,0.047c-0.595,0.032 -1.081,0.061 -1.456,0.089c-0.376,0.028 -0.797,0.047 -1.263,0.058Zm-7.422,-9.149c0.654,0.073 1.638,0.11 2.949,0.11l1.663,-0.032c0.861,0 1.528,-0.011 2.003,-0.032c-0.404,-0.822 -0.666,-1.334 -0.785,-1.538l-1.287,-2.959c-0.161,-0.444 -0.434,-1.055 -0.82,-1.833c-0.283,-0.571 -0.442,-0.986 -0.477,-1.243c-0.027,0.262 -0.102,0.536 -0.227,0.822c-0.159,0.367 -0.339,0.766 -0.538,1.199l-1.965,4.446c-0.25,0.667 -0.422,1.02 -0.516,1.06Z" style="fill:#777;"/></g></svg>