<?xml version="1.0" encoding="UTF-8" standalone="no"?><!DOCTYPE svg PUBLIC "-//W3C//DTD SVG 1.1//EN" "http://www.w3.org/Graphics/SVG/1.1/DTD/svg11.dtd"><svg width="100%" height="100%" viewBox="0 0 172 120" version="1.1" xmlns="http://www.w3.org/2000/svg" xmlns:xlink="http://www.w3.org/1999/xlink" xml:space="preserve" xmlns:serif="http://www.serif.com/" style="fill-rule:evenodd;clip-rule:evenodd;stroke-linejoin:round;stroke-miterlimit:2;"><rect id="Mesa-de-trabajo1" serif:id="Mesa de trabajo1" x="0" y="0" width="171.598" height="120" style="fill:none;"/><path id="path907" d="M93.687,0.015c6.488,0.172 12.827,1.656 18.471,4.323l-6.931,15.236l-9.101,-2.464c-0.819,-0.15 -1.649,-0.241 -2.483,-0.272c-9.335,-0.271 -17.15,6.787 -17.508,15.811c-0.357,9.024 6.876,16.64 16.204,17.061c1.078,0.043 2.158,-0.013 3.224,-0.168l0,-16.272l14.572,0l2.99,0.111l-0,28.37c-6.771,3.403 -14.602,5.058 -22.503,4.756c-21.928,-0.853 -38.93,-16.257 -38.088,-34.511c0.842,-18.254 19.211,-32.529 41.153,-31.981Zm-92.23,-0.015l46.611,0l0,16.831l-24.617,-0l0,9.606l22.196,0l-0,13.543l-22.196,0l0,26.563l-21.994,-0l0,-66.543Zm117.371,0l50.738,0l0,16.831l-28.607,-0l0,9.606l26.654,0l-0,13.543l-26.654,0l0,9.748l28.607,-0l0,16.815l-50.738,-0l0,-66.543Zm-118.048,89.852l0,-9.081l5.131,-0l-0,1.536l-3.62,-0l0,2.149l3.125,0l-0,1.537l-3.125,-0l0,3.859l-1.511,-0Zm6.336,-0l-0,-9.081l1.511,-0l-0,9.081l-1.511,-0Zm2.562,-2.955l1.471,-0.174c0.088,0.599 0.267,1.039 0.536,1.32c0.272,0.281 0.638,0.421 1.097,0.421c0.487,0 0.853,-0.124 1.098,-0.372c0.249,-0.251 0.373,-0.545 0.373,-0.879c-0,-0.215 -0.053,-0.397 -0.158,-0.545c-0.103,-0.153 -0.283,-0.285 -0.542,-0.397c-0.177,-0.074 -0.58,-0.206 -1.21,-0.396c-0.81,-0.244 -1.378,-0.543 -1.705,-0.898c-0.459,-0.5 -0.689,-1.109 -0.689,-1.828c0,-0.462 0.107,-0.894 0.322,-1.294c0.217,-0.405 0.529,-0.713 0.934,-0.923c0.408,-0.211 0.9,-0.316 1.475,-0.316c0.94,-0 1.646,0.25 2.119,0.749c0.477,0.5 0.727,1.167 0.751,2.001l-1.512,0.081c-0.064,-0.467 -0.204,-0.802 -0.418,-1.004c-0.211,-0.206 -0.53,-0.31 -0.955,-0.31c-0.439,0 -0.783,0.11 -1.031,0.329c-0.16,0.14 -0.24,0.328 -0.24,0.563c-0,0.215 0.075,0.399 0.224,0.552c0.191,0.194 0.654,0.396 1.389,0.607c0.735,0.21 1.278,0.429 1.629,0.656c0.354,0.223 0.629,0.531 0.827,0.923c0.201,0.389 0.301,0.87 0.301,1.444c-0,0.52 -0.119,1.007 -0.357,1.462c-0.239,0.454 -0.576,0.792 -1.011,1.015c-0.436,0.219 -0.979,0.329 -1.629,0.329c-0.946,-0 -1.673,-0.265 -2.18,-0.793c-0.507,-0.533 -0.81,-1.307 -0.909,-2.323Zm12.156,-0.384l1.465,0.564c-0.224,0.991 -0.599,1.728 -1.123,2.211c-0.521,0.479 -1.183,0.719 -1.986,0.719c-0.994,-0 -1.81,-0.411 -2.45,-1.233c-0.64,-0.826 -0.96,-1.953 -0.96,-3.382c-0,-1.512 0.321,-2.685 0.965,-3.519c0.643,-0.838 1.489,-1.257 2.537,-1.257c0.916,-0 1.659,0.328 2.231,0.985c0.34,0.388 0.596,0.945 0.766,1.672l-1.496,0.434c-0.089,-0.471 -0.274,-0.843 -0.556,-1.115c-0.28,-0.273 -0.62,-0.409 -1.022,-0.409c-0.554,-0 -1.005,0.242 -1.352,0.725c-0.344,0.483 -0.516,1.265 -0.516,2.347c-0,1.148 0.17,1.966 0.51,2.453c0.341,0.488 0.783,0.731 1.328,0.731c0.401,0 0.747,-0.155 1.036,-0.464c0.29,-0.31 0.497,-0.797 0.623,-1.462Zm9.516,3.339l-1.644,-0l-0.653,-2.063l-2.992,-0l-0.618,2.063l-1.603,-0l2.916,-9.081l1.597,-0l2.997,9.081Zm-2.782,-3.593l-1.031,-3.37l-1.011,3.37l2.042,-0Zm3.63,3.593l-0,-9.007l1.511,-0l-0,7.477l3.757,-0l0,1.53l-5.268,-0Zm6.305,-0l-0,-9.081l1.511,-0l-0,9.081l-1.511,-0Zm-0.174,-9.602l0.705,-1.852l1.608,0l-1.404,1.852l-0.909,0Zm9.869,9.602l-1.644,-0l-0.654,-2.063l-2.991,-0l-0.618,2.063l-1.603,-0l2.915,-9.081l1.598,-0l2.997,9.081Zm-2.783,-3.593l-1.031,-3.37l-1.011,3.37l2.042,-0Zm9.583,0.254l-0,-1.53l3.257,-0l-0,3.617c-0.317,0.372 -0.776,0.7 -1.379,0.985c-0.599,0.281 -1.206,0.422 -1.822,0.422c-0.783,-0 -1.465,-0.199 -2.047,-0.595c-0.582,-0.401 -1.02,-0.971 -1.312,-1.71c-0.293,-0.743 -0.439,-1.55 -0.439,-2.422c-0,-0.946 0.163,-1.786 0.49,-2.521c0.326,-0.735 0.805,-1.299 1.434,-1.691c0.48,-0.302 1.077,-0.452 1.792,-0.452c0.929,-0 1.654,0.237 2.175,0.712c0.524,0.471 0.861,1.123 1.011,1.958l-1.501,0.34c-0.106,-0.446 -0.305,-0.797 -0.597,-1.053c-0.29,-0.26 -0.652,-0.39 -1.088,-0.39c-0.66,-0 -1.186,0.254 -1.577,0.762c-0.388,0.508 -0.582,1.261 -0.582,2.261c-0,1.078 0.197,1.887 0.592,2.428c0.395,0.537 0.912,0.805 1.552,0.805c0.316,0 0.633,-0.074 0.949,-0.223c0.32,-0.152 0.594,-0.336 0.822,-0.551l0,-1.152l-1.73,-0Zm4.645,3.339l0,-9.081l5.55,-0l-0,1.536l-4.038,-0l-0,2.013l3.757,0l0,1.53l-3.757,0l-0,2.472l4.181,-0l-0,1.53l-5.693,-0Zm7,-0l-0,-9.081l1.47,-0l3.063,6.064l0,-6.064l1.404,-0l0,9.081l-1.516,-0l-3.017,-5.922l-0,5.922l-1.404,-0Zm7.54,-0l0,-9.081l5.55,-0l-0,1.536l-4.039,-0l0,2.013l3.758,0l-0,1.53l-3.758,0l0,2.472l4.182,-0l-0,1.53l-5.693,-0Zm6.989,-0l0,-9.081l3.181,-0c0.8,-0 1.38,0.082 1.741,0.247c0.364,0.161 0.655,0.451 0.873,0.868c0.218,0.417 0.326,0.894 0.326,1.431c0,0.681 -0.165,1.245 -0.495,1.691c-0.33,0.441 -0.823,0.72 -1.48,0.836c0.326,0.231 0.595,0.485 0.806,0.762c0.215,0.276 0.502,0.768 0.863,1.474l0.914,1.772l-1.807,-0l-1.093,-1.976c-0.388,-0.707 -0.653,-1.15 -0.796,-1.332c-0.143,-0.186 -0.295,-0.312 -0.455,-0.378c-0.16,-0.07 -0.413,-0.105 -0.76,-0.105l-0.307,-0l0,3.791l-1.511,-0Zm1.511,-5.241l1.118,0c0.725,0 1.178,-0.037 1.358,-0.111c0.181,-0.075 0.322,-0.203 0.424,-0.384c0.102,-0.182 0.153,-0.409 0.153,-0.682c0,-0.305 -0.068,-0.551 -0.204,-0.737c-0.133,-0.19 -0.321,-0.31 -0.567,-0.359c-0.122,-0.021 -0.49,-0.031 -1.102,-0.031l-1.18,-0l0,2.304Zm12.789,5.241l-1.644,-0l-0.653,-2.063l-2.992,-0l-0.618,2.063l-1.603,-0l2.915,-9.081l1.598,-0l2.997,9.081Zm-2.782,-3.593l-1.032,-3.37l-1.01,3.37l2.042,-0Zm3.63,3.593l-0,-9.007l1.511,-0l-0,7.477l3.757,-0l0,1.53l-5.268,-0Zm9.061,-9.081l2.762,-0c0.623,-0 1.098,0.057 1.425,0.173c0.439,0.157 0.815,0.436 1.128,0.836c0.313,0.401 0.551,0.892 0.715,1.475c0.163,0.578 0.245,1.292 0.245,2.143c-0,0.747 -0.077,1.392 -0.23,1.933c-0.187,0.66 -0.454,1.195 -0.802,1.604c-0.262,0.31 -0.616,0.551 -1.061,0.725c-0.334,0.128 -0.78,0.192 -1.338,0.192l-2.844,-0l0,-9.081Zm1.512,1.536l-0,6.015l1.128,-0c0.422,-0 0.726,-0.029 0.914,-0.087c0.245,-0.074 0.447,-0.2 0.607,-0.378c0.164,-0.178 0.296,-0.469 0.398,-0.873c0.102,-0.409 0.154,-0.965 0.154,-1.667c-0,-0.702 -0.052,-1.241 -0.154,-1.616c-0.102,-0.376 -0.245,-0.669 -0.429,-0.88c-0.183,-0.211 -0.416,-0.353 -0.699,-0.427c-0.211,-0.058 -0.624,-0.087 -1.24,-0.087l-0.679,-0Zm6.049,7.545l0,-9.081l5.55,-0l-0,1.536l-4.039,-0l0,2.013l3.758,0l-0,1.53l-3.758,0l0,2.472l4.182,-0l-0,1.53l-5.693,-0Zm7.025,-0l0,-9.007l1.511,-0l0,7.477l3.758,-0l-0,1.53l-5.269,-0Zm9.067,-0l-0,-9.081l5.549,-0l0,1.536l-4.038,-0l0,2.013l3.758,0l-0,1.53l-3.758,0l0,2.472l4.181,-0l0,1.53l-5.692,-0Zm6.601,-2.955l1.47,-0.174c0.089,0.599 0.268,1.039 0.536,1.32c0.273,0.281 0.639,0.421 1.098,0.421c0.487,0 0.853,-0.124 1.098,-0.372c0.248,-0.251 0.372,-0.545 0.372,-0.879c0,-0.215 -0.052,-0.397 -0.158,-0.545c-0.102,-0.153 -0.282,-0.285 -0.541,-0.397c-0.177,-0.074 -0.58,-0.206 -1.21,-0.396c-0.81,-0.244 -1.378,-0.543 -1.705,-0.898c-0.46,-0.5 -0.689,-1.109 -0.689,-1.828c-0,-0.462 0.107,-0.894 0.321,-1.294c0.218,-0.405 0.529,-0.713 0.935,-0.923c0.408,-0.211 0.9,-0.316 1.475,-0.316c0.939,-0 1.646,0.25 2.119,0.749c0.476,0.5 0.726,1.167 0.75,2.001l-1.511,0.081c-0.065,-0.467 -0.204,-0.802 -0.419,-1.004c-0.211,-0.206 -0.529,-0.31 -0.954,-0.31c-0.439,0 -0.783,0.11 -1.032,0.329c-0.16,0.14 -0.24,0.328 -0.24,0.563c0,0.215 0.075,0.399 0.225,0.552c0.191,0.194 0.654,0.396 1.389,0.607c0.735,0.21 1.278,0.429 1.628,0.656c0.354,0.223 0.63,0.531 0.827,0.923c0.201,0.389 0.301,0.87 0.301,1.444c0,0.52 -0.119,1.007 -0.357,1.462c-0.238,0.454 -0.575,0.792 -1.011,1.015c-0.435,0.219 -0.978,0.329 -1.628,0.329c-0.946,-0 -1.673,-0.265 -2.18,-0.793c-0.507,-0.533 -0.81,-1.307 -0.909,-2.323Zm9.052,2.955l-0,-7.545l-2.221,-0l-0,-1.536l5.947,-0l0,1.536l-2.215,-0l-0,7.545l-1.511,-0Zm10.68,-0l-1.644,-0l-0.654,-2.063l-2.991,-0l-0.618,2.063l-1.603,-0l2.915,-9.081l1.598,-0l2.997,9.081Zm-2.783,-3.593l-1.031,-3.37l-1.011,3.37l2.042,-0Zm3.584,-5.488l2.762,-0c0.623,-0 1.098,0.057 1.425,0.173c0.439,0.157 0.815,0.436 1.128,0.836c0.313,0.401 0.551,0.892 0.715,1.475c0.163,0.578 0.245,1.292 0.245,2.143c-0,0.747 -0.077,1.392 -0.23,1.933c-0.187,0.66 -0.454,1.195 -0.802,1.604c-0.262,0.31 -0.616,0.551 -1.061,0.725c-0.334,0.128 -0.78,0.192 -1.338,0.192l-2.844,-0l0,-9.081Zm1.511,1.536l0,6.015l1.129,-0c0.422,-0 0.726,-0.029 0.914,-0.087c0.245,-0.074 0.447,-0.2 0.607,-0.378c0.163,-0.178 0.296,-0.469 0.398,-0.873c0.102,-0.409 0.153,-0.965 0.153,-1.667c0,-0.702 -0.051,-1.241 -0.153,-1.616c-0.102,-0.376 -0.245,-0.669 -0.429,-0.88c-0.183,-0.211 -0.416,-0.353 -0.699,-0.427c-0.211,-0.058 -0.624,-0.087 -1.241,-0.087l-0.679,-0Zm5.744,3.06c-0,-0.925 0.114,-1.702 0.342,-2.329c0.17,-0.463 0.402,-0.878 0.694,-1.245c0.296,-0.368 0.62,-0.64 0.97,-0.818c0.467,-0.24 1.004,-0.359 1.613,-0.359c1.103,-0 1.985,0.415 2.645,1.245c0.664,0.83 0.996,1.984 0.996,3.463c-0,1.466 -0.329,2.614 -0.986,3.444c-0.657,0.826 -1.535,1.239 -2.634,1.239c-1.113,-0 -1.998,-0.411 -2.655,-1.233c-0.657,-0.826 -0.985,-1.962 -0.985,-3.407Zm1.557,-0.062c-0,1.028 0.196,1.809 0.587,2.341c0.391,0.529 0.888,0.793 1.491,0.793c0.602,0 1.096,-0.262 1.48,-0.786c0.388,-0.529 0.582,-1.32 0.582,-2.373c0,-1.041 -0.189,-1.817 -0.566,-2.329c-0.375,-0.512 -0.873,-0.768 -1.496,-0.768c-0.623,-0 -1.125,0.26 -1.506,0.78c-0.381,0.517 -0.572,1.297 -0.572,2.342Zm-164.554,12.088l142.828,0l0,1.484l-142.828,0l-0,-1.484Zm152.372,0.743c-0.099,1.755 -1.642,3.124 -3.429,3.042c-1.787,-0.082 -3.193,-1.586 -3.125,-3.342c0.069,-1.756 1.588,-3.15 3.377,-3.097c1.788,0.053 3.22,1.533 3.181,3.29l-0.004,0.107Zm9.177,0c-0.099,1.755 -1.642,3.124 -3.429,3.042c-1.787,-0.082 -3.193,-1.586 -3.125,-3.342c0.069,-1.756 1.588,-3.15 3.377,-3.097c1.788,0.053 3.22,1.533 3.181,3.29l-0.004,0.107Zm9.192,0c-0.098,1.755 -1.641,3.124 -3.428,3.042c-1.787,-0.082 -3.194,-1.586 -3.125,-3.342c0.069,-1.756 1.588,-3.15 3.376,-3.097c1.789,0.053 3.22,1.533 3.181,3.29l-0.004,0.107Zm-120.49,21.662l-0,-11.856l7.39,-0l-0,1.399l-6.038,-0l0,3.631l5.654,-0l0,1.391l-5.654,-0l0,4.036l6.275,-0l-0,1.399l-7.627,-0Zm16.802,-4.157l1.352,0.396c-0.283,1.289 -0.794,2.273 -1.533,2.952c-0.735,0.674 -1.634,1.011 -2.698,1.011c-1.102,-0 -1.999,-0.259 -2.692,-0.776c-0.688,-0.523 -1.213,-1.278 -1.575,-2.265c-0.358,-0.987 -0.537,-2.046 -0.537,-3.178c-0,-1.235 0.202,-2.311 0.606,-3.227c0.409,-0.922 0.988,-1.62 1.736,-2.095c0.753,-0.48 1.581,-0.72 2.482,-0.72c1.023,0 1.883,0.302 2.58,0.906c0.697,0.604 1.183,1.453 1.457,2.548l-1.331,0.364c-0.237,-0.863 -0.581,-1.491 -1.032,-1.885c-0.451,-0.393 -1.018,-0.59 -1.701,-0.59c-0.786,-0 -1.444,0.218 -1.973,0.655c-0.526,0.437 -0.895,1.024 -1.109,1.763c-0.214,0.733 -0.321,1.491 -0.321,2.273c0,1.008 0.126,1.889 0.377,2.644c0.255,0.75 0.65,1.31 1.185,1.682c0.534,0.372 1.113,0.558 1.736,0.558c0.758,0 1.399,-0.253 1.924,-0.76c0.525,-0.507 0.881,-1.259 1.067,-2.256Zm9.733,-7.699l1.352,-0l0,6.85c0,1.191 -0.116,2.137 -0.348,2.838c-0.233,0.701 -0.653,1.273 -1.262,1.715c-0.604,0.437 -1.399,0.655 -2.385,0.655c-0.957,-0 -1.74,-0.191 -2.349,-0.574c-0.609,-0.383 -1.044,-0.936 -1.304,-1.658c-0.26,-0.728 -0.39,-1.72 -0.39,-2.976l-0,-6.85l1.352,-0l0,6.842c0,1.029 0.082,1.79 0.244,2.28c0.168,0.485 0.451,0.86 0.851,1.124c0.404,0.265 0.897,0.397 1.478,0.397c0.995,-0 1.703,-0.262 2.126,-0.785c0.423,-0.523 0.635,-1.528 0.635,-3.016l-0,-6.842Zm2.489,11.856l3.925,-11.856l1.457,-0l4.183,11.856l-1.541,-0l-1.192,-3.591l-4.274,-0l-1.122,3.591l-1.436,-0Zm2.949,-4.869l3.465,0l-1.067,-3.283c-0.325,-0.998 -0.567,-1.817 -0.725,-2.459c-0.13,0.76 -0.314,1.515 -0.551,2.264l-1.122,3.478Zm7.711,4.869l-0,-11.856l3.521,-0c0.794,-0 1.401,0.056 1.819,0.169c0.586,0.157 1.086,0.44 1.499,0.849c0.539,0.529 0.941,1.206 1.206,2.03c0.27,0.82 0.405,1.758 0.405,2.815c-0,0.9 -0.091,1.698 -0.272,2.394c-0.181,0.695 -0.414,1.272 -0.697,1.731c-0.284,0.452 -0.595,0.811 -0.935,1.075c-0.334,0.259 -0.741,0.456 -1.22,0.591c-0.474,0.134 -1.02,0.202 -1.638,0.202l-3.688,-0Zm1.352,-1.399l2.183,-0c0.674,-0 1.201,-0.073 1.582,-0.219c0.386,-0.145 0.693,-0.35 0.92,-0.614c0.321,-0.372 0.57,-0.871 0.746,-1.497c0.182,-0.63 0.272,-1.393 0.272,-2.288c0,-1.24 -0.176,-2.192 -0.529,-2.855c-0.349,-0.669 -0.774,-1.116 -1.276,-1.343c-0.363,-0.161 -0.946,-0.242 -1.75,-0.242l-2.148,-0l0,9.058Zm8.555,-4.376c-0,-1.968 0.455,-3.507 1.366,-4.618c0.911,-1.116 2.087,-1.674 3.528,-1.674c0.944,0 1.794,0.262 2.552,0.785c0.758,0.523 1.334,1.253 1.729,2.191c0.4,0.933 0.6,1.993 0.6,3.179c-0,1.202 -0.21,2.278 -0.628,3.227c-0.418,0.949 -1.011,1.668 -1.778,2.159c-0.767,0.485 -1.594,0.728 -2.482,0.728c-0.962,-0 -1.822,-0.27 -2.579,-0.809c-0.758,-0.539 -1.332,-1.275 -1.722,-2.208c-0.391,-0.932 -0.586,-1.919 -0.586,-2.96Zm1.394,0.025c0,1.428 0.33,2.555 0.99,3.38c0.665,0.82 1.497,1.229 2.496,1.229c1.018,0 1.855,-0.415 2.51,-1.245c0.66,-0.83 0.99,-2.008 0.99,-3.534c0,-0.965 -0.142,-1.807 -0.425,-2.524c-0.279,-0.722 -0.69,-1.28 -1.234,-1.674c-0.539,-0.399 -1.146,-0.598 -1.82,-0.598c-0.957,-0 -1.782,0.383 -2.475,1.148c-0.688,0.76 -1.032,2.033 -1.032,3.818Zm10.137,5.75l0,-11.856l4.532,-0c0.911,-0 1.604,0.107 2.078,0.323c0.474,0.21 0.853,0.585 1.136,1.124c0.284,0.539 0.426,1.135 0.426,1.788c-0,0.841 -0.235,1.55 -0.705,2.127c-0.469,0.576 -1.194,0.943 -2.175,1.099c0.358,0.2 0.63,0.397 0.816,0.591c0.395,0.42 0.769,0.946 1.122,1.577l1.778,3.227l-1.701,-0l-1.353,-2.467c-0.395,-0.712 -0.72,-1.256 -0.976,-1.634c-0.255,-0.377 -0.485,-0.641 -0.69,-0.792c-0.2,-0.151 -0.404,-0.256 -0.613,-0.316c-0.154,-0.037 -0.405,-0.056 -0.753,-0.056l-1.569,-0l0,5.265l-1.353,-0Zm1.353,-6.624l2.907,0c0.618,0 1.102,-0.073 1.45,-0.218c0.349,-0.151 0.614,-0.388 0.795,-0.712c0.182,-0.329 0.272,-0.685 0.272,-1.067c0,-0.561 -0.176,-1.022 -0.53,-1.383c-0.348,-0.362 -0.901,-0.542 -1.659,-0.542l-3.235,-0l0,3.922Z" style="fill:#777;"/></svg>