<?xml version="1.0" encoding="UTF-8" standalone="no"?><!DOCTYPE svg PUBLIC "-//W3C//DTD SVG 1.1//EN" "http://www.w3.org/Graphics/SVG/1.1/DTD/svg11.dtd"><svg width="100%" height="100%" viewBox="0 0 187 120" version="1.1" xmlns="http://www.w3.org/2000/svg" xmlns:xlink="http://www.w3.org/1999/xlink" xml:space="preserve" xmlns:serif="http://www.serif.com/" style="fill-rule:evenodd;clip-rule:evenodd;stroke-linejoin:round;stroke-miterlimit:2;"><rect id="Mesa-de-trabajo1" serif:id="Mesa de trabajo1" x="0" y="0" width="186.397" height="120" style="fill:none;"/><clipPath id="_clip1"><rect x="0" y="0" width="186.397" height="120"/></clipPath><g clip-path="url(#_clip1)"><path d="M37.403,0l112.313,0l0,11.154l-105.005,0l-7.308,-11.154Zm5.122,16.593l30.734,0l-0,61.68l-4.316,-5.577l-0,-51.156l-20.194,-0l-6.224,-4.947Zm6.993,8.216l11.924,-0l0,46.733l-11.923,0l-0,-46.517l-0.001,-0.216Zm27.47,-8.216l30.734,0l-0,61.68l-4.316,-5.577l0,-51.156l-20.193,-0l-6.225,-4.947Zm6.993,8.216l11.925,-0l-0,46.733l-11.924,0l0,-46.517l-0.001,-0.216Zm27.471,-8.216l30.733,0l0,61.68l-4.316,-5.577l0,-51.156l-20.193,-0l-6.224,-4.947Zm6.992,8.216l11.925,-0l-0,46.733l-11.924,0l0,-46.517l-0.001,-0.216Zm67.042,60.937l-0,1.377l-184.574,0l-0,-1.377l184.574,-0Zm-182.576,6.835l2.476,-0c0.391,-0 0.727,0.021 1.01,0.063c0.282,0.043 0.544,0.152 0.785,0.33c0.242,0.177 0.425,0.418 0.549,0.722c0.124,0.304 0.186,0.622 0.186,0.954c-0,0.66 -0.195,1.19 -0.585,1.589c-0.389,0.398 -1.014,0.597 -1.873,0.597l-1.68,0l0,2.899l-0.868,0l-0,-7.154Zm0.868,3.406l1.688,0c1.033,0 1.55,-0.436 1.55,-1.308c-0,-0.286 -0.068,-0.539 -0.202,-0.759c-0.134,-0.219 -0.299,-0.356 -0.495,-0.409c-0.195,-0.054 -0.485,-0.081 -0.87,-0.081l-1.671,-0l0,2.557Zm11.069,3.748l-1.093,0c-0.654,-1.126 -1.059,-1.817 -1.218,-2.074c-0.158,-0.257 -0.324,-0.477 -0.499,-0.661c-0.175,-0.184 -0.339,-0.3 -0.492,-0.349c-0.154,-0.049 -0.358,-0.073 -0.612,-0.073l-1.003,-0l0,3.157l-0.868,0l-0,-7.154l2.906,-0c0.397,-0 0.729,0.027 0.998,0.083c0.269,0.055 0.505,0.171 0.708,0.349c0.203,0.177 0.359,0.401 0.467,0.671c0.109,0.27 0.164,0.554 0.164,0.854c-0,0.54 -0.157,0.974 -0.47,1.303c-0.314,0.328 -0.77,0.537 -1.37,0.624l-0,0.02c0.438,0.211 0.85,0.646 1.235,1.303l1.147,1.947Zm-4.917,-4.006l1.863,-0c0.376,-0 0.674,-0.035 0.893,-0.105c0.22,-0.07 0.395,-0.206 0.526,-0.408c0.132,-0.202 0.197,-0.428 0.197,-0.678c0,-0.326 -0.109,-0.602 -0.326,-0.83c-0.218,-0.228 -0.578,-0.341 -1.08,-0.341l-2.073,-0l0,2.362Zm8.602,-3.27c0.919,-0 1.671,0.34 2.256,1.02c0.585,0.68 0.878,1.576 0.878,2.689c-0,1.109 -0.294,2.001 -0.882,2.677c-0.588,0.675 -1.339,1.012 -2.252,1.012c-0.947,0 -1.708,-0.35 -2.284,-1.049c-0.576,-0.7 -0.864,-1.554 -0.864,-2.562c-0,-1.175 0.292,-2.099 0.875,-2.775c0.584,-0.675 1.341,-1.012 2.273,-1.012Zm-0.009,6.588c0.665,0 1.205,-0.254 1.618,-0.761c0.414,-0.508 0.622,-1.214 0.625,-2.118c-0,-0.931 -0.211,-1.646 -0.634,-2.148c-0.422,-0.501 -0.953,-0.751 -1.591,-0.751c-0.657,-0 -1.197,0.246 -1.621,0.737c-0.424,0.491 -0.636,1.244 -0.636,2.259c-0,0.83 0.207,1.501 0.622,2.013c0.415,0.513 0.954,0.769 1.617,0.769Zm9.823,-1.581c-0.191,0.803 -0.525,1.403 -1.001,1.798c-0.476,0.396 -1.047,0.593 -1.712,0.593c-1.075,0 -1.858,-0.367 -2.349,-1.1c-0.491,-0.734 -0.736,-1.616 -0.736,-2.648c-0,-1.142 0.289,-2.036 0.866,-2.681c0.578,-0.646 1.32,-0.969 2.228,-0.969c0.638,-0 1.185,0.177 1.638,0.532c0.454,0.354 0.772,0.873 0.954,1.557l-0.851,0.219c-0.143,-0.498 -0.361,-0.872 -0.653,-1.122c-0.293,-0.251 -0.658,-0.376 -1.097,-0.376c-0.717,-0 -1.26,0.256 -1.63,0.769c-0.37,0.512 -0.555,1.199 -0.555,2.061c-0,0.996 0.195,1.736 0.584,2.221c0.39,0.485 0.898,0.727 1.525,0.727c0.513,0 0.93,-0.151 1.251,-0.454c0.321,-0.302 0.546,-0.758 0.674,-1.366l0.864,0.239Zm6.251,-0.747c-0,0.368 -0.019,0.708 -0.056,1.02c-0.038,0.313 -0.136,0.634 -0.296,0.964c-0.16,0.33 -0.419,0.605 -0.779,0.825c-0.36,0.219 -0.84,0.329 -1.44,0.329c-0.585,0 -1.056,-0.097 -1.414,-0.293c-0.359,-0.195 -0.621,-0.447 -0.788,-0.756c-0.168,-0.309 -0.274,-0.631 -0.321,-0.966c-0.046,-0.335 -0.069,-0.71 -0.069,-1.123l0,-4.138l0.869,-0l-0,4.124c-0,0.429 0.028,0.799 0.085,1.11c0.056,0.311 0.206,0.586 0.448,0.827c0.241,0.241 0.614,0.361 1.119,0.361c0.51,0 0.894,-0.096 1.151,-0.288c0.256,-0.192 0.423,-0.448 0.501,-0.768c0.078,-0.321 0.116,-0.735 0.116,-1.242l0,-4.124l0.874,-0l-0,4.138Zm7.257,3.016l-1.092,0c-0.654,-1.126 -1.06,-1.817 -1.218,-2.074c-0.158,-0.257 -0.325,-0.477 -0.499,-0.661c-0.175,-0.184 -0.339,-0.3 -0.493,-0.349c-0.153,-0.049 -0.357,-0.073 -0.611,-0.073l-1.003,-0l0,3.157l-0.868,0l-0,-7.154l2.905,-0c0.397,-0 0.73,0.027 0.999,0.083c0.269,0.055 0.504,0.171 0.707,0.349c0.203,0.177 0.359,0.401 0.468,0.671c0.109,0.27 0.164,0.554 0.164,0.854c-0,0.54 -0.157,0.974 -0.47,1.303c-0.314,0.328 -0.771,0.537 -1.371,0.624l0,0.02c0.439,0.211 0.851,0.646 1.236,1.303l1.146,1.947Zm-4.916,-4.006l1.863,-0c0.376,-0 0.674,-0.035 0.893,-0.105c0.219,-0.07 0.395,-0.206 0.526,-0.408c0.131,-0.202 0.197,-0.428 0.197,-0.678c0,-0.326 -0.109,-0.602 -0.327,-0.83c-0.218,-0.228 -0.577,-0.341 -1.079,-0.341l-2.073,-0l0,2.362Zm11.149,4.006l-0.981,0l-0.77,-2.176l-2.74,-0l-0.725,2.176l-0.918,0l2.521,-7.154l0.935,-0l2.678,7.154Zm-2.015,-2.928c-0.537,-1.549 -0.84,-2.428 -0.909,-2.638c-0.068,-0.21 -0.145,-0.49 -0.228,-0.842l-0.023,0c-0.083,0.482 -0.195,0.928 -0.335,1.338l-0.735,2.142l2.23,0Zm2.749,-4.226l2.266,-0c0.397,-0 0.739,0.022 1.025,0.066c0.287,0.044 0.561,0.151 0.822,0.322c0.261,0.171 0.489,0.406 0.685,0.705c0.195,0.299 0.349,0.643 0.461,1.032c0.112,0.389 0.168,0.86 0.168,1.413c-0,1.054 -0.23,1.92 -0.69,2.599c-0.459,0.678 -1.25,1.017 -2.373,1.017l-2.364,0l0,-7.154Zm0.869,6.305l1.406,0c0.286,0 0.542,-0.02 0.768,-0.059c0.225,-0.039 0.453,-0.144 0.685,-0.317c0.231,-0.172 0.423,-0.455 0.575,-0.849c0.152,-0.394 0.228,-0.914 0.228,-1.562c0,-0.357 -0.029,-0.692 -0.087,-1.002c-0.058,-0.311 -0.166,-0.594 -0.322,-0.85c-0.157,-0.255 -0.337,-0.442 -0.54,-0.561c-0.203,-0.119 -0.401,-0.191 -0.593,-0.217c-0.193,-0.026 -0.44,-0.039 -0.741,-0.039l-1.379,-0l-0,5.456Zm10.911,-2.167c0,0.368 -0.018,0.708 -0.056,1.02c-0.037,0.313 -0.135,0.634 -0.295,0.964c-0.16,0.33 -0.42,0.605 -0.779,0.825c-0.36,0.219 -0.84,0.329 -1.44,0.329c-0.585,0 -1.056,-0.097 -1.415,-0.293c-0.358,-0.195 -0.62,-0.447 -0.788,-0.756c-0.167,-0.309 -0.273,-0.631 -0.32,-0.966c-0.046,-0.335 -0.069,-0.71 -0.069,-1.123l-0,-4.138l0.868,-0l0,4.124c0,0.429 0.029,0.799 0.086,1.11c0.056,0.311 0.206,0.586 0.447,0.827c0.242,0.241 0.615,0.361 1.12,0.361c0.51,0 0.894,-0.096 1.15,-0.288c0.257,-0.192 0.424,-0.448 0.502,-0.768c0.077,-0.321 0.116,-0.735 0.116,-1.242l0,-4.124l0.873,-0l0,4.138Zm7.258,3.016l-1.092,0c-0.654,-1.126 -1.06,-1.817 -1.218,-2.074c-0.158,-0.257 -0.325,-0.477 -0.499,-0.661c-0.175,-0.184 -0.339,-0.3 -0.493,-0.349c-0.154,-0.049 -0.357,-0.073 -0.611,-0.073l-1.003,-0l0,3.157l-0.869,0l0,-7.154l2.906,-0c0.397,-0 0.73,0.027 0.999,0.083c0.268,0.055 0.504,0.171 0.707,0.349c0.203,0.177 0.359,0.401 0.468,0.671c0.109,0.27 0.163,0.554 0.163,0.854c0,0.54 -0.156,0.974 -0.47,1.303c-0.313,0.328 -0.77,0.537 -1.37,0.624l0,0.02c0.439,0.211 0.851,0.646 1.236,1.303l1.146,1.947Zm-4.916,-4.006l1.863,-0c0.376,-0 0.673,-0.035 0.893,-0.105c0.219,-0.07 0.395,-0.206 0.526,-0.408c0.131,-0.202 0.197,-0.428 0.197,-0.678c-0,-0.326 -0.109,-0.602 -0.327,-0.83c-0.218,-0.228 -0.577,-0.341 -1.079,-0.341l-2.073,-0l0,2.362Zm6.739,4.006l-0.874,0l0,-7.154l0.874,-0l-0,7.154Zm0.702,-8.994l-0.989,1.371l-0.663,0l0.596,-1.371l1.056,0Zm6.251,8.994l-0.981,0l-0.77,-2.176l-2.74,-0l-0.725,2.176l-0.918,0l2.521,-7.154l0.935,-0l2.678,7.154Zm-2.015,-2.928c-0.537,-1.549 -0.84,-2.428 -0.909,-2.638c-0.068,-0.21 -0.145,-0.49 -0.228,-0.842l-0.023,0c-0.083,0.482 -0.195,0.928 -0.335,1.338l-0.735,2.142l2.23,0Zm12.22,1.982c-0.826,0.748 -1.731,1.122 -2.713,1.122c-1.006,0 -1.817,-0.334 -2.433,-1.003c-0.617,-0.668 -0.925,-1.557 -0.925,-2.667c0,-0.676 0.126,-1.307 0.378,-1.891c0.253,-0.584 0.624,-1.036 1.115,-1.356c0.491,-0.321 1.092,-0.481 1.802,-0.481c0.738,-0 1.329,0.176 1.776,0.529c0.446,0.353 0.747,0.883 0.902,1.589l-0.779,0.239c-0.123,-0.514 -0.342,-0.9 -0.658,-1.159c-0.317,-0.259 -0.73,-0.388 -1.241,-0.388c-0.791,0 -1.388,0.264 -1.791,0.791c-0.402,0.527 -0.604,1.216 -0.604,2.069c0,0.637 0.098,1.168 0.293,1.591c0.196,0.423 0.485,0.742 0.869,0.959c0.383,0.216 0.801,0.324 1.251,0.324c0.687,0 1.326,-0.245 1.917,-0.737l-0,-1.327l-1.935,-0l0,-0.854l2.776,-0l0,2.65Zm6.211,1l-4.903,0l-0,-7.154l4.75,-0l0,0.849l-3.882,0l0,2.186l3.632,0l-0,0.85l-3.632,-0l0,2.42l4.035,0l-0,0.849Zm6.384,0l-0.891,0l-3.429,-5.617l-0.018,0l-0,5.617l-0.824,0l-0,-7.154l0.886,-0l3.43,5.617l0.018,0l0,-5.617l0.828,-0l0,7.154Zm6.367,0l-4.902,0l-0,-7.154l4.75,-0l0,0.849l-3.882,0l0,2.186l3.631,0l0,0.85l-3.631,-0l0,2.42l4.034,0l0,0.849Zm7.016,0l-1.092,0c-0.654,-1.125 -1.06,-1.817 -1.218,-2.074c-0.158,-0.257 -0.325,-0.477 -0.499,-0.661c-0.175,-0.184 -0.339,-0.3 -0.493,-0.349c-0.153,-0.049 -0.357,-0.073 -0.611,-0.073l-1.003,-0l0,3.157l-0.868,0l-0,-7.154l2.905,-0c0.397,-0 0.73,0.028 0.999,0.083c0.269,0.055 0.504,0.172 0.707,0.349c0.203,0.177 0.359,0.401 0.468,0.671c0.109,0.27 0.164,0.555 0.164,0.854c-0,0.54 -0.157,0.974 -0.471,1.303c-0.313,0.328 -0.77,0.537 -1.37,0.625l0,0.019c0.439,0.212 0.851,0.646 1.236,1.303l1.146,1.947Zm-4.916,-4.006l1.863,-0c0.376,-0 0.674,-0.035 0.893,-0.105c0.219,-0.07 0.395,-0.206 0.526,-0.408c0.131,-0.201 0.197,-0.428 0.197,-0.678c0,-0.325 -0.109,-0.602 -0.327,-0.83c-0.218,-0.227 -0.577,-0.341 -1.079,-0.341l-2.073,-0l0,2.362Zm11.149,4.006l-0.981,0l-0.77,-2.176l-2.74,-0l-0.725,2.176l-0.918,0l2.521,-7.154l0.935,-0l2.678,7.154Zm-2.015,-2.928c-0.537,-1.548 -0.84,-2.428 -0.909,-2.638c-0.068,-0.209 -0.145,-0.49 -0.228,-0.841l-0.023,-0c-0.083,0.481 -0.195,0.927 -0.335,1.337l-0.735,2.142l2.23,0Zm6.81,2.928l-4.106,0l0,-7.154l0.869,-0l0,6.305l3.237,0l0,0.849Zm3.587,-7.154l2.265,-0c0.397,-0 0.739,0.022 1.026,0.066c0.286,0.044 0.56,0.151 0.821,0.322c0.261,0.171 0.49,0.406 0.685,0.705c0.196,0.299 0.349,0.643 0.461,1.032c0.112,0.389 0.168,0.86 0.168,1.413c0,1.054 -0.23,1.92 -0.689,2.599c-0.46,0.678 -1.251,1.017 -2.373,1.017l-2.364,0l-0,-7.154Zm0.868,6.305l1.406,0c0.287,0 0.543,-0.019 0.768,-0.058c0.225,-0.04 0.454,-0.145 0.685,-0.318c0.231,-0.172 0.423,-0.455 0.575,-0.849c0.153,-0.394 0.229,-0.914 0.229,-1.561c-0,-0.358 -0.029,-0.693 -0.088,-1.003c-0.058,-0.311 -0.165,-0.594 -0.322,-0.85c-0.157,-0.255 -0.336,-0.442 -0.539,-0.561c-0.203,-0.118 -0.401,-0.191 -0.594,-0.217c-0.192,-0.026 -0.439,-0.039 -0.741,-0.039l-1.379,0l0,5.456Zm10.652,0.849l-4.903,0l0,-7.154l4.751,-0l-0,0.849l-3.882,0l-0,2.186l3.631,0l0,0.85l-3.631,-0l-0,2.42l4.034,0l0,0.849Zm5.292,0l-4.105,0l-0,-7.154l0.868,-0l0,6.305l3.237,0l0,0.849Zm8.481,0l-4.903,0l-0,-7.154l4.75,-0l0,0.849l-3.882,0l0,2.186l3.632,0l-0,0.85l-3.632,-0l0,2.42l4.035,0l-0,0.849Zm5.099,-5.056c-0.035,-0.455 -0.186,-0.798 -0.452,-1.027c-0.266,-0.229 -0.646,-0.344 -1.142,-0.344c-0.447,0 -0.812,0.091 -1.092,0.273c-0.281,0.183 -0.421,0.448 -0.421,0.796c-0,0.309 0.108,0.539 0.325,0.69c0.216,0.152 0.63,0.302 1.242,0.452c0.543,0.13 0.987,0.263 1.33,0.4c0.343,0.137 0.637,0.349 0.882,0.637c0.245,0.288 0.367,0.674 0.367,1.159c0,0.615 -0.225,1.126 -0.674,1.532c-0.449,0.407 -1.035,0.61 -1.757,0.61c-0.923,0 -1.613,-0.224 -2.071,-0.673c-0.458,-0.449 -0.701,-1.032 -0.728,-1.747l0.824,-0.078c0.039,0.572 0.242,0.989 0.609,1.251c0.367,0.262 0.811,0.393 1.33,0.393c0.487,0 0.88,-0.109 1.18,-0.327c0.3,-0.218 0.45,-0.514 0.45,-0.888c-0,-0.39 -0.157,-0.675 -0.47,-0.854c-0.314,-0.179 -0.84,-0.355 -1.579,-0.529c-0.738,-0.175 -1.27,-0.419 -1.596,-0.735c-0.325,-0.316 -0.488,-0.725 -0.488,-1.23c0,-0.572 0.206,-1.046 0.618,-1.42c0.412,-0.374 0.973,-0.561 1.684,-0.561c0.728,-0 1.314,0.186 1.757,0.559c0.443,0.372 0.678,0.902 0.705,1.588l-0.833,0.073Zm6.922,-1.249l-2.171,0l-0,6.305l-0.873,0l-0,-6.305l-2.154,0l0,-0.849l5.198,-0l0,0.849Zm6.331,6.305l-0.98,0l-0.77,-2.176l-2.74,-0l-0.726,2.176l-0.918,0l2.521,-7.154l0.936,-0l2.677,7.154Zm-2.014,-2.928c-0.538,-1.548 -0.841,-2.428 -0.909,-2.638c-0.069,-0.209 -0.145,-0.49 -0.229,-0.841l-0.022,-0c-0.084,0.481 -0.196,0.927 -0.336,1.337l-0.734,2.142l2.23,0Zm2.749,-4.226l2.265,-0c0.397,-0 0.739,0.022 1.026,0.066c0.286,0.044 0.56,0.151 0.821,0.322c0.261,0.171 0.49,0.406 0.685,0.705c0.196,0.299 0.35,0.643 0.461,1.032c0.112,0.389 0.168,0.86 0.168,1.413c0,1.054 -0.229,1.92 -0.689,2.599c-0.46,0.678 -1.251,1.017 -2.373,1.017l-2.364,0l-0,-7.154Zm0.868,6.305l1.406,0c0.287,0 0.543,-0.019 0.768,-0.058c0.226,-0.04 0.454,-0.145 0.685,-0.318c0.232,-0.172 0.423,-0.455 0.576,-0.849c0.152,-0.394 0.228,-0.914 0.228,-1.561c-0,-0.358 -0.029,-0.693 -0.087,-1.003c-0.059,-0.311 -0.166,-0.594 -0.323,-0.85c-0.157,-0.255 -0.336,-0.442 -0.539,-0.561c-0.203,-0.118 -0.401,-0.191 -0.594,-0.217c-0.192,-0.026 -0.439,-0.039 -0.741,-0.039l-1.379,0l0,5.456Zm8.601,-6.427c0.92,-0 1.672,0.34 2.257,1.02c0.585,0.68 0.878,1.576 0.878,2.689c-0,1.109 -0.294,2.002 -0.882,2.677c-0.588,0.675 -1.339,1.012 -2.253,1.012c-0.946,0 -1.707,-0.349 -2.283,-1.049c-0.576,-0.699 -0.864,-1.553 -0.864,-2.562c-0,-1.175 0.292,-2.099 0.875,-2.774c0.584,-0.676 1.341,-1.013 2.272,-1.013Zm-0.008,6.588c0.665,0 1.205,-0.254 1.618,-0.761c0.414,-0.508 0.622,-1.214 0.625,-2.118c-0,-0.931 -0.211,-1.646 -0.634,-2.147c-0.422,-0.501 -0.953,-0.752 -1.592,-0.752c-0.656,0 -1.197,0.246 -1.62,0.737c-0.424,0.491 -0.636,1.244 -0.636,2.259c-0,0.83 0.207,1.501 0.622,2.014c0.415,0.512 0.954,0.768 1.617,0.768Zm-132.893,20.899l-0.912,0l-1.819,-4.464l0.119,-0.149l1.55,0l-0,-3.068l-2.231,0l-0,7.681l-0.869,0l-0,-8.336l3.275,0c0.204,0 0.371,0.055 0.5,0.165c0.129,0.11 0.193,0.252 0.193,0.426l0,3.164c0,0.402 -0.316,0.602 -0.95,0.602c-0.062,0 -0.154,-0.003 -0.275,-0.008c-0.12,-0.005 -0.208,-0.008 -0.262,-0.008c0.562,1.328 1.123,2.66 1.681,3.995Zm4.525,0l-3.212,0l-0,-8.336l3.174,0l0,0.655l-2.306,0l0,3.111l2.1,-0l0,0.666l-2.1,-0l0,3.249l2.344,-0l-0,0.655Zm5.237,-3.904c0,0.174 -0.065,0.317 -0.197,0.428c-0.131,0.112 -0.299,0.168 -0.503,0.168l-2.306,0l0,3.308l-0.869,0l0,-8.336l3.175,0c0.204,0 0.372,0.055 0.503,0.165c0.132,0.11 0.197,0.252 0.197,0.426l0,3.841Zm-0.869,-0.064l0,-3.713l-2.137,0l0,3.713l2.137,-0Zm6.3,3.377c0,0.174 -0.065,0.316 -0.197,0.426c-0.131,0.11 -0.299,0.165 -0.503,0.165l-2.662,0c-0.204,0 -0.371,-0.055 -0.5,-0.165c-0.129,-0.11 -0.194,-0.252 -0.194,-0.426l0,-7.745l0.869,0l-0,7.681l2.318,-0l0,-7.681l0.869,0l0,7.745Zm-0.675,-9.433l-1.531,1.23l-0.581,0l-0,-0.032l0.937,-1.22l1.175,0l0,0.022Zm6.162,9.433c0,0.174 -0.064,0.316 -0.193,0.426c-0.129,0.11 -0.296,0.165 -0.5,0.165l-3.225,0l-0,-8.336l3.2,0c0.204,0 0.371,0.055 0.5,0.165c0.129,0.11 0.193,0.252 0.193,0.426l0,2.477c0,0.22 -0.116,0.405 -0.35,0.554l-0.687,0.352l0.737,0.404c0.217,0.114 0.325,0.292 0.325,0.533l0,2.834Zm-0.9,-4.581l0,-2.509l-2.149,0l-0,3.01l1.281,-0l0.868,-0.501Zm0.025,4.517l0,-2.882l-0.881,-0.49l-1.293,0l-0,3.372l2.174,-0Zm5.531,0.655l-3.124,0l-0,-8.336l0.868,0l0,7.681l2.256,-0l0,0.655Zm2.119,0l-0.869,0l0,-8.336l0.869,0l0,8.336Zm5.55,-0.591c-0,0.174 -0.067,0.316 -0.2,0.426c-0.134,0.11 -0.302,0.165 -0.506,0.165l-2.519,0c-0.204,0 -0.371,-0.055 -0.5,-0.165c-0.129,-0.11 -0.194,-0.252 -0.194,-0.426l0,-7.154c0,-0.174 0.065,-0.316 0.194,-0.426c0.129,-0.11 0.296,-0.165 0.5,-0.165l2.519,0c0.204,0 0.372,0.055 0.506,0.165c0.133,0.11 0.2,0.252 0.2,0.426l-0,1.939l-0.875,0l-0,-1.875l-2.175,0l-0,7.026l2.175,-0l-0,-2.051l0.875,0l-0,2.115Zm5.475,0.591l-0.863,0l-0.344,-1.854l-1.943,0l-0.344,1.854l-0.837,0l-0,-0.021l1.743,-8.336l0.856,-0l1.732,8.357Zm-1.319,-2.509l-0.856,-4.517l-0.863,4.517l1.719,0Zm9.031,1.002c-0,0.44 -0.17,0.801 -0.51,1.084c-0.339,0.282 -0.767,0.423 -1.284,0.423l-2.237,0l-0,-8.336l2.237,0c0.521,0 0.95,0.141 1.287,0.424c0.338,0.282 0.507,0.643 0.507,1.083l-0,5.322Zm-0.869,-0.075l-0,-5.183c-0,-0.273 -0.101,-0.494 -0.303,-0.663c-0.202,-0.168 -0.464,-0.253 -0.784,-0.253l-1.207,0l0,7.026l1.157,-0c0.337,-0 0.611,-0.083 0.821,-0.248c0.211,-0.165 0.316,-0.391 0.316,-0.679Zm5.6,1.582l-3.213,0l0,-8.336l3.175,0l0,0.655l-2.306,0l0,3.111l2.1,-0l-0,0.666l-2.1,-0l0,3.249l2.344,-0l-0,0.655Zm4.487,0l-3.125,0l0,-8.336l0.869,0l-0,7.681l2.256,-0l-0,0.655Zm6.912,0l-3.212,0l-0,-8.336l3.175,0l-0,0.655l-2.306,0l-0,3.111l2.099,-0l0,0.666l-2.099,-0l-0,3.249l2.343,-0l0,0.655Zm5.281,-0.591c0,0.174 -0.067,0.316 -0.2,0.426c-0.133,0.11 -0.302,0.165 -0.506,0.165l-2.519,0c-0.204,0 -0.371,-0.055 -0.5,-0.165c-0.129,-0.11 -0.193,-0.252 -0.193,-0.426l-0,-7.154c-0,-0.174 0.064,-0.316 0.193,-0.426c0.129,-0.11 0.296,-0.165 0.5,-0.165l2.519,0c0.204,0 0.373,0.055 0.506,0.165c0.133,0.11 0.2,0.252 0.2,0.426l0,1.939l-0.875,0l0,-1.875l-2.175,0l0,7.026l2.175,-0l0,-2.051l0.875,0l0,2.115Zm5.587,-0c0,0.174 -0.065,0.316 -0.196,0.426c-0.132,0.11 -0.299,0.165 -0.504,0.165l-2.662,0c-0.204,0 -0.371,-0.055 -0.5,-0.165c-0.129,-0.11 -0.194,-0.252 -0.194,-0.426l0,-7.745l0.869,0l0,7.681l2.319,-0l-0,-7.681l0.868,0l0,7.745Zm5.513,0.591l-0.863,0l-0.344,-1.854l-1.943,0l-0.344,1.854l-0.837,0l-0,-0.021l1.743,-8.336l0.856,-0l1.732,8.357Zm-1.319,-2.509l-0.856,-4.517l-0.863,4.517l1.719,0Zm6.531,1.002c-0,0.44 -0.17,0.801 -0.509,1.084c-0.34,0.282 -0.768,0.423 -1.285,0.423l-2.237,0l-0,-8.336l2.237,0c0.521,0 0.95,0.141 1.288,0.424c0.337,0.282 0.506,0.643 0.506,1.083l-0,5.322Zm-0.869,-0.075l0,-5.183c0,-0.273 -0.101,-0.494 -0.303,-0.663c-0.202,-0.168 -0.463,-0.253 -0.784,-0.253l-1.206,0l-0,7.026l1.156,-0c0.337,-0 0.611,-0.083 0.822,-0.248c0.21,-0.165 0.315,-0.391 0.315,-0.679Zm6.519,0.991c-0,0.174 -0.066,0.316 -0.197,0.426c-0.132,0.11 -0.299,0.165 -0.503,0.165l-2.738,0c-0.204,0 -0.371,-0.055 -0.5,-0.165c-0.129,-0.11 -0.193,-0.252 -0.193,-0.426l-0,-7.154c-0,-0.174 0.064,-0.316 0.193,-0.426c0.129,-0.11 0.296,-0.165 0.5,-0.165l2.738,0c0.204,0 0.371,0.055 0.503,0.165c0.131,0.11 0.197,0.252 0.197,0.426l-0,7.154Zm-0.869,-0.064l-0,-7.026l-2.394,0l0,7.026l2.394,-0Zm6.6,0.655l-0.913,0l-1.819,-4.464l0.119,-0.149l1.55,0l0,-3.068l-2.231,0l-0,7.681l-0.869,0l0,-8.336l3.275,0c0.204,0 0.371,0.055 0.5,0.165c0.129,0.11 0.194,0.252 0.194,0.426l-0,3.164c-0,0.402 -0.317,0.602 -0.95,0.602c-0.063,0 -0.154,-0.003 -0.275,-0.008c-0.121,-0.005 -0.208,-0.008 -0.263,-0.008c0.563,1.328 1.123,2.66 1.682,3.995Zm41.809,-14.861l-0,1.377l-184.574,0l-0,-1.377l184.574,0Z" style="fill:#777;"/></g></svg>