<?xml version="1.0" encoding="UTF-8" standalone="no"?><!DOCTYPE svg PUBLIC "-//W3C//DTD SVG 1.1//EN" "http://www.w3.org/Graphics/SVG/1.1/DTD/svg11.dtd"><svg width="100%" height="100%" viewBox="0 0 189 120" version="1.1" xmlns="http://www.w3.org/2000/svg" xmlns:xlink="http://www.w3.org/1999/xlink" xml:space="preserve" xmlns:serif="http://www.serif.com/" style="fill-rule:evenodd;clip-rule:evenodd;stroke-linejoin:round;stroke-miterlimit:2;"><rect id="Mesa-de-trabajo1" serif:id="Mesa de trabajo1" x="0" y="0" width="188.568" height="120" style="fill:none;"/><path d="M31.459,92.687c-8.899,-1.014 -15.088,-2.526 -19.628,-4.794c-2.768,-1.383 -2.701,-1.199 -1.595,-4.377c1.11,-3.191 4.304,-11.216 5.529,-13.894c0.463,-1.012 0.988,-1.84 1.167,-1.84c0.178,0 1.924,0.63 3.879,1.4c6.658,2.622 11.222,3.551 17.599,3.581c4.431,0.021 6.591,-0.336 8.707,-1.439c2.225,-1.16 3.647,-3.322 3.674,-5.586c0.039,-3.27 -2.445,-5.694 -10.336,-10.089c-11.96,-6.66 -16.853,-11.342 -19.514,-18.671c-0.835,-4.558 -1.311,-8.478 -0.042,-13.146c3.071,-11.082 12.154,-18.987 25.144,-21.883c4.422,-0.986 7.622,-1.313 12.813,-1.307c5.166,0.005 8.686,0.33 12.948,1.196c3.499,0.711 7.666,2.091 8.504,2.816c1.086,0.681 0.319,1.587 -0.022,2.631c-0.972,2.968 -5.054,14.116 -5.583,15.245c-0.274,0.584 -0.675,0.986 -1.034,1.038c-0.322,0.046 -2.284,-0.418 -4.36,-1.032c-4.87,-1.438 -7.876,-1.913 -12.089,-1.909c-3.868,0.005 -6.431,0.456 -8.519,1.499c-2.669,1.334 -3.748,2.782 -3.748,5.03c-0,2.837 1.771,4.465 10.041,9.231c9.167,5.283 13.488,8.466 16.306,12.009c3.498,4.401 5.114,10.257 4.485,16.251c-0.742,7.066 -2.879,11.981 -7.27,16.724c-4.614,4.984 -11.438,8.516 -20.02,10.362c-3.946,0.848 -13.345,1.375 -17.036,0.954Zm42.935,-0.269c0,-0.769 1.038,-6.654 3,-17.003c1.038,-5.472 4.156,-21.972 6.931,-36.665c5.979,-31.669 6.58,-34.673 7.093,-35.456c1.088,-1.66 15.267,-3.05 28.228,-2.767c14.716,0.321 21.864,2.511 28.011,8.581c2.78,2.745 4.409,5.352 5.544,8.871c0.72,2.235 0.981,7.242 0.535,10.298c-1.296,8.89 -6.129,15.189 -15.197,19.806c-1.991,1.014 -3.622,1.925 -3.624,2.024c-0.001,0.099 0.519,0.815 1.156,1.591c4.571,5.571 4.937,6.874 7.152,25.489c0.535,4.498 1.231,9.747 1.546,11.664c0.315,1.918 0.485,3.574 0.378,3.68c-0.106,0.107 -4.194,0.238 -9.083,0.291c-8.643,0.094 -13.532,-0.07 -14.187,-0.475c-0.466,-0.287 -1.522,-6.942 -2.488,-15.667c-0.462,-4.177 -1.034,-8.532 -1.27,-9.677c-1.158,-5.609 -3.967,-8.026 -9.754,-8.394c-2.005,-0.166 -4.236,-0.152 -4.722,1.556c-0.186,0.666 -1.505,7.406 -2.932,14.978c-1.426,7.571 -2.809,14.625 -3.074,15.674l-0.48,1.909l-11.382,0.071c-10.423,0.065 -11.381,0.033 -11.381,-0.379Zm53.936,-59.303c2.043,-4.227 1.571,-8.673 -1.178,-11.086c-2.378,-2.088 -4.87,-2.77 -10.119,-2.77c-5.82,-0 -5.405,-0.217 -6.212,3.234c-1.164,4.97 -3.491,17.236 -3.343,17.62c0.219,0.57 1.084,0.653 5.626,0.542c6.109,-0.091 12.616,-2.387 15.226,-7.54Zm18.849,59.403c0,-0.758 12.048,-64.677 12.434,-65.967c0.133,-0.445 0.905,-0.477 11.233,-0.473c6.1,0.002 11.263,0.113 11.473,0.246c-12.13,66.165 0.125,0.288 -12.094,66.21c-0.105,0.105 -5.334,0.228 -11.619,0.273c-9.509,0.069 -11.427,0.02 -11.427,-0.289Zm-129.814,23.529c-0.924,-0.279 -0.89,-0.76 0.589,-8.286c1.044,-5.311 1.279,-6.162 1.777,-6.428c0.448,-0.24 1.753,-0.229 2.049,0.017c0.298,0.247 0.213,1.113 -0.481,4.895c-1.054,5.746 -1.827,9.012 -2.246,9.494c-0.331,0.381 -1.028,0.508 -1.688,0.308Zm18.609,-0.198c-0.315,-0.292 -0.374,-0.457 -0.374,-1.057c0,-1.169 1.696,-10.507 2.261,-12.451c0.285,-0.979 0.547,-1.139 1.87,-1.139c1.854,0.184 0.845,3.032 0.749,4.391c1.087,-0.05 2.408,-0.471 3.349,-0.172c0.596,0.197 1.25,0.922 1.445,1.604c0.286,0.996 0.318,2.638 0.085,4.263c-0.505,3.514 -0.794,4.236 -1.875,4.684c-2.563,0.517 -1.459,-2.872 -1.265,-4.277c0.473,-3.396 0.345,-3.984 -0.798,-3.668c-0.644,0.177 -1.47,1.125 -1.852,2.124c-0.749,1.793 -0.639,4.279 -1.99,5.669c-0.494,0.488 -1.099,0.498 -1.605,0.029Zm25.047,0.219c-1.612,-0.393 -2.775,-1.962 -2.902,-3.914c-0.205,-3.174 1.839,-5.782 5.214,-6.653c1.44,-0.372 2.517,-0.247 3.174,0.368c0.717,0.672 0.079,1.607 -1.269,1.862c-1.578,0.298 -2.291,0.575 -2.758,1.069c-1.032,1.094 -1.538,2.895 -1.061,3.782c0.326,0.604 1.013,0.896 2.532,1.075c0.948,0.101 1.652,-0.101 1.707,0.842c0.052,0.886 -0.641,1.329 -1.491,1.543c-0.668,0.168 -2.5,0.183 -3.146,0.026Zm21.624,-0.087c-1.522,-0.409 -1.95,-1.05 -1.941,-2.902c0.009,-1.958 1.483,-9.941 2.052,-11.118c0.346,-0.714 0.693,-0.863 1.831,-0.786c1.573,-0.113 0.662,3.387 0.618,4.421c1.809,-0.308 3.586,-0.204 4.494,0.685c0.94,0.932 1.136,1.335 1.207,2.486c0.154,2.457 -1.408,5.479 -3.449,6.675c-1.233,0.723 -3.278,0.952 -4.812,0.539Zm3.118,-2.718c1.407,-0.888 2.23,-2.993 1.706,-4.363c-0.364,-0.955 -1.102,-1.16 -1.993,-0.555c-1.186,0.806 -2.195,4.035 -1.549,4.957c0.3,0.428 1.124,0.41 1.836,-0.039Zm6.301,2.661c-0.41,-0.25 -0.443,-0.324 -0.443,-0.991c-0,-1.192 0.949,-6.263 1.517,-8.1c0.32,-1.037 0.728,-1.406 1.558,-1.406c1.199,0 1.403,0.941 0.873,4.038c-0.399,2.336 -1.192,5.519 -1.502,6.027c-0.44,0.724 -1.241,0.897 -2.003,0.432Zm15.061,0.064c-0.216,-0.121 -0.384,-0.339 -0.396,-0.513c-0.087,-1.272 0.304,-3.931 1.145,-7.783l0.444,-2.028l1.499,0.017c0.825,0.009 2.199,-0.067 3.054,-0.17c1.862,-0.224 2.205,-0.151 3.001,0.63c0.757,0.743 0.965,1.247 0.965,2.34c-0,0.963 -0.522,4.011 -0.982,5.738c-0.366,1.371 -0.886,1.976 -1.7,1.976c-0.723,0 -1.091,-0.289 -1.166,-0.917c-0.034,-0.283 0.08,-1.8 0.254,-3.372c0.342,-3.086 0.301,-3.791 -0.228,-3.959c-0.439,-0.139 -1.251,0.353 -1.707,1.035c-0.539,0.806 -1.054,2.289 -1.409,4.055c-0.46,2.29 -0.874,2.95 -1.942,3.098c-0.27,0.037 -0.611,-0.023 -0.832,-0.147Zm34.101,3.876c2.434,-13.809 0.082,-0.007 2.335,-13.995c6.919,-0.024 5.162,-0.591 6.959,-0.124c1.315,0.771 1.767,1.795 1.787,4.051c-0.02,2.004 -0.681,3.318 -2.029,4.707c-1.099,1.121 -1.955,1.513 -3.7,1.694c-1.82,0.189 -2.064,0.36 -2.432,1.702c-0.412,1.504 -0.614,1.943 -0.931,2.028c-0.453,0.122 -1.62,0.085 -1.989,-0.063Zm5.832,-6.456c1.474,-0.991 2.563,-3.803 1.523,-5.039c-1.134,-1.208 -2.991,0.893 -3.354,3.794c-0.043,1.469 0.702,1.612 1.831,1.245Zm8.255,2.642c-1.685,-0.814 -2.31,-2.465 -2.307,-3.739c0.034,-1.972 0.991,-3.852 2.391,-5.242c1.803,-1.75 6.32,-2.384 7.707,-1.081c0.404,0.379 0.413,0.813 0.058,2.675c-0.425,2.041 -0.569,3.992 -1.045,6.033c-0.345,1.45 -1.095,1.859 -2.126,1.158c-0.276,-0.187 -0.604,-0.34 -0.73,-0.34c-1.272,0.313 -2.697,0.878 -3.948,0.536Zm2.81,-2.948c0.943,-0.851 1.761,-2.835 1.761,-4.269c0,-0.736 -0.171,-0.952 -0.757,-0.952c-1.35,-0 -3.088,2.669 -2.888,4.438c0.153,1.363 0.899,1.673 1.884,0.783Zm8.969,-8.518c-1.059,-0.856 0.773,-3.277 2.499,-3.304c1.235,-0.019 1.372,0.669 0.354,1.774c-1.174,1.274 -2.374,1.917 -2.853,1.53Zm3.325,11.479c-0.951,-0.226 -1.518,-0.881 -1.348,-1.558c0.12,-0.478 0.442,-0.615 1.822,-0.775c1.615,-0.187 1.942,-0.326 1.942,-0.826c-0,-0.308 -0.237,-0.643 -1.074,-1.517c-1.267,-1.324 -1.652,-1.979 -1.652,-2.814c-0,-1.75 1.716,-3.068 4.225,-3.244c1.574,-0.11 2.543,0.45 2.43,1.405c-0.065,0.542 -0.594,0.851 -1.725,1.009c-1.985,0.278 -2.033,0.632 -0.31,2.302c0.667,0.646 1.318,1.385 1.447,1.642c0.582,1.159 -0.327,3.251 -1.723,3.97c-0.882,0.453 -2.955,0.662 -4.034,0.406Zm8.703,-4.651c-0.613,-0.571 -0.611,-0.736 0.054,-4.812c0.344,-2.107 0.691,-4.002 0.773,-4.212c0.329,-0.846 1.969,-1.111 2.652,-0.428c0.322,0.321 0.342,0.412 0.257,1.125c-0.094,0.776 -1.302,6.078 -1.646,7.223c-0.371,1.231 -1.381,1.764 -2.09,1.104Zm2.76,-87.764c-0.414,-0.167 -2.775,-2.975 -9.798,-11.656c-5.265,-6.508 -8.113,-10.155 -8.42,-10.787c-0.421,-0.867 -0.317,-0.959 1.222,-1.092c1.706,-0.147 20.302,-0.152 21.325,-0.005c1.258,0.18 1.26,0.184 1.004,1.937c-0.778,5.315 -3.464,19.591 -3.911,20.783c-0.173,0.46 -0.654,0.956 -0.918,0.946c-0.118,-0.005 -0.345,-0.062 -0.504,-0.126Zm-57.599,92.216c-1.684,-0.814 -2.31,-2.465 -2.307,-3.739c0.034,-1.972 0.992,-3.852 2.391,-5.242c1.803,-1.75 6.321,-2.384 7.707,-1.081c0.404,0.379 0.413,0.813 0.059,2.675c-0.425,2.041 -0.57,3.992 -1.045,6.033c-0.346,1.45 -1.096,1.859 -2.126,1.159c-0.276,-0.188 -0.605,-0.341 -0.731,-0.341c-1.271,0.313 -2.696,0.878 -3.948,0.536Zm2.81,-2.947c0.943,-0.852 1.762,-2.836 1.762,-4.269c-0,-0.737 -0.172,-0.953 -0.757,-0.953c-1.351,-0 -3.088,2.67 -2.889,4.438c0.154,1.363 0.9,1.673 1.884,0.784Zm-78.066,3.133c-1.684,-0.814 -2.31,-2.465 -2.307,-3.739c0.034,-1.972 0.991,-3.852 2.391,-5.242c1.803,-1.75 6.32,-2.384 7.707,-1.081c0.404,0.379 0.413,0.813 0.058,2.675c-0.425,2.041 -0.569,3.992 -1.044,6.033c-0.346,1.45 -1.096,1.859 -2.127,1.158c-0.275,-0.187 -0.604,-0.34 -0.73,-0.34c-1.271,0.313 -2.696,0.878 -3.948,0.536Zm2.81,-2.948c0.943,-0.851 1.761,-2.835 1.761,-4.269c0,-0.736 -0.171,-0.952 -0.756,-0.952c-1.351,-0 -3.089,2.669 -2.889,4.438c0.153,1.363 0.9,1.673 1.884,0.783Zm81.55,2.945c-0.924,-0.279 -0.89,-0.76 0.59,-8.286c1.044,-5.311 1.279,-6.162 1.777,-6.428c0.448,-0.24 1.752,-0.229 2.048,0.017c0.299,0.247 0.214,1.113 -0.48,4.895c-1.055,5.746 -1.827,9.012 -2.247,9.494c-0.33,0.381 -1.028,0.508 -1.688,0.308Zm31.192,-0.123c-0.41,-0.25 -0.443,-0.324 -0.443,-0.991c-0,-1.192 0.949,-6.263 1.517,-8.1c0.32,-1.037 0.728,-1.406 1.558,-1.406c1.199,0 1.403,0.941 0.873,4.038c-0.4,2.336 -1.193,5.519 -1.502,6.027c-0.44,0.724 -1.242,0.897 -2.003,0.432Zm-94.623,-0.08c-1.321,-0.341 -2.343,-1.08 -2.76,-1.996c-0.324,-0.714 -0.273,-3.199 0.089,-4.364c0.589,-1.89 2.207,-3.617 3.883,-4.145c2.138,-0.672 4.478,0.342 4.987,2.163c0.198,0.703 0.098,1.295 -0.349,2.072c-0.655,1.14 -1.66,1.723 -3.627,2.104c-1.535,0.298 -1.883,0.442 -1.88,0.777c0.006,0.643 0.522,0.843 2.418,0.937c1.742,0.086 2.214,0.252 2.214,0.779c0,0.489 -0.558,1.215 -1.16,1.512c-0.678,0.334 -2.799,0.423 -3.815,0.161Zm2.474,-6.841c0.835,-0.337 0.71,-1.289 -0.168,-1.289c-0.793,0 -1.693,0.634 -1.693,1.193c0,0.425 0.928,0.473 1.861,0.096Zm-48.272,6.841c-1.321,-0.341 -2.343,-1.08 -2.759,-1.996c-0.325,-0.714 -0.274,-3.199 0.089,-4.364c0.588,-1.89 2.206,-3.617 3.883,-4.145c2.138,-0.672 4.477,0.342 4.987,2.163c0.197,0.703 0.097,1.295 -0.349,2.072c-0.656,1.14 -1.661,1.723 -3.628,2.104c-1.534,0.298 -1.883,0.442 -1.88,0.777c0.006,0.643 0.523,0.843 2.418,0.937c1.742,0.086 2.214,0.252 2.214,0.779c0,0.489 -0.557,1.215 -1.16,1.512c-0.677,0.334 -2.799,0.423 -3.815,0.161Zm2.475,-6.841c0.834,-0.337 0.709,-1.289 -0.169,-1.289c-0.793,0 -1.692,0.634 -1.692,1.193c-0,0.425 0.927,0.473 1.861,0.096Zm73.091,6.841c-1.321,-0.341 -2.343,-1.08 -2.759,-1.996c-0.325,-0.714 -0.274,-3.199 0.089,-4.364c0.588,-1.89 2.206,-3.617 3.883,-4.145c2.138,-0.672 4.477,0.342 4.987,2.163c0.197,0.703 0.097,1.295 -0.349,2.072c-0.655,1.14 -1.661,1.723 -3.628,2.104c-1.534,0.298 -1.883,0.442 -1.88,0.777c0.006,0.643 0.523,0.843 2.418,0.937c1.742,0.086 2.214,0.252 2.214,0.779c0,0.489 -0.557,1.215 -1.16,1.512c-0.677,0.334 -2.799,0.423 -3.815,0.161Zm3.028,-7.639c-0.049,-0.268 -0.297,-0.491 -0.722,-0.491c-0.793,0 -1.692,0.634 -1.692,1.193c-0,0.126 0.081,0.218 0.218,0.277c-0.181,-0.429 0.759,-1.208 1.551,-1.219c0.314,-0.005 0.533,0.094 0.645,0.24Zm-5.787,-5.859c0.007,0.035 0.012,0.071 0.017,0.106c0.132,1.04 -0.523,1.993 -1.451,2.111c-0.928,0.118 -1.8,-0.641 -1.932,-1.681c-0.133,-1.039 0.522,-1.992 1.45,-2.11c0.876,-0.112 1.712,0.557 1.907,1.527l0.009,0.047Zm83.963,11.449c0.006,0.036 0.011,0.071 0.016,0.106c0.132,1.04 -0.523,1.993 -1.45,2.111c-0.928,0.118 -1.801,-0.64 -1.933,-1.68c-0.132,-1.04 0.522,-1.993 1.45,-2.111c0.876,-0.111 1.712,0.558 1.908,1.527l0.009,0.047Zm-168.688,0c0.006,0.036 0.012,0.071 0.016,0.106c0.132,1.04 -0.522,1.993 -1.45,2.111c-0.928,0.118 -1.8,-0.64 -1.933,-1.68c-0.132,-1.04 0.523,-1.993 1.451,-2.111c0.876,-0.111 1.711,0.558 1.907,1.527l0.009,0.047Zm-3.817,0c0.007,0.036 0.012,0.071 0.017,0.106c0.132,1.04 -0.523,1.993 -1.451,2.111c-0.928,0.118 -1.8,-0.64 -1.932,-1.68c-0.133,-1.04 0.522,-1.993 1.45,-2.111c0.876,-0.111 1.712,0.558 1.907,1.527l0.009,0.047Zm-3.816,0c0.006,0.036 0.012,0.071 0.016,0.106c0.132,1.04 -0.522,1.993 -1.45,2.111c-0.928,0.118 -1.8,-0.64 -1.933,-1.68c-0.132,-1.04 0.523,-1.993 1.451,-2.111c0.876,-0.111 1.711,0.558 1.907,1.527l0.009,0.047Z" style="fill:#777;"/></svg>