<?xml version="1.0" encoding="UTF-8" standalone="no"?><!DOCTYPE svg PUBLIC "-//W3C//DTD SVG 1.1//EN" "http://www.w3.org/Graphics/SVG/1.1/DTD/svg11.dtd"><svg width="100%" height="100%" viewBox="0 0 2356 709" version="1.1" xmlns="http://www.w3.org/2000/svg" xmlns:xlink="http://www.w3.org/1999/xlink" xml:space="preserve" xmlns:serif="http://www.serif.com/" style="fill-rule:evenodd;clip-rule:evenodd;stroke-linejoin:round;stroke-miterlimit:2;"><rect id="Mesa-de-trabajo5" serif:id="Mesa de trabajo5" x="0" y="0" width="2355.44" height="708.333" style="fill:none;"/><g><g><g><path d="M757.606,60.871l0,180.754c0,27.063 -0.278,44.465 -0.835,52.205c-0.557,7.74 -3.09,14.729 -7.601,20.965c-4.51,6.237 -10.636,10.553 -18.376,12.947c-7.74,2.395 -19.406,3.592 -34.998,3.592l-35.249,-0l0,-47.277c4.232,0.334 7.295,0.501 9.188,0.501c5.012,0 8.965,-1.225 11.861,-3.675c2.896,-2.45 4.566,-5.457 5.012,-9.021c0.445,-3.564 0.668,-10.469 0.668,-20.715l0,-190.276l70.33,-0Z" style="fill:#fff;fill-rule:nonzero;"/><path d="M935.521,187.499l-0,54.293c-0,19.935 -1.002,34.553 -3.007,43.852c-2.005,9.3 -6.293,17.987 -12.863,26.061c-6.571,8.074 -15.008,14.033 -25.309,17.875c-10.302,3.842 -22.135,5.763 -35.5,5.763c-14.923,0 -27.564,-1.642 -37.921,-4.928c-10.358,-3.285 -18.404,-8.241 -24.14,-14.868c-5.735,-6.626 -9.828,-14.645 -12.279,-24.056c-2.45,-9.411 -3.675,-23.527 -3.675,-42.348l0,-56.799c0,-20.604 2.228,-36.697 6.682,-48.28c4.455,-11.582 12.474,-20.882 24.057,-27.898c11.582,-7.016 26.394,-10.524 44.436,-10.524c15.147,-0 28.149,2.255 39.008,6.765c10.859,4.511 19.239,10.386 25.142,17.625c5.902,7.239 9.94,14.701 12.111,22.385c2.172,7.685 3.258,19.379 3.258,35.082Zm-67.491,-16.706c0,-11.359 -0.612,-18.515 -1.837,-21.466c-1.225,-2.952 -3.843,-4.427 -7.852,-4.427c-4.009,-0 -6.682,1.475 -8.019,4.427c-1.336,2.951 -2.004,10.107 -2.004,21.466l-0,100.067c-0,10.469 0.668,17.29 2.004,20.464c1.337,3.174 3.954,4.761 7.852,4.761c4.009,0 6.654,-1.448 7.935,-4.343c1.281,-2.896 1.921,-9.133 1.921,-18.71l0,-102.239Z" style="fill:#fff;fill-rule:nonzero;"/><path d="M1025.23,109.651l-2.673,29.068c9.801,-20.827 24,-31.852 42.599,-33.077l0,78.015c-12.362,-0 -21.439,1.67 -27.23,5.011c-5.791,3.341 -9.355,7.991 -10.691,13.949c-1.337,5.959 -2.005,19.685 -2.005,41.18l-0,87.537l-67.491,-0l0,-221.683l67.491,-0Z" style="fill:#fff;fill-rule:nonzero;"/><path d="M1410.46,224.418l-87.371,0l0,47.945c0,10.024 0.724,16.483 2.172,19.379c1.448,2.895 4.232,4.343 8.353,4.343c5.123,0 8.548,-1.921 10.274,-5.763c1.726,-3.842 2.589,-11.276 2.589,-22.302l0,-29.235l63.983,0l-0,16.372c-0,13.698 -0.864,24.223 -2.59,31.573c-1.726,7.351 -5.763,15.202 -12.111,23.555c-6.348,8.353 -14.395,14.617 -24.14,18.794c-9.745,4.176 -21.968,6.264 -36.669,6.264c-14.255,0 -26.84,-2.06 -37.754,-6.181c-10.915,-4.12 -19.407,-9.772 -25.476,-16.956c-6.07,-7.183 -10.274,-15.091 -12.613,-23.722c-2.339,-8.631 -3.508,-21.188 -3.508,-37.671l-0,-64.651c-0,-19.378 2.617,-34.664 7.851,-45.856c5.235,-11.193 13.81,-19.769 25.727,-25.727c11.917,-5.958 25.615,-8.937 41.096,-8.937c18.933,-0 34.553,3.591 46.859,10.775c12.306,7.183 20.938,16.705 25.894,28.566c4.956,11.861 7.434,28.539 7.434,50.033l-0,29.402Zm-67.658,-36.084l0,-16.204c0,-11.471 -0.613,-18.878 -1.838,-22.219c-1.225,-3.341 -3.731,-5.011 -7.517,-5.011c-4.678,-0 -7.573,1.42 -8.687,4.26c-1.114,2.84 -1.671,10.496 -1.671,22.97l0,16.204l19.713,0Z" style="fill:#fff;fill-rule:nonzero;"/><path d="M1233.55,109.651l-0,170.731c-0,23.054 -0.53,37.949 -1.588,44.687c-1.058,6.738 -4.816,13.866 -11.276,21.384c-6.459,7.517 -15.452,13.253 -26.979,17.206c-11.527,3.954 -26.033,5.931 -43.518,5.931c-21.495,-0 -38.757,-3.648 -51.788,-10.942c-13.03,-7.295 -19.768,-21.634 -20.213,-43.017l65.485,-0c0,9.8 3.564,14.701 10.692,14.701c5.123,-0 8.52,-1.504 10.19,-4.511c1.671,-3.007 2.506,-9.299 2.506,-18.877l0,-16.706c-5.791,5.235 -11.889,9.188 -18.292,11.861c-6.404,2.673 -13.114,4.01 -20.131,4.01c-12.139,-0 -22.134,-2.451 -29.986,-7.351c-7.852,-4.9 -13.225,-11.332 -16.121,-19.295c-2.896,-7.963 -4.343,-19.295 -4.343,-33.996l-0,-80.521c-0,-21.049 3.786,-36.195 11.359,-45.439c7.574,-9.244 19.1,-13.865 34.581,-13.865c8.464,-0 16.177,1.726 23.137,5.178c6.961,3.453 13.17,8.632 18.627,15.537l4.845,-16.706l62.813,-0Zm-67.658,58.804c-0,-10.135 -0.585,-16.595 -1.754,-19.379c-1.17,-2.784 -3.759,-4.176 -7.768,-4.176c-3.898,-0 -6.655,1.587 -8.27,4.761c-1.614,3.174 -2.422,9.438 -2.422,18.794l0,74.506c0,9.912 0.613,16.344 1.838,19.295c1.225,2.952 3.786,4.427 7.684,4.427c4.455,0 7.351,-1.782 8.687,-5.345c1.337,-3.564 2.005,-11.639 2.005,-24.223l-0,-68.66Z" style="fill:#fff;fill-rule:nonzero;"/></g><g><path d="M1637.46,61.448l-52.322,176.057l-0,99.873l-66.469,0l0,-99.873l-50.448,-176.057l65.958,0c10.339,53.743 16.134,89.932 17.384,108.566c3.976,-29.428 10.623,-65.617 19.94,-108.566l65.957,0Z" style="fill:#fff;fill-rule:nonzero;"/><path d="M1803.63,228.301l-89.136,0l-0,48.914c-0,10.226 0.738,16.816 2.215,19.771c1.478,2.954 4.318,4.431 8.522,4.431c5.227,-0 8.721,-1.96 10.482,-5.88c1.761,-3.92 2.641,-11.504 2.641,-22.753l0,-29.825l65.276,-0l-0,16.702c-0,13.975 -0.881,24.713 -2.642,32.212c-1.761,7.499 -5.88,15.509 -12.356,24.031c-6.477,8.521 -14.686,14.912 -24.628,19.173c-9.941,4.261 -22.411,6.391 -37.409,6.391c-14.544,0 -27.383,-2.102 -38.518,-6.306c-11.135,-4.204 -19.799,-9.97 -25.991,-17.298c-6.192,-7.329 -10.482,-15.396 -12.868,-24.202c-2.386,-8.805 -3.579,-21.616 -3.579,-38.432l0,-65.958c0,-19.77 2.67,-35.364 8.011,-46.783c5.34,-11.419 14.089,-20.168 26.246,-26.247c12.158,-6.079 26.133,-9.118 41.926,-9.118c19.316,0 35.252,3.664 47.807,10.993c12.555,7.329 21.361,17.043 26.417,29.144c5.056,12.101 7.584,29.115 7.584,51.044l-0,29.996Zm-69.025,-36.813l-0,-16.532c-0,-11.703 -0.625,-19.259 -1.875,-22.667c-1.25,-3.409 -3.806,-5.113 -7.669,-5.113c-4.772,-0 -7.727,1.448 -8.863,4.346c-1.136,2.897 -1.704,10.709 -1.704,23.434l-0,16.532l20.111,0Z" style="fill:#fff;fill-rule:nonzero;"/><path d="M1896.17,111.214l-1.193,19.941c6.135,-8.067 12.896,-14.089 20.281,-18.066c7.385,-3.977 15.453,-5.965 24.201,-5.965c10.681,0 19.913,2.869 27.696,8.607c7.783,5.738 12.64,12.356 14.572,19.855c1.931,7.499 2.897,20.225 2.897,38.177l0,95.272c0,20.565 -1.221,35.194 -3.664,43.886c-2.443,8.692 -7.442,15.623 -14.998,20.793c-7.556,5.17 -16.674,7.754 -27.355,7.754c-8.521,0 -16.418,-1.988 -23.69,-5.965c-7.272,-3.976 -13.918,-9.885 -19.94,-17.725l-0,51.812l-68.855,-0l0,-258.376l70.048,0Zm19.599,65.787c0,-13.975 -0.511,-22.44 -1.534,-25.394c-1.022,-2.954 -3.863,-4.431 -8.521,-4.431c-4.545,-0 -7.471,1.704 -8.777,5.113c-1.307,3.408 -1.96,11.646 -1.96,24.712l-0,93.738c-0,13.635 0.681,22.156 2.045,25.565c1.363,3.409 4.317,5.113 8.862,5.113c4.432,-0 7.187,-1.562 8.266,-4.687c1.08,-3.125 1.619,-10.709 1.619,-22.753l0,-96.976Z" style="fill:#fff;fill-rule:nonzero;"/><path d="M2163.24,228.301l-89.136,0l-0,48.914c-0,10.226 0.738,16.816 2.216,19.771c1.477,2.954 4.317,4.431 8.521,4.431c5.227,-0 8.721,-1.96 10.482,-5.88c1.761,-3.92 2.641,-11.504 2.641,-22.753l0,-29.825l65.276,-0l0,16.702c0,13.975 -0.881,24.713 -2.642,32.212c-1.761,7.499 -5.88,15.509 -12.356,24.031c-6.476,8.521 -14.686,14.912 -24.627,19.173c-9.942,4.261 -22.412,6.391 -37.41,6.391c-14.544,0 -27.383,-2.102 -38.518,-6.306c-11.135,-4.204 -19.799,-9.97 -25.991,-17.298c-6.192,-7.329 -10.482,-15.396 -12.868,-24.202c-2.386,-8.805 -3.579,-21.616 -3.579,-38.432l0,-65.958c0,-19.77 2.67,-35.364 8.011,-46.783c5.34,-11.419 14.089,-20.168 26.246,-26.247c12.158,-6.079 26.133,-9.118 41.927,-9.118c19.315,0 35.251,3.664 47.806,10.993c12.555,7.329 21.361,17.043 26.417,29.144c5.056,12.101 7.584,29.115 7.584,51.044l0,29.996Zm-69.025,-36.813l-0,-16.532c-0,-11.703 -0.625,-19.259 -1.875,-22.667c-1.25,-3.409 -3.806,-5.113 -7.669,-5.113c-4.772,-0 -7.727,1.448 -8.863,4.346c-1.136,2.897 -1.704,10.709 -1.704,23.434l-0,16.532l20.111,0Z" style="fill:#fff;fill-rule:nonzero;"/><path d="M2292.94,111.214l-0,50.108l-50.789,130.721l50.789,0l-0,45.335l-117.428,0l0,-47.38l51.982,-133.449l-46.698,0l-0,-45.335l112.144,0Z" style="fill:#fff;fill-rule:nonzero;"/><path d="M1789.95,60.871l-54.141,36.617l-33.406,-0l28.963,-36.617l58.584,-0Z" style="fill:#fff;fill-rule:nonzero;"/></g></g><g><path d="M62.5,122.771l493.827,0l0,246.914c0,-0.574 -492.84,-246.914 -493.827,-246.914Z" style="fill:#fff;"/><path d="M556.327,400.549c0,136.275 -110.638,246.914 -246.913,246.914c-136.276,-0 -246.914,-110.639 -246.914,-246.914l493.827,0Z" style="fill:#fff;"/><rect x="62.5" y="61.043" width="493.827" height="30.864" style="fill:#fff;"/></g><g><path d="M779.749,546.446l-73.18,0l-19.043,41.517l-27.788,0l84.583,-181.677l81.595,181.677l-28.232,0l-17.935,-41.517Zm-10.517,-24.245l-25.353,-58.124l-26.571,58.124l51.924,-0Z" style="fill:#fff;fill-rule:nonzero;"/><path d="M870.643,400.971l0,91.67c9.964,-10.334 21.257,-15.5 33.878,-15.5c14.54,-0 26.645,5.425 36.313,16.275c9.669,10.775 14.504,24.208 14.504,40.299c-0,16.606 -4.872,30.334 -14.614,41.184c-9.669,10.776 -21.884,16.164 -36.646,16.164c-12.473,0 -23.618,-4.797 -33.435,-14.392l0,11.292l-24.91,0l0,-186.992l24.91,0Zm59.231,133.851c-0,-10.333 -2.805,-18.747 -8.414,-25.243c-5.683,-6.642 -12.806,-9.964 -21.367,-9.964c-9.153,0 -16.607,3.211 -22.364,9.632c-5.683,6.348 -8.525,14.614 -8.525,24.8c0,10.48 2.805,18.858 8.414,25.131c5.61,6.421 12.99,9.632 22.142,9.632c8.636,0 15.795,-3.211 21.478,-9.632c5.757,-6.495 8.636,-14.614 8.636,-24.356Z" style="fill:#fff;fill-rule:nonzero;"/><path d="M976.594,533.272c0,-15.574 5.573,-28.822 16.718,-39.746c11.145,-10.923 24.725,-16.385 40.742,-16.385c16.09,-0 29.744,5.499 40.963,16.496c11.071,10.997 16.607,24.504 16.607,40.52c-0,16.164 -5.573,29.708 -16.718,40.632c-11.219,10.849 -24.984,16.274 -41.295,16.274c-16.164,0 -29.708,-5.535 -40.631,-16.607c-10.924,-10.923 -16.386,-24.651 -16.386,-41.184Zm25.464,0.443c-0,10.775 2.878,19.3 8.635,25.574c5.905,6.347 13.692,9.521 23.361,9.521c9.742,0 17.529,-3.137 23.36,-9.41c5.83,-6.274 8.746,-14.651 8.746,-25.132c-0,-10.481 -2.916,-18.858 -8.746,-25.131c-5.905,-6.348 -13.692,-9.522 -23.36,-9.522c-9.522,0 -17.235,3.174 -23.139,9.522c-5.905,6.347 -8.857,14.54 -8.857,24.578Z" style="fill:#fff;fill-rule:nonzero;"/><path d="M1222.26,585.417c0,5.093 -0.166,9.576 -0.498,13.451c-0.332,3.875 -0.793,7.289 -1.384,10.241c-1.771,8.119 -5.24,15.094 -10.407,20.925c-9.742,11.218 -23.139,16.828 -40.188,16.828c-14.393,-0 -26.239,-3.875 -35.539,-11.625c-9.595,-7.971 -15.13,-19.005 -16.606,-33.103l25.021,0c0.959,5.314 2.546,9.411 4.76,12.289c5.167,6.717 12.695,10.075 22.585,10.075c18.231,-0 27.346,-11.182 27.346,-33.546l0,-15.056c-9.89,10.111 -21.293,15.167 -34.21,15.167c-14.688,0 -26.718,-5.314 -36.092,-15.942c-9.447,-10.776 -14.171,-24.246 -14.171,-40.41c0,-15.721 4.392,-29.08 13.175,-40.078c9.447,-11.661 21.921,-17.492 37.42,-17.492c13.581,-0 24.874,5.056 33.878,15.167l0,-12.178l24.91,0l0,105.287Zm-23.914,-51.149c0,-10.481 -2.804,-18.858 -8.414,-25.131c-5.683,-6.422 -12.953,-9.632 -21.81,-9.632c-9.447,-0 -16.902,3.506 -22.364,10.517c-4.945,6.274 -7.417,14.393 -7.417,24.357c-0,9.816 2.472,17.861 7.417,24.135c5.388,6.864 12.843,10.296 22.364,10.296c9.521,0 17.05,-3.469 22.585,-10.407c5.093,-6.273 7.639,-14.318 7.639,-24.135Z" style="fill:#fff;fill-rule:nonzero;"/><path d="M1333.2,480.13l25.021,0l-0,107.833l-25.021,0l0,-11.292c-10.259,9.595 -21.293,14.392 -33.103,14.392c-14.909,0 -27.235,-5.388 -36.977,-16.164c-9.669,-10.997 -14.504,-24.725 -14.504,-41.184c0,-16.164 4.835,-29.634 14.504,-40.41c9.668,-10.776 21.773,-16.164 36.313,-16.164c12.547,-0 23.803,5.166 33.767,15.5l0,-12.511Zm-59.12,53.585c0,10.333 2.768,18.747 8.303,25.242c5.684,6.569 12.843,9.853 21.479,9.853c9.225,0 16.68,-3.174 22.363,-9.521c5.683,-6.569 8.525,-14.909 8.525,-25.021c0,-10.112 -2.842,-18.452 -8.525,-25.021c-5.683,-6.421 -13.064,-9.632 -22.142,-9.632c-8.562,0 -15.721,3.248 -21.478,9.743c-5.683,6.569 -8.525,14.688 -8.525,24.357Z" style="fill:#fff;fill-rule:nonzero;"/><path d="M1469.15,400.971l25.021,0l-0,186.992l-25.021,0l-0,-11.292c-9.817,9.595 -20.925,14.392 -33.324,14.392c-14.762,0 -27.014,-5.388 -36.757,-16.164c-9.668,-10.997 -14.503,-24.725 -14.503,-41.184c0,-16.091 4.835,-29.524 14.503,-40.299c9.595,-10.85 21.663,-16.275 36.203,-16.275c12.621,-0 23.914,5.166 33.878,15.5l-0,-91.67Zm-59.12,132.744c-0,10.333 2.768,18.747 8.303,25.242c5.683,6.569 12.843,9.853 21.478,9.853c9.226,0 16.681,-3.174 22.364,-9.521c5.683,-6.569 8.525,-14.909 8.525,-25.021c-0,-10.112 -2.842,-18.452 -8.525,-25.021c-5.683,-6.421 -13.064,-9.632 -22.142,-9.632c-8.562,0 -15.721,3.248 -21.478,9.743c-5.684,6.569 -8.525,14.688 -8.525,24.357Z" style="fill:#fff;fill-rule:nonzero;"/><path d="M1520.52,533.272c-0,-15.574 5.572,-28.822 16.717,-39.746c11.145,-10.923 24.726,-16.385 40.742,-16.385c16.09,-0 29.745,5.499 40.964,16.496c11.071,10.997 16.606,24.504 16.606,40.52c0,16.164 -5.572,29.708 -16.717,40.632c-11.219,10.849 -24.984,16.274 -41.296,16.274c-16.163,0 -29.707,-5.535 -40.631,-16.607c-10.923,-10.923 -16.385,-24.651 -16.385,-41.184Zm25.464,0.443c-0,10.775 2.878,19.3 8.635,25.574c5.905,6.347 13.691,9.521 23.36,9.521c9.743,0 17.53,-3.137 23.36,-9.41c5.831,-6.274 8.747,-14.651 8.747,-25.132c-0,-10.481 -2.916,-18.858 -8.747,-25.131c-5.904,-6.348 -13.691,-9.522 -23.36,-9.522c-9.521,0 -17.234,3.174 -23.138,9.522c-5.905,6.347 -8.857,14.54 -8.857,24.578Z" style="fill:#fff;fill-rule:nonzero;"/><path d="M1730.65,587.963l35.982,-183.781l58.677,132.854l60.78,-132.854l32.328,183.781l-26.46,0l-16.496,-103.183l-50.595,111.044l-49.156,-111.155l-18.378,103.294l-26.682,0Z" style="fill:#fff;fill-rule:nonzero;"/><path d="M2054.15,585.417c-0,5.093 -0.167,9.576 -0.499,13.451c-0.332,3.875 -0.793,7.289 -1.384,10.241c-1.771,8.119 -5.24,15.094 -10.406,20.925c-9.743,11.218 -23.139,16.828 -40.189,16.828c-14.392,-0 -26.238,-3.875 -35.538,-11.625c-9.595,-7.971 -15.131,-19.005 -16.607,-33.103l25.021,0c0.959,5.314 2.546,9.411 4.761,12.289c5.166,6.717 12.694,10.075 22.585,10.075c18.23,-0 27.345,-11.182 27.345,-33.546l0,-15.056c-9.89,10.111 -21.293,15.167 -34.209,15.167c-14.688,0 -26.719,-5.314 -36.092,-15.942c-9.448,-10.776 -14.171,-24.246 -14.171,-40.41c-0,-15.721 4.391,-29.08 13.174,-40.078c9.448,-11.661 21.921,-17.492 37.421,-17.492c13.58,-0 24.873,5.056 33.877,15.167l0,-12.178l24.911,0l-0,105.287Zm-23.914,-51.149c-0,-10.481 -2.805,-18.858 -8.414,-25.131c-5.683,-6.422 -12.953,-9.632 -21.81,-9.632c-9.448,-0 -16.902,3.506 -22.364,10.517c-4.945,6.274 -7.418,14.393 -7.418,24.357c0,9.816 2.473,17.861 7.418,24.135c5.388,6.864 12.842,10.296 22.364,10.296c9.521,0 17.049,-3.469 22.585,-10.407c5.092,-6.273 7.639,-14.318 7.639,-24.135Z" style="fill:#fff;fill-rule:nonzero;"/><path d="M2148.25,498.508l-20.592,10.961c-3.248,-6.643 -7.27,-9.964 -12.068,-9.964c-2.288,-0 -4.244,0.756 -5.867,2.269c-1.624,1.513 -2.436,3.451 -2.436,5.813c0,4.133 4.798,8.229 14.393,12.289c13.211,5.683 22.105,10.923 26.681,15.721c4.576,4.797 6.864,11.255 6.864,19.374c0,10.407 -3.838,19.116 -11.514,26.128c-7.454,6.643 -16.459,9.964 -27.013,9.964c-18.083,0 -30.889,-8.82 -38.417,-26.46l21.256,-9.853c2.953,5.166 5.204,8.451 6.754,9.853c3.026,2.805 6.642,4.207 10.849,4.207c8.414,0 12.622,-3.838 12.622,-11.514c-0,-4.428 -3.248,-8.562 -9.743,-12.4c-2.51,-1.254 -5.019,-2.472 -7.528,-3.653c-2.51,-1.181 -5.056,-2.399 -7.64,-3.654c-7.233,-3.542 -12.325,-7.085 -15.278,-10.628c-3.764,-4.502 -5.646,-10.296 -5.646,-17.382c-0,-9.373 3.211,-17.123 9.632,-23.249c6.569,-6.126 14.54,-9.189 23.914,-9.189c13.802,-0 24.061,7.122 30.777,21.367Z" style="fill:#fff;fill-rule:nonzero;"/><path d="M2181.47,575.563c-0,-4.133 1.513,-7.712 4.539,-10.739c3.026,-3.026 6.643,-4.539 10.85,-4.539c4.207,0 7.823,1.513 10.849,4.539c3.027,3.027 4.54,6.643 4.54,10.85c-0,4.281 -1.513,7.935 -4.54,10.961c-2.952,2.952 -6.568,4.428 -10.849,4.428c-4.355,0 -8.008,-1.476 -10.961,-4.428c-2.952,-2.953 -4.428,-6.643 -4.428,-11.072Z" style="fill:#fff;fill-rule:nonzero;"/></g></g></svg>